<ttFont>
    <TTGlyph name="A" xMin="-15" yMin="0" xMax="679" yMax="720">
      <contour>
        <pt x="70" y="112" on="1"/>
        <pt x="285" y="720" on="1"/>
        <pt x="378" y="720" on="1"/>
        <pt x="592" y="112" on="1"/>
        <pt x="601" y="87" on="0"/>
        <pt x="620" y="70" on="0"/>
        <pt x="640" y="66" on="1"/>
        <pt x="679" y="59" on="1"/>
        <pt x="679" y="0" on="1"/>
        <pt x="422" y="0" on="1"/>
        <pt x="422" y="57" on="1"/>
        <pt x="477" y="66" on="1"/>
        <pt x="503" y="70" on="0"/>
        <pt x="503" y="90" on="1"/>
        <pt x="503" y="99" on="0"/>
        <pt x="499" y="110" on="1"/>
        <pt x="455" y="237" on="1"/>
        <pt x="190" y="237" on="1"/>
        <pt x="148" y="113" on="1"/>
        <pt x="144" y="102" on="0"/>
        <pt x="144" y="92" on="1"/>
        <pt x="144" y="70" on="0"/>
        <pt x="171" y="66" on="1"/>
        <pt x="225" y="57" on="1"/>
        <pt x="225" y="0" on="1"/>
        <pt x="-15" y="0" on="1"/>
        <pt x="-15" y="59" on="1"/>
        <pt x="23" y="66" on="1"/>
        <pt x="43" y="70" on="0"/>
        <pt x="61" y="87" on="0"/>
      </contour>
      <contour>
        <pt x="333" y="589" on="1"/>
        <pt x="322" y="634" on="1"/>
        <pt x="311" y="589" on="1"/>
        <pt x="214" y="307" on="1"/>
        <pt x="430" y="307" on="1"/>
      </contour>
    </TTGlyph>
    <TTGlyph name="AE" xMin="23" yMin="0" xMax="890" yMax="720">
      <contour>
        <pt x="259" y="664" on="1"/>
        <pt x="259" y="720" on="1"/>
        <pt x="877" y="720" on="1"/>
        <pt x="871" y="548" on="1"/>
        <pt x="807" y="548" on="1"/>
        <pt x="801" y="618" on="1"/>
        <pt x="800" y="636" on="0"/>
        <pt x="782" y="647" on="0"/>
        <pt x="763" y="647" on="1"/>
        <pt x="550" y="647" on="1"/>
        <pt x="550" y="374" on="1"/>
        <pt x="769" y="374" on="1"/>
        <pt x="769" y="304" on="1"/>
        <pt x="550" y="304" on="1"/>
        <pt x="550" y="73" on="1"/>
        <pt x="773" y="73" on="1"/>
        <pt x="792" y="73" on="0"/>
        <pt x="810" y="84" on="0"/>
        <pt x="811" y="102" on="1"/>
        <pt x="817" y="177" on="1"/>
        <pt x="884" y="177" on="1"/>
        <pt x="890" y="0" on="1"/>
        <pt x="385" y="0" on="1"/>
        <pt x="385" y="60" on="1"/>
        <pt x="438" y="69" on="1"/>
        <pt x="456" y="72" on="0"/>
        <pt x="467" y="87" on="0"/>
        <pt x="467" y="107" on="1"/>
        <pt x="467" y="303" on="1"/>
        <pt x="261" y="303" on="1"/>
        <pt x="190" y="113" on="1"/>
        <pt x="185" y="100" on="0"/>
        <pt x="185" y="92" on="1"/>
        <pt x="185" y="71" on="0"/>
        <pt x="213" y="66" on="1"/>
        <pt x="267" y="57" on="1"/>
        <pt x="267" y="0" on="1"/>
        <pt x="23" y="0" on="1"/>
        <pt x="23" y="59" on="1"/>
        <pt x="65" y="66" on="1"/>
        <pt x="85" y="70" on="0"/>
        <pt x="103" y="87" on="0"/>
        <pt x="112" y="112" on="1"/>
        <pt x="322" y="656" on="1"/>
        <pt x="321" y="657" on="0"/>
        <pt x="312" y="659" on="1"/>
      </contour>
      <contour>
        <pt x="467" y="373" on="1"/>
        <pt x="467" y="607" on="1"/>
        <pt x="467" y="627" on="0"/>
        <pt x="456" y="646" on="0"/>
        <pt x="438" y="647" on="1"/>
        <pt x="391" y="650" on="1"/>
        <pt x="287" y="373" on="1"/>
      </contour>
    </TTGlyph>
    <TTGlyph name="AEacute" xMin="23" yMin="0" xMax="890" yMax="935">
      <contour>
        <pt x="631" y="935" on="1"/>
        <pt x="680" y="868" on="1"/>
        <pt x="527" y="764" on="1"/>
        <pt x="511" y="754" on="0"/>
        <pt x="500" y="754" on="1"/>
        <pt x="477" y="754" on="0"/>
        <pt x="452" y="783" on="1"/>
      </contour>
      <contour>
        <pt x="259" y="664" on="1"/>
        <pt x="259" y="720" on="1"/>
        <pt x="877" y="720" on="1"/>
        <pt x="871" y="548" on="1"/>
        <pt x="807" y="548" on="1"/>
        <pt x="801" y="618" on="1"/>
        <pt x="800" y="636" on="0"/>
        <pt x="782" y="647" on="0"/>
        <pt x="763" y="647" on="1"/>
        <pt x="550" y="647" on="1"/>
        <pt x="550" y="374" on="1"/>
        <pt x="769" y="374" on="1"/>
        <pt x="769" y="304" on="1"/>
        <pt x="550" y="304" on="1"/>
        <pt x="550" y="73" on="1"/>
        <pt x="773" y="73" on="1"/>
        <pt x="792" y="73" on="0"/>
        <pt x="810" y="84" on="0"/>
        <pt x="811" y="102" on="1"/>
        <pt x="817" y="177" on="1"/>
        <pt x="884" y="177" on="1"/>
        <pt x="890" y="0" on="1"/>
        <pt x="385" y="0" on="1"/>
        <pt x="385" y="60" on="1"/>
        <pt x="438" y="69" on="1"/>
        <pt x="456" y="72" on="0"/>
        <pt x="467" y="87" on="0"/>
        <pt x="467" y="107" on="1"/>
        <pt x="467" y="303" on="1"/>
        <pt x="261" y="303" on="1"/>
        <pt x="190" y="113" on="1"/>
        <pt x="185" y="100" on="0"/>
        <pt x="185" y="92" on="1"/>
        <pt x="185" y="71" on="0"/>
        <pt x="213" y="66" on="1"/>
        <pt x="267" y="57" on="1"/>
        <pt x="267" y="0" on="1"/>
        <pt x="23" y="0" on="1"/>
        <pt x="23" y="59" on="1"/>
        <pt x="65" y="66" on="1"/>
        <pt x="85" y="70" on="0"/>
        <pt x="103" y="87" on="0"/>
        <pt x="112" y="112" on="1"/>
        <pt x="322" y="656" on="1"/>
        <pt x="321" y="657" on="0"/>
        <pt x="312" y="659" on="1"/>
      </contour>
      <contour>
        <pt x="467" y="373" on="1"/>
        <pt x="467" y="607" on="1"/>
        <pt x="467" y="627" on="0"/>
        <pt x="456" y="646" on="0"/>
        <pt x="438" y="647" on="1"/>
        <pt x="391" y="650" on="1"/>
        <pt x="287" y="373" on="1"/>
      </contour>
    </TTGlyph>
    <TTGlyph name="Aacute" xMin="-15" yMin="0" xMax="679" yMax="935">
      <contour>
        <pt x="461" y="935" on="1"/>
        <pt x="510" y="868" on="1"/>
        <pt x="357" y="764" on="1"/>
        <pt x="341" y="754" on="0"/>
        <pt x="330" y="754" on="1"/>
        <pt x="307" y="754" on="0"/>
        <pt x="282" y="783" on="1"/>
      </contour>
      <contour>
        <pt x="70" y="112" on="1"/>
        <pt x="285" y="720" on="1"/>
        <pt x="378" y="720" on="1"/>
        <pt x="592" y="112" on="1"/>
        <pt x="601" y="87" on="0"/>
        <pt x="620" y="70" on="0"/>
        <pt x="640" y="66" on="1"/>
        <pt x="679" y="59" on="1"/>
        <pt x="679" y="0" on="1"/>
        <pt x="422" y="0" on="1"/>
        <pt x="422" y="57" on="1"/>
        <pt x="477" y="66" on="1"/>
        <pt x="503" y="70" on="0"/>
        <pt x="503" y="90" on="1"/>
        <pt x="503" y="99" on="0"/>
        <pt x="499" y="110" on="1"/>
        <pt x="455" y="237" on="1"/>
        <pt x="190" y="237" on="1"/>
        <pt x="148" y="113" on="1"/>
        <pt x="144" y="102" on="0"/>
        <pt x="144" y="92" on="1"/>
        <pt x="144" y="70" on="0"/>
        <pt x="171" y="66" on="1"/>
        <pt x="225" y="57" on="1"/>
        <pt x="225" y="0" on="1"/>
        <pt x="-15" y="0" on="1"/>
        <pt x="-15" y="59" on="1"/>
        <pt x="23" y="66" on="1"/>
        <pt x="43" y="70" on="0"/>
        <pt x="61" y="87" on="0"/>
      </contour>
      <contour>
        <pt x="333" y="589" on="1"/>
        <pt x="322" y="634" on="1"/>
        <pt x="311" y="589" on="1"/>
        <pt x="214" y="307" on="1"/>
        <pt x="430" y="307" on="1"/>
      </contour>
    </TTGlyph>
    <TTGlyph name="Abreve" xMin="-15" yMin="0" xMax="679" yMax="903">
      <contour>
        <pt x="70" y="112" on="1"/>
        <pt x="285" y="720" on="1"/>
        <pt x="378" y="720" on="1"/>
        <pt x="592" y="112" on="1"/>
        <pt x="601" y="87" on="0"/>
        <pt x="620" y="70" on="0"/>
        <pt x="640" y="66" on="1"/>
        <pt x="679" y="59" on="1"/>
        <pt x="679" y="0" on="1"/>
        <pt x="422" y="0" on="1"/>
        <pt x="422" y="57" on="1"/>
        <pt x="477" y="66" on="1"/>
        <pt x="503" y="70" on="0"/>
        <pt x="503" y="90" on="1"/>
        <pt x="503" y="99" on="0"/>
        <pt x="499" y="110" on="1"/>
        <pt x="455" y="237" on="1"/>
        <pt x="190" y="237" on="1"/>
        <pt x="148" y="113" on="1"/>
        <pt x="144" y="102" on="0"/>
        <pt x="144" y="92" on="1"/>
        <pt x="144" y="70" on="0"/>
        <pt x="171" y="66" on="1"/>
        <pt x="225" y="57" on="1"/>
        <pt x="225" y="0" on="1"/>
        <pt x="-15" y="0" on="1"/>
        <pt x="-15" y="59" on="1"/>
        <pt x="23" y="66" on="1"/>
        <pt x="43" y="70" on="0"/>
        <pt x="61" y="87" on="0"/>
      </contour>
      <contour>
        <pt x="333" y="589" on="1"/>
        <pt x="322" y="634" on="1"/>
        <pt x="311" y="589" on="1"/>
        <pt x="214" y="307" on="1"/>
        <pt x="430" y="307" on="1"/>
      </contour>
      <contour>
        <pt x="431" y="903" on="1"/>
        <pt x="479" y="888" on="1"/>
        <pt x="463" y="835" on="0"/>
        <pt x="386" y="768" on="0"/>
        <pt x="272" y="768" on="0"/>
        <pt x="195" y="835" on="0"/>
        <pt x="179" y="888" on="1"/>
        <pt x="227" y="903" on="1"/>
        <pt x="244" y="874" on="0"/>
        <pt x="297" y="834" on="0"/>
        <pt x="361" y="834" on="0"/>
        <pt x="414" y="874" on="0"/>
      </contour>
    </TTGlyph>
    <TTGlyph name="Acircumflex" xMin="-15" yMin="0" xMax="679" yMax="913">
      <contour>
        <pt x="294" y="913" on="1"/>
        <pt x="369" y="913" on="1"/>
        <pt x="483" y="778" on="1"/>
        <pt x="445" y="746" on="1"/>
        <pt x="331" y="852" on="1"/>
        <pt x="218" y="746" on="1"/>
        <pt x="179" y="778" on="1"/>
      </contour>
      <contour>
        <pt x="70" y="112" on="1"/>
        <pt x="285" y="720" on="1"/>
        <pt x="378" y="720" on="1"/>
        <pt x="592" y="112" on="1"/>
        <pt x="601" y="87" on="0"/>
        <pt x="620" y="70" on="0"/>
        <pt x="640" y="66" on="1"/>
        <pt x="679" y="59" on="1"/>
        <pt x="679" y="0" on="1"/>
        <pt x="422" y="0" on="1"/>
        <pt x="422" y="57" on="1"/>
        <pt x="477" y="66" on="1"/>
        <pt x="503" y="70" on="0"/>
        <pt x="503" y="90" on="1"/>
        <pt x="503" y="99" on="0"/>
        <pt x="499" y="110" on="1"/>
        <pt x="455" y="237" on="1"/>
        <pt x="190" y="237" on="1"/>
        <pt x="148" y="113" on="1"/>
        <pt x="144" y="102" on="0"/>
        <pt x="144" y="92" on="1"/>
        <pt x="144" y="70" on="0"/>
        <pt x="171" y="66" on="1"/>
        <pt x="225" y="57" on="1"/>
        <pt x="225" y="0" on="1"/>
        <pt x="-15" y="0" on="1"/>
        <pt x="-15" y="59" on="1"/>
        <pt x="23" y="66" on="1"/>
        <pt x="43" y="70" on="0"/>
        <pt x="61" y="87" on="0"/>
      </contour>
      <contour>
        <pt x="333" y="589" on="1"/>
        <pt x="322" y="634" on="1"/>
        <pt x="311" y="589" on="1"/>
        <pt x="214" y="307" on="1"/>
        <pt x="430" y="307" on="1"/>
      </contour>
    </TTGlyph>
    <TTGlyph name="Adieresis" xMin="-15" yMin="0" xMax="679" yMax="892">
      <contour>
        <pt x="70" y="112" on="1"/>
        <pt x="285" y="720" on="1"/>
        <pt x="378" y="720" on="1"/>
        <pt x="592" y="112" on="1"/>
        <pt x="601" y="87" on="0"/>
        <pt x="620" y="70" on="0"/>
        <pt x="640" y="66" on="1"/>
        <pt x="679" y="59" on="1"/>
        <pt x="679" y="0" on="1"/>
        <pt x="422" y="0" on="1"/>
        <pt x="422" y="57" on="1"/>
        <pt x="477" y="66" on="1"/>
        <pt x="503" y="70" on="0"/>
        <pt x="503" y="90" on="1"/>
        <pt x="503" y="99" on="0"/>
        <pt x="499" y="110" on="1"/>
        <pt x="455" y="237" on="1"/>
        <pt x="190" y="237" on="1"/>
        <pt x="148" y="113" on="1"/>
        <pt x="144" y="102" on="0"/>
        <pt x="144" y="92" on="1"/>
        <pt x="144" y="70" on="0"/>
        <pt x="171" y="66" on="1"/>
        <pt x="225" y="57" on="1"/>
        <pt x="225" y="0" on="1"/>
        <pt x="-15" y="0" on="1"/>
        <pt x="-15" y="59" on="1"/>
        <pt x="23" y="66" on="1"/>
        <pt x="43" y="70" on="0"/>
        <pt x="61" y="87" on="0"/>
      </contour>
      <contour>
        <pt x="333" y="589" on="1"/>
        <pt x="322" y="634" on="1"/>
        <pt x="311" y="589" on="1"/>
        <pt x="214" y="307" on="1"/>
        <pt x="430" y="307" on="1"/>
      </contour>
      <contour>
        <pt x="262" y="892" on="0"/>
        <pt x="282" y="865" on="0"/>
        <pt x="282" y="802" on="0"/>
        <pt x="255" y="780" on="0"/>
        <pt x="193" y="780" on="0"/>
        <pt x="170" y="804" on="0"/>
        <pt x="170" y="864" on="0"/>
        <pt x="197" y="892" on="0"/>
      </contour>
      <contour>
        <pt x="467" y="892" on="0"/>
        <pt x="487" y="865" on="0"/>
        <pt x="487" y="802" on="0"/>
        <pt x="460" y="780" on="0"/>
        <pt x="398" y="780" on="0"/>
        <pt x="375" y="804" on="0"/>
        <pt x="375" y="864" on="0"/>
        <pt x="402" y="892" on="0"/>
      </contour>
    </TTGlyph>
    <TTGlyph name="Agrave" xMin="-15" yMin="0" xMax="679" yMax="935">
      <contour>
        <pt x="156" y="868" on="1"/>
        <pt x="205" y="935" on="1"/>
        <pt x="384" y="783" on="1"/>
        <pt x="359" y="754" on="0"/>
        <pt x="336" y="754" on="1"/>
        <pt x="325" y="754" on="0"/>
        <pt x="309" y="764" on="1"/>
      </contour>
      <contour>
        <pt x="70" y="112" on="1"/>
        <pt x="285" y="720" on="1"/>
        <pt x="378" y="720" on="1"/>
        <pt x="592" y="112" on="1"/>
        <pt x="601" y="87" on="0"/>
        <pt x="620" y="70" on="0"/>
        <pt x="640" y="66" on="1"/>
        <pt x="679" y="59" on="1"/>
        <pt x="679" y="0" on="1"/>
        <pt x="422" y="0" on="1"/>
        <pt x="422" y="57" on="1"/>
        <pt x="477" y="66" on="1"/>
        <pt x="503" y="70" on="0"/>
        <pt x="503" y="90" on="1"/>
        <pt x="503" y="99" on="0"/>
        <pt x="499" y="110" on="1"/>
        <pt x="455" y="237" on="1"/>
        <pt x="190" y="237" on="1"/>
        <pt x="148" y="113" on="1"/>
        <pt x="144" y="102" on="0"/>
        <pt x="144" y="92" on="1"/>
        <pt x="144" y="70" on="0"/>
        <pt x="171" y="66" on="1"/>
        <pt x="225" y="57" on="1"/>
        <pt x="225" y="0" on="1"/>
        <pt x="-15" y="0" on="1"/>
        <pt x="-15" y="59" on="1"/>
        <pt x="23" y="66" on="1"/>
        <pt x="43" y="70" on="0"/>
        <pt x="61" y="87" on="0"/>
      </contour>
      <contour>
        <pt x="333" y="589" on="1"/>
        <pt x="322" y="634" on="1"/>
        <pt x="311" y="589" on="1"/>
        <pt x="214" y="307" on="1"/>
        <pt x="430" y="307" on="1"/>
      </contour>
    </TTGlyph>
    <TTGlyph name="Amacron" xMin="-15" yMin="0" xMax="679" yMax="878">
      <contour>
        <pt x="70" y="112" on="1"/>
        <pt x="285" y="720" on="1"/>
        <pt x="378" y="720" on="1"/>
        <pt x="592" y="112" on="1"/>
        <pt x="601" y="87" on="0"/>
        <pt x="620" y="70" on="0"/>
        <pt x="640" y="66" on="1"/>
        <pt x="679" y="59" on="1"/>
        <pt x="679" y="0" on="1"/>
        <pt x="422" y="0" on="1"/>
        <pt x="422" y="57" on="1"/>
        <pt x="477" y="66" on="1"/>
        <pt x="503" y="70" on="0"/>
        <pt x="503" y="90" on="1"/>
        <pt x="503" y="99" on="0"/>
        <pt x="499" y="110" on="1"/>
        <pt x="455" y="237" on="1"/>
        <pt x="190" y="237" on="1"/>
        <pt x="148" y="113" on="1"/>
        <pt x="144" y="102" on="0"/>
        <pt x="144" y="92" on="1"/>
        <pt x="144" y="70" on="0"/>
        <pt x="171" y="66" on="1"/>
        <pt x="225" y="57" on="1"/>
        <pt x="225" y="0" on="1"/>
        <pt x="-15" y="0" on="1"/>
        <pt x="-15" y="59" on="1"/>
        <pt x="23" y="66" on="1"/>
        <pt x="43" y="70" on="0"/>
        <pt x="61" y="87" on="0"/>
      </contour>
      <contour>
        <pt x="333" y="589" on="1"/>
        <pt x="322" y="634" on="1"/>
        <pt x="311" y="589" on="1"/>
        <pt x="214" y="307" on="1"/>
        <pt x="430" y="307" on="1"/>
      </contour>
      <contour>
        <pt x="194" y="808" on="1"/>
        <pt x="204" y="878" on="1"/>
        <pt x="471" y="878" on="1"/>
        <pt x="461" y="808" on="1"/>
      </contour>
    </TTGlyph>
    <TTGlyph name="Aogonek" xMin="-15" yMin="-225" xMax="679" yMax="720">
      <contour>
        <pt x="485" y="-98" on="0"/>
        <pt x="504" y="-70" on="0"/>
        <pt x="514" y="-56" on="0"/>
        <pt x="541" y="-35" on="0"/>
        <pt x="550" y="-27" on="0"/>
        <pt x="586" y="-3" on="0"/>
        <pt x="590" y="0" on="1"/>
        <pt x="422" y="0" on="1"/>
        <pt x="422" y="57" on="1"/>
        <pt x="477" y="66" on="1"/>
        <pt x="503" y="70" on="0"/>
        <pt x="503" y="90" on="1"/>
        <pt x="503" y="99" on="0"/>
        <pt x="499" y="110" on="1"/>
        <pt x="455" y="237" on="1"/>
        <pt x="190" y="237" on="1"/>
        <pt x="148" y="113" on="1"/>
        <pt x="144" y="102" on="0"/>
        <pt x="144" y="92" on="1"/>
        <pt x="144" y="70" on="0"/>
        <pt x="171" y="66" on="1"/>
        <pt x="225" y="57" on="1"/>
        <pt x="225" y="0" on="1"/>
        <pt x="-15" y="0" on="1"/>
        <pt x="-15" y="59" on="1"/>
        <pt x="23" y="66" on="1"/>
        <pt x="43" y="70" on="0"/>
        <pt x="61" y="87" on="0"/>
        <pt x="70" y="112" on="1"/>
        <pt x="285" y="720" on="1"/>
        <pt x="378" y="720" on="1"/>
        <pt x="592" y="112" on="1"/>
        <pt x="601" y="87" on="0"/>
        <pt x="620" y="70" on="0"/>
        <pt x="640" y="66" on="1"/>
        <pt x="679" y="59" on="1"/>
        <pt x="679" y="0" on="1"/>
        <pt x="674" y="0" on="1"/>
        <pt x="667" y="-3" on="0"/>
        <pt x="611" y="-40" on="0"/>
        <pt x="599" y="-50" on="1"/>
        <pt x="551" y="-87" on="0"/>
        <pt x="551" y="-139" on="0"/>
        <pt x="577" y="-170" on="0"/>
        <pt x="620" y="-170" on="0"/>
        <pt x="665" y="-157" on="1"/>
        <pt x="677" y="-198" on="1"/>
        <pt x="676" y="-198" on="0"/>
        <pt x="650" y="-210" on="0"/>
        <pt x="640" y="-214" on="1"/>
        <pt x="607" y="-225" on="0"/>
        <pt x="580" y="-225" on="1"/>
        <pt x="536" y="-225" on="0"/>
        <pt x="485" y="-167" on="0"/>
      </contour>
      <contour>
        <pt x="333" y="589" on="1"/>
        <pt x="322" y="634" on="1"/>
        <pt x="311" y="589" on="1"/>
        <pt x="214" y="307" on="1"/>
        <pt x="430" y="307" on="1"/>
      </contour>
    </TTGlyph>
    <TTGlyph name="Aring" xMin="-15" yMin="0" xMax="679" yMax="942">
      <contour>
        <pt x="70" y="112" on="1"/>
        <pt x="285" y="720" on="1"/>
        <pt x="378" y="720" on="1"/>
        <pt x="592" y="112" on="1"/>
        <pt x="601" y="87" on="0"/>
        <pt x="620" y="70" on="0"/>
        <pt x="640" y="66" on="1"/>
        <pt x="679" y="59" on="1"/>
        <pt x="679" y="0" on="1"/>
        <pt x="422" y="0" on="1"/>
        <pt x="422" y="57" on="1"/>
        <pt x="477" y="66" on="1"/>
        <pt x="503" y="70" on="0"/>
        <pt x="503" y="90" on="1"/>
        <pt x="503" y="99" on="0"/>
        <pt x="499" y="110" on="1"/>
        <pt x="455" y="237" on="1"/>
        <pt x="190" y="237" on="1"/>
        <pt x="148" y="113" on="1"/>
        <pt x="144" y="102" on="0"/>
        <pt x="144" y="92" on="1"/>
        <pt x="144" y="70" on="0"/>
        <pt x="171" y="66" on="1"/>
        <pt x="225" y="57" on="1"/>
        <pt x="225" y="0" on="1"/>
        <pt x="-15" y="0" on="1"/>
        <pt x="-15" y="59" on="1"/>
        <pt x="23" y="66" on="1"/>
        <pt x="43" y="70" on="0"/>
        <pt x="61" y="87" on="0"/>
      </contour>
      <contour>
        <pt x="333" y="589" on="1"/>
        <pt x="322" y="634" on="1"/>
        <pt x="311" y="589" on="1"/>
        <pt x="214" y="307" on="1"/>
        <pt x="430" y="307" on="1"/>
      </contour>
      <contour>
        <pt x="424" y="887" on="0"/>
        <pt x="424" y="813" on="0"/>
        <pt x="370" y="755" on="0"/>
        <pt x="282" y="755" on="0"/>
        <pt x="233" y="810" on="0"/>
        <pt x="233" y="884" on="0"/>
        <pt x="287" y="942" on="0"/>
        <pt x="375" y="942" on="0"/>
      </contour>
      <contour>
        <pt x="374" y="852" on="1"/>
        <pt x="374" y="870" on="0"/>
        <pt x="347" y="894" on="0"/>
        <pt x="328" y="894" on="1"/>
        <pt x="283" y="894" on="0"/>
        <pt x="283" y="844" on="1"/>
        <pt x="283" y="826" on="0"/>
        <pt x="310" y="802" on="0"/>
        <pt x="329" y="802" on="1"/>
        <pt x="374" y="802" on="0"/>
      </contour>
    </TTGlyph>
    <TTGlyph name="Aringacute" xMin="-18" yMin="0" xMax="676" yMax="1062">
      <contour>
        <pt x="421" y="766" on="1"/>
        <pt x="421" y="713" on="0"/>
        <pt x="376" y="685" on="1"/>
        <pt x="589" y="112" on="1"/>
        <pt x="598" y="87" on="0"/>
        <pt x="617" y="70" on="0"/>
        <pt x="637" y="66" on="1"/>
        <pt x="676" y="59" on="1"/>
        <pt x="676" y="0" on="1"/>
        <pt x="419" y="0" on="1"/>
        <pt x="419" y="57" on="1"/>
        <pt x="474" y="66" on="1"/>
        <pt x="500" y="70" on="0"/>
        <pt x="500" y="90" on="1"/>
        <pt x="500" y="99" on="0"/>
        <pt x="496" y="110" on="1"/>
        <pt x="454" y="227" on="1"/>
        <pt x="185" y="227" on="1"/>
        <pt x="145" y="113" on="1"/>
        <pt x="141" y="102" on="0"/>
        <pt x="141" y="92" on="1"/>
        <pt x="141" y="70" on="0"/>
        <pt x="168" y="66" on="1"/>
        <pt x="222" y="57" on="1"/>
        <pt x="222" y="0" on="1"/>
        <pt x="-18" y="0" on="1"/>
        <pt x="-18" y="59" on="1"/>
        <pt x="20" y="66" on="1"/>
        <pt x="40" y="70" on="0"/>
        <pt x="58" y="87" on="0"/>
        <pt x="67" y="112" on="1"/>
        <pt x="279" y="680" on="1"/>
        <pt x="230" y="704" on="0"/>
        <pt x="230" y="763" on="1"/>
        <pt x="230" y="800" on="0"/>
        <pt x="284" y="858" on="0"/>
        <pt x="372" y="858" on="0"/>
        <pt x="421" y="803" on="0"/>
      </contour>
      <contour>
        <pt x="334" y="562" on="1"/>
        <pt x="319" y="615" on="1"/>
        <pt x="304" y="562" on="1"/>
        <pt x="210" y="297" on="1"/>
        <pt x="429" y="297" on="1"/>
      </contour>
      <contour>
        <pt x="446" y="1062" on="1"/>
        <pt x="495" y="995" on="1"/>
        <pt x="342" y="891" on="1"/>
        <pt x="326" y="881" on="0"/>
        <pt x="315" y="881" on="1"/>
        <pt x="292" y="881" on="0"/>
        <pt x="267" y="910" on="1"/>
      </contour>
      <contour>
        <pt x="371" y="768" on="1"/>
        <pt x="371" y="786" on="0"/>
        <pt x="344" y="810" on="0"/>
        <pt x="325" y="810" on="1"/>
        <pt x="280" y="810" on="0"/>
        <pt x="280" y="760" on="1"/>
        <pt x="280" y="742" on="0"/>
        <pt x="307" y="718" on="0"/>
        <pt x="326" y="718" on="1"/>
        <pt x="371" y="718" on="0"/>
      </contour>
    </TTGlyph>
    <TTGlyph name="Atilde" xMin="-15" yMin="0" xMax="679" yMax="880">
      <contour>
        <pt x="70" y="112" on="1"/>
        <pt x="285" y="720" on="1"/>
        <pt x="378" y="720" on="1"/>
        <pt x="592" y="112" on="1"/>
        <pt x="601" y="87" on="0"/>
        <pt x="620" y="70" on="0"/>
        <pt x="640" y="66" on="1"/>
        <pt x="679" y="59" on="1"/>
        <pt x="679" y="0" on="1"/>
        <pt x="422" y="0" on="1"/>
        <pt x="422" y="57" on="1"/>
        <pt x="477" y="66" on="1"/>
        <pt x="503" y="70" on="0"/>
        <pt x="503" y="90" on="1"/>
        <pt x="503" y="99" on="0"/>
        <pt x="499" y="110" on="1"/>
        <pt x="455" y="237" on="1"/>
        <pt x="190" y="237" on="1"/>
        <pt x="148" y="113" on="1"/>
        <pt x="144" y="102" on="0"/>
        <pt x="144" y="92" on="1"/>
        <pt x="144" y="70" on="0"/>
        <pt x="171" y="66" on="1"/>
        <pt x="225" y="57" on="1"/>
        <pt x="225" y="0" on="1"/>
        <pt x="-15" y="0" on="1"/>
        <pt x="-15" y="59" on="1"/>
        <pt x="23" y="66" on="1"/>
        <pt x="43" y="70" on="0"/>
        <pt x="61" y="87" on="0"/>
      </contour>
      <contour>
        <pt x="333" y="589" on="1"/>
        <pt x="322" y="634" on="1"/>
        <pt x="311" y="589" on="1"/>
        <pt x="214" y="307" on="1"/>
        <pt x="430" y="307" on="1"/>
      </contour>
      <contour>
        <pt x="368" y="774" on="0"/>
        <pt x="279" y="811" on="0"/>
        <pt x="227" y="811" on="0"/>
        <pt x="189" y="780" on="1"/>
        <pt x="174" y="822" on="1"/>
        <pt x="215" y="880" on="0"/>
        <pt x="264" y="880" on="1"/>
        <pt x="294" y="880" on="0"/>
        <pt x="382" y="845" on="0"/>
        <pt x="436" y="845" on="0"/>
        <pt x="468" y="872" on="1"/>
        <pt x="484" y="832" on="1"/>
        <pt x="444" y="774" on="0"/>
        <pt x="395" y="774" on="1"/>
      </contour>
    </TTGlyph>
    <TTGlyph name="B" xMin="58" yMin="0" xMax="594" yMax="720">
      <contour>
        <pt x="140" y="106" on="1"/>
        <pt x="140" y="614" on="1"/>
        <pt x="140" y="634" on="0"/>
        <pt x="129" y="649" on="0"/>
        <pt x="111" y="652" on="1"/>
        <pt x="58" y="661" on="1"/>
        <pt x="58" y="720" on="1"/>
        <pt x="314" y="720" on="1"/>
        <pt x="429" y="720" on="0"/>
        <pt x="544" y="652" on="0"/>
        <pt x="544" y="558" on="1"/>
        <pt x="544" y="491" on="0"/>
        <pt x="472" y="397" on="0"/>
        <pt x="431" y="387" on="1"/>
        <pt x="505" y="380" on="0"/>
        <pt x="594" y="298" on="0"/>
        <pt x="594" y="217" on="1"/>
        <pt x="594" y="116" on="0"/>
        <pt x="462" y="0" on="0"/>
        <pt x="348" y="0" on="1"/>
        <pt x="58" y="0" on="1"/>
        <pt x="58" y="59" on="1"/>
        <pt x="111" y="68" on="1"/>
        <pt x="129" y="71" on="0"/>
        <pt x="140" y="86" on="0"/>
      </contour>
      <contour>
        <pt x="226" y="650" on="1"/>
        <pt x="226" y="408" on="1"/>
        <pt x="304" y="408" on="1"/>
        <pt x="382" y="408" on="0"/>
        <pt x="450" y="459" on="0"/>
        <pt x="450" y="541" on="1"/>
        <pt x="450" y="605" on="0"/>
        <pt x="368" y="650" on="0"/>
        <pt x="291" y="650" on="1"/>
      </contour>
      <contour>
        <pt x="226" y="340" on="1"/>
        <pt x="226" y="70" on="1"/>
        <pt x="334" y="70" on="1"/>
        <pt x="411" y="70" on="0"/>
        <pt x="449" y="92" on="1"/>
        <pt x="500" y="123" on="0"/>
        <pt x="500" y="215" on="1"/>
        <pt x="500" y="340" on="0"/>
        <pt x="334" y="340" on="1"/>
      </contour>
    </TTGlyph>
    <TTGlyph name="C" xMin="42" yMin="-10" xMax="592" yMax="730">
      <contour>
        <pt x="568" y="115" on="1"/>
        <pt x="588" y="50" on="1"/>
        <pt x="585" y="47" on="0"/>
        <pt x="537" y="30" on="0"/>
        <pt x="499" y="16" on="0"/>
        <pt x="459" y="5" on="0"/>
        <pt x="436" y="0" on="1"/>
        <pt x="392" y="-10" on="0"/>
        <pt x="342" y="-10" on="1"/>
        <pt x="42" y="-10" on="0"/>
        <pt x="42" y="352" on="1"/>
        <pt x="42" y="520" on="0"/>
        <pt x="205" y="730" on="0"/>
        <pt x="368" y="730" on="1"/>
        <pt x="427" y="730" on="0"/>
        <pt x="526" y="709" on="0"/>
        <pt x="592" y="673" on="1"/>
        <pt x="576" y="510" on="1"/>
        <pt x="504" y="510" on="1"/>
        <pt x="483" y="620" on="1"/>
        <pt x="444" y="639" on="0"/>
        <pt x="385" y="655" on="0"/>
        <pt x="284" y="655" on="0"/>
        <pt x="221" y="627" on="0"/>
        <pt x="171" y="577" on="0"/>
        <pt x="139" y="422" on="0"/>
        <pt x="139" y="359" on="1"/>
        <pt x="139" y="224" on="0"/>
        <pt x="253" y="68" on="0"/>
        <pt x="360" y="68" on="1"/>
        <pt x="443" y="68" on="0"/>
      </contour>
    </TTGlyph>
    <TTGlyph name="Cacute" xMin="42" yMin="-10" xMax="592" yMax="935">
      <contour>
        <pt x="470" y="935" on="1"/>
        <pt x="519" y="868" on="1"/>
        <pt x="366" y="764" on="1"/>
        <pt x="350" y="754" on="0"/>
        <pt x="339" y="754" on="1"/>
        <pt x="316" y="754" on="0"/>
        <pt x="291" y="783" on="1"/>
      </contour>
      <contour>
        <pt x="568" y="115" on="1"/>
        <pt x="588" y="50" on="1"/>
        <pt x="585" y="47" on="0"/>
        <pt x="537" y="30" on="0"/>
        <pt x="499" y="16" on="0"/>
        <pt x="459" y="5" on="0"/>
        <pt x="436" y="0" on="1"/>
        <pt x="392" y="-10" on="0"/>
        <pt x="342" y="-10" on="1"/>
        <pt x="42" y="-10" on="0"/>
        <pt x="42" y="352" on="1"/>
        <pt x="42" y="520" on="0"/>
        <pt x="205" y="730" on="0"/>
        <pt x="368" y="730" on="1"/>
        <pt x="427" y="730" on="0"/>
        <pt x="526" y="709" on="0"/>
        <pt x="592" y="673" on="1"/>
        <pt x="576" y="510" on="1"/>
        <pt x="504" y="510" on="1"/>
        <pt x="483" y="620" on="1"/>
        <pt x="444" y="639" on="0"/>
        <pt x="385" y="655" on="0"/>
        <pt x="284" y="655" on="0"/>
        <pt x="221" y="627" on="0"/>
        <pt x="171" y="577" on="0"/>
        <pt x="139" y="422" on="0"/>
        <pt x="139" y="359" on="1"/>
        <pt x="139" y="224" on="0"/>
        <pt x="253" y="68" on="0"/>
        <pt x="360" y="68" on="1"/>
        <pt x="443" y="68" on="0"/>
      </contour>
    </TTGlyph>
    <TTGlyph name="Ccaron" xMin="42" yMin="-10" xMax="592" yMax="920">
      <contour>
        <pt x="389" y="753" on="1"/>
        <pt x="314" y="753" on="1"/>
        <pt x="200" y="888" on="1"/>
        <pt x="238" y="920" on="1"/>
        <pt x="352" y="814" on="1"/>
        <pt x="465" y="920" on="1"/>
        <pt x="504" y="888" on="1"/>
      </contour>
      <contour>
        <pt x="568" y="115" on="1"/>
        <pt x="588" y="50" on="1"/>
        <pt x="585" y="47" on="0"/>
        <pt x="537" y="30" on="0"/>
        <pt x="499" y="16" on="0"/>
        <pt x="459" y="5" on="0"/>
        <pt x="436" y="0" on="1"/>
        <pt x="392" y="-10" on="0"/>
        <pt x="342" y="-10" on="1"/>
        <pt x="42" y="-10" on="0"/>
        <pt x="42" y="352" on="1"/>
        <pt x="42" y="520" on="0"/>
        <pt x="205" y="730" on="0"/>
        <pt x="368" y="730" on="1"/>
        <pt x="427" y="730" on="0"/>
        <pt x="526" y="709" on="0"/>
        <pt x="592" y="673" on="1"/>
        <pt x="576" y="510" on="1"/>
        <pt x="504" y="510" on="1"/>
        <pt x="483" y="620" on="1"/>
        <pt x="444" y="639" on="0"/>
        <pt x="385" y="655" on="0"/>
        <pt x="284" y="655" on="0"/>
        <pt x="221" y="627" on="0"/>
        <pt x="171" y="577" on="0"/>
        <pt x="139" y="422" on="0"/>
        <pt x="139" y="359" on="1"/>
        <pt x="139" y="224" on="0"/>
        <pt x="253" y="68" on="0"/>
        <pt x="360" y="68" on="1"/>
        <pt x="443" y="68" on="0"/>
      </contour>
    </TTGlyph>
    <TTGlyph name="Ccedilla" xMin="42" yMin="-230" xMax="592" yMax="730">
      <contour>
        <pt x="568" y="115" on="1"/>
        <pt x="588" y="50" on="1"/>
        <pt x="531" y="21" on="0"/>
        <pt x="441" y="1" on="1"/>
        <pt x="393" y="-10" on="0"/>
        <pt x="348" y="-10" on="1"/>
        <pt x="348" y="-62" on="1"/>
        <pt x="375" y="-71" on="1"/>
        <pt x="407" y="-81" on="0"/>
        <pt x="429" y="-109" on="0"/>
        <pt x="429" y="-134" on="1"/>
        <pt x="429" y="-180" on="0"/>
        <pt x="364" y="-230" on="0"/>
        <pt x="278" y="-230" on="0"/>
        <pt x="233" y="-209" on="1"/>
        <pt x="245" y="-170" on="1"/>
        <pt x="280" y="-184" on="0"/>
        <pt x="317" y="-184" on="1"/>
        <pt x="366" y="-184" on="0"/>
        <pt x="366" y="-136" on="1"/>
        <pt x="366" y="-121" on="0"/>
        <pt x="344" y="-105" on="0"/>
        <pt x="321" y="-100" on="1"/>
        <pt x="284" y="-92" on="1"/>
        <pt x="299" y="-8" on="1"/>
        <pt x="42" y="16" on="0"/>
        <pt x="42" y="352" on="1"/>
        <pt x="42" y="520" on="0"/>
        <pt x="205" y="730" on="0"/>
        <pt x="368" y="730" on="1"/>
        <pt x="427" y="730" on="0"/>
        <pt x="526" y="709" on="0"/>
        <pt x="592" y="673" on="1"/>
        <pt x="576" y="510" on="1"/>
        <pt x="504" y="510" on="1"/>
        <pt x="483" y="620" on="1"/>
        <pt x="444" y="639" on="0"/>
        <pt x="385" y="655" on="0"/>
        <pt x="284" y="655" on="0"/>
        <pt x="221" y="627" on="0"/>
        <pt x="171" y="577" on="0"/>
        <pt x="139" y="422" on="0"/>
        <pt x="139" y="359" on="1"/>
        <pt x="139" y="224" on="0"/>
        <pt x="253" y="68" on="0"/>
        <pt x="360" y="68" on="1"/>
        <pt x="443" y="68" on="0"/>
      </contour>
    </TTGlyph>
    <TTGlyph name="Ccircumflex" xMin="42" yMin="-10" xMax="592" yMax="913">
      <contour>
        <pt x="315" y="913" on="1"/>
        <pt x="390" y="913" on="1"/>
        <pt x="504" y="778" on="1"/>
        <pt x="466" y="746" on="1"/>
        <pt x="352" y="852" on="1"/>
        <pt x="239" y="746" on="1"/>
        <pt x="200" y="778" on="1"/>
      </contour>
      <contour>
        <pt x="568" y="115" on="1"/>
        <pt x="588" y="50" on="1"/>
        <pt x="585" y="47" on="0"/>
        <pt x="537" y="30" on="0"/>
        <pt x="499" y="16" on="0"/>
        <pt x="459" y="5" on="0"/>
        <pt x="436" y="0" on="1"/>
        <pt x="392" y="-10" on="0"/>
        <pt x="342" y="-10" on="1"/>
        <pt x="42" y="-10" on="0"/>
        <pt x="42" y="352" on="1"/>
        <pt x="42" y="520" on="0"/>
        <pt x="205" y="730" on="0"/>
        <pt x="368" y="730" on="1"/>
        <pt x="427" y="730" on="0"/>
        <pt x="526" y="709" on="0"/>
        <pt x="592" y="673" on="1"/>
        <pt x="576" y="510" on="1"/>
        <pt x="504" y="510" on="1"/>
        <pt x="483" y="620" on="1"/>
        <pt x="444" y="639" on="0"/>
        <pt x="385" y="655" on="0"/>
        <pt x="284" y="655" on="0"/>
        <pt x="221" y="627" on="0"/>
        <pt x="171" y="577" on="0"/>
        <pt x="139" y="422" on="0"/>
        <pt x="139" y="359" on="1"/>
        <pt x="139" y="224" on="0"/>
        <pt x="253" y="68" on="0"/>
        <pt x="360" y="68" on="1"/>
        <pt x="443" y="68" on="0"/>
      </contour>
    </TTGlyph>
    <TTGlyph name="Cdotaccent" xMin="42" yMin="-10" xMax="592" yMax="955">
      <contour>
        <pt x="568" y="115" on="1"/>
        <pt x="588" y="50" on="1"/>
        <pt x="585" y="47" on="0"/>
        <pt x="537" y="30" on="0"/>
        <pt x="499" y="16" on="0"/>
        <pt x="459" y="5" on="0"/>
        <pt x="436" y="0" on="1"/>
        <pt x="392" y="-10" on="0"/>
        <pt x="342" y="-10" on="1"/>
        <pt x="42" y="-10" on="0"/>
        <pt x="42" y="352" on="1"/>
        <pt x="42" y="520" on="0"/>
        <pt x="205" y="730" on="0"/>
        <pt x="368" y="730" on="1"/>
        <pt x="427" y="730" on="0"/>
        <pt x="526" y="709" on="0"/>
        <pt x="592" y="673" on="1"/>
        <pt x="576" y="510" on="1"/>
        <pt x="504" y="510" on="1"/>
        <pt x="483" y="620" on="1"/>
        <pt x="444" y="639" on="0"/>
        <pt x="385" y="655" on="0"/>
        <pt x="284" y="655" on="0"/>
        <pt x="221" y="627" on="0"/>
        <pt x="171" y="577" on="0"/>
        <pt x="139" y="422" on="0"/>
        <pt x="139" y="359" on="1"/>
        <pt x="139" y="224" on="0"/>
        <pt x="253" y="68" on="0"/>
        <pt x="360" y="68" on="1"/>
        <pt x="443" y="68" on="0"/>
      </contour>
      <contour>
        <pt x="354" y="955" on="0"/>
        <pt x="375" y="926" on="0"/>
        <pt x="375" y="860" on="0"/>
        <pt x="347" y="837" on="0"/>
        <pt x="281" y="837" on="0"/>
        <pt x="257" y="863" on="0"/>
        <pt x="257" y="925" on="0"/>
        <pt x="285" y="955" on="0"/>
      </contour>
    </TTGlyph>
    <TTGlyph name="D" xMin="58" yMin="0" xMax="672" yMax="720">
      <contour>
        <pt x="462" y="73" on="0"/>
        <pt x="575" y="211" on="0"/>
        <pt x="575" y="526" on="0"/>
        <pt x="464" y="647" on="0"/>
        <pt x="342" y="647" on="1"/>
        <pt x="226" y="647" on="1"/>
        <pt x="226" y="73" on="1"/>
        <pt x="342" y="73" on="1"/>
      </contour>
      <contour>
        <pt x="58" y="720" on="1"/>
        <pt x="357" y="720" on="1"/>
        <pt x="672" y="720" on="0"/>
        <pt x="672" y="371" on="1"/>
        <pt x="672" y="199" on="0"/>
        <pt x="520" y="0" on="0"/>
        <pt x="357" y="0" on="1"/>
        <pt x="58" y="0" on="1"/>
        <pt x="58" y="60" on="1"/>
        <pt x="111" y="69" on="1"/>
        <pt x="129" y="72" on="0"/>
        <pt x="140" y="89" on="0"/>
        <pt x="140" y="109" on="1"/>
        <pt x="140" y="618" on="1"/>
        <pt x="140" y="638" on="0"/>
        <pt x="129" y="656" on="0"/>
        <pt x="111" y="658" on="1"/>
        <pt x="58" y="664" on="1"/>
      </contour>
    </TTGlyph>
    <TTGlyph name="Dcaron" xMin="58" yMin="0" xMax="672" yMax="920">
      <contour>
        <pt x="389" y="753" on="1"/>
        <pt x="314" y="753" on="1"/>
        <pt x="200" y="888" on="1"/>
        <pt x="238" y="920" on="1"/>
        <pt x="352" y="814" on="1"/>
        <pt x="465" y="920" on="1"/>
        <pt x="504" y="888" on="1"/>
      </contour>
      <contour>
        <pt x="462" y="73" on="0"/>
        <pt x="575" y="211" on="0"/>
        <pt x="575" y="526" on="0"/>
        <pt x="464" y="647" on="0"/>
        <pt x="342" y="647" on="1"/>
        <pt x="226" y="647" on="1"/>
        <pt x="226" y="73" on="1"/>
        <pt x="342" y="73" on="1"/>
      </contour>
      <contour>
        <pt x="58" y="720" on="1"/>
        <pt x="357" y="720" on="1"/>
        <pt x="672" y="720" on="0"/>
        <pt x="672" y="371" on="1"/>
        <pt x="672" y="199" on="0"/>
        <pt x="520" y="0" on="0"/>
        <pt x="357" y="0" on="1"/>
        <pt x="58" y="0" on="1"/>
        <pt x="58" y="60" on="1"/>
        <pt x="111" y="69" on="1"/>
        <pt x="129" y="72" on="0"/>
        <pt x="140" y="89" on="0"/>
        <pt x="140" y="109" on="1"/>
        <pt x="140" y="618" on="1"/>
        <pt x="140" y="638" on="0"/>
        <pt x="129" y="656" on="0"/>
        <pt x="111" y="658" on="1"/>
        <pt x="58" y="664" on="1"/>
      </contour>
    </TTGlyph>
    <TTGlyph name="Dcroat" xMin="58" yMin="0" xMax="672" yMax="720">
      <contour>
        <pt x="61" y="348" on="1"/>
        <pt x="61" y="417" on="1"/>
        <pt x="140" y="417" on="1"/>
        <pt x="140" y="618" on="1"/>
        <pt x="140" y="638" on="0"/>
        <pt x="129" y="656" on="0"/>
        <pt x="111" y="658" on="1"/>
        <pt x="58" y="664" on="1"/>
        <pt x="58" y="720" on="1"/>
        <pt x="357" y="720" on="1"/>
        <pt x="672" y="720" on="0"/>
        <pt x="672" y="371" on="1"/>
        <pt x="672" y="199" on="0"/>
        <pt x="520" y="0" on="0"/>
        <pt x="357" y="0" on="1"/>
        <pt x="58" y="0" on="1"/>
        <pt x="58" y="60" on="1"/>
        <pt x="111" y="69" on="1"/>
        <pt x="129" y="72" on="0"/>
        <pt x="140" y="89" on="0"/>
        <pt x="140" y="109" on="1"/>
        <pt x="140" y="348" on="1"/>
      </contour>
      <contour>
        <pt x="462" y="73" on="0"/>
        <pt x="575" y="211" on="0"/>
        <pt x="575" y="526" on="0"/>
        <pt x="464" y="647" on="0"/>
        <pt x="342" y="647" on="1"/>
        <pt x="226" y="647" on="1"/>
        <pt x="226" y="417" on="1"/>
        <pt x="400" y="417" on="1"/>
        <pt x="400" y="348" on="1"/>
        <pt x="226" y="348" on="1"/>
        <pt x="226" y="73" on="1"/>
        <pt x="342" y="73" on="1"/>
      </contour>
    </TTGlyph>
    <TTGlyph name="E" xMin="58" yMin="0" xMax="576" yMax="720">
      <contour>
        <pt x="576" y="0" on="1"/>
        <pt x="58" y="0" on="1"/>
        <pt x="58" y="60" on="1"/>
        <pt x="111" y="69" on="1"/>
        <pt x="129" y="72" on="0"/>
        <pt x="140" y="87" on="0"/>
        <pt x="140" y="107" on="1"/>
        <pt x="140" y="618" on="1"/>
        <pt x="140" y="638" on="0"/>
        <pt x="129" y="656" on="0"/>
        <pt x="111" y="658" on="1"/>
        <pt x="58" y="664" on="1"/>
        <pt x="58" y="720" on="1"/>
        <pt x="572" y="720" on="1"/>
        <pt x="566" y="548" on="1"/>
        <pt x="502" y="548" on="1"/>
        <pt x="496" y="618" on="1"/>
        <pt x="495" y="636" on="0"/>
        <pt x="477" y="647" on="0"/>
        <pt x="458" y="647" on="1"/>
        <pt x="226" y="647" on="1"/>
        <pt x="226" y="412" on="1"/>
        <pt x="460" y="412" on="1"/>
        <pt x="460" y="339" on="1"/>
        <pt x="226" y="339" on="1"/>
        <pt x="226" y="73" on="1"/>
        <pt x="459" y="73" on="1"/>
        <pt x="478" y="73" on="0"/>
        <pt x="496" y="84" on="0"/>
        <pt x="497" y="102" on="1"/>
        <pt x="503" y="177" on="1"/>
        <pt x="570" y="177" on="1"/>
      </contour>
    </TTGlyph>
    <TTGlyph name="Eacute" xMin="58" yMin="0" xMax="576" yMax="935">
      <contour>
        <pt x="446" y="935" on="1"/>
        <pt x="495" y="868" on="1"/>
        <pt x="342" y="764" on="1"/>
        <pt x="326" y="754" on="0"/>
        <pt x="315" y="754" on="1"/>
        <pt x="292" y="754" on="0"/>
        <pt x="267" y="783" on="1"/>
      </contour>
      <contour>
        <pt x="576" y="0" on="1"/>
        <pt x="58" y="0" on="1"/>
        <pt x="58" y="60" on="1"/>
        <pt x="111" y="69" on="1"/>
        <pt x="129" y="72" on="0"/>
        <pt x="140" y="87" on="0"/>
        <pt x="140" y="107" on="1"/>
        <pt x="140" y="618" on="1"/>
        <pt x="140" y="638" on="0"/>
        <pt x="129" y="656" on="0"/>
        <pt x="111" y="658" on="1"/>
        <pt x="58" y="664" on="1"/>
        <pt x="58" y="720" on="1"/>
        <pt x="572" y="720" on="1"/>
        <pt x="566" y="548" on="1"/>
        <pt x="502" y="548" on="1"/>
        <pt x="496" y="618" on="1"/>
        <pt x="495" y="636" on="0"/>
        <pt x="477" y="647" on="0"/>
        <pt x="458" y="647" on="1"/>
        <pt x="226" y="647" on="1"/>
        <pt x="226" y="412" on="1"/>
        <pt x="460" y="412" on="1"/>
        <pt x="460" y="339" on="1"/>
        <pt x="226" y="339" on="1"/>
        <pt x="226" y="73" on="1"/>
        <pt x="459" y="73" on="1"/>
        <pt x="478" y="73" on="0"/>
        <pt x="496" y="84" on="0"/>
        <pt x="497" y="102" on="1"/>
        <pt x="503" y="177" on="1"/>
        <pt x="570" y="177" on="1"/>
      </contour>
    </TTGlyph>
    <TTGlyph name="Ebreve" xMin="58" yMin="0" xMax="576" yMax="903">
      <contour>
        <pt x="576" y="0" on="1"/>
        <pt x="58" y="0" on="1"/>
        <pt x="58" y="60" on="1"/>
        <pt x="111" y="69" on="1"/>
        <pt x="129" y="72" on="0"/>
        <pt x="140" y="87" on="0"/>
        <pt x="140" y="107" on="1"/>
        <pt x="140" y="618" on="1"/>
        <pt x="140" y="638" on="0"/>
        <pt x="129" y="656" on="0"/>
        <pt x="111" y="658" on="1"/>
        <pt x="58" y="664" on="1"/>
        <pt x="58" y="720" on="1"/>
        <pt x="572" y="720" on="1"/>
        <pt x="566" y="548" on="1"/>
        <pt x="502" y="548" on="1"/>
        <pt x="496" y="618" on="1"/>
        <pt x="495" y="636" on="0"/>
        <pt x="477" y="647" on="0"/>
        <pt x="458" y="647" on="1"/>
        <pt x="226" y="647" on="1"/>
        <pt x="226" y="412" on="1"/>
        <pt x="460" y="412" on="1"/>
        <pt x="460" y="339" on="1"/>
        <pt x="226" y="339" on="1"/>
        <pt x="226" y="73" on="1"/>
        <pt x="459" y="73" on="1"/>
        <pt x="478" y="73" on="0"/>
        <pt x="496" y="84" on="0"/>
        <pt x="497" y="102" on="1"/>
        <pt x="503" y="177" on="1"/>
        <pt x="570" y="177" on="1"/>
      </contour>
      <contour>
        <pt x="441" y="903" on="1"/>
        <pt x="489" y="888" on="1"/>
        <pt x="473" y="835" on="0"/>
        <pt x="396" y="768" on="0"/>
        <pt x="282" y="768" on="0"/>
        <pt x="205" y="835" on="0"/>
        <pt x="189" y="888" on="1"/>
        <pt x="237" y="903" on="1"/>
        <pt x="254" y="874" on="0"/>
        <pt x="307" y="834" on="0"/>
        <pt x="371" y="834" on="0"/>
        <pt x="424" y="874" on="0"/>
      </contour>
    </TTGlyph>
    <TTGlyph name="Ecaron" xMin="58" yMin="0" xMax="576" yMax="920">
      <contour>
        <pt x="379" y="753" on="1"/>
        <pt x="304" y="753" on="1"/>
        <pt x="189" y="888" on="1"/>
        <pt x="228" y="920" on="1"/>
        <pt x="341" y="814" on="1"/>
        <pt x="455" y="920" on="1"/>
        <pt x="493" y="888" on="1"/>
      </contour>
      <contour>
        <pt x="576" y="0" on="1"/>
        <pt x="58" y="0" on="1"/>
        <pt x="58" y="60" on="1"/>
        <pt x="111" y="69" on="1"/>
        <pt x="129" y="72" on="0"/>
        <pt x="140" y="87" on="0"/>
        <pt x="140" y="107" on="1"/>
        <pt x="140" y="618" on="1"/>
        <pt x="140" y="638" on="0"/>
        <pt x="129" y="656" on="0"/>
        <pt x="111" y="658" on="1"/>
        <pt x="58" y="664" on="1"/>
        <pt x="58" y="720" on="1"/>
        <pt x="572" y="720" on="1"/>
        <pt x="566" y="548" on="1"/>
        <pt x="502" y="548" on="1"/>
        <pt x="496" y="618" on="1"/>
        <pt x="495" y="636" on="0"/>
        <pt x="477" y="647" on="0"/>
        <pt x="458" y="647" on="1"/>
        <pt x="226" y="647" on="1"/>
        <pt x="226" y="412" on="1"/>
        <pt x="460" y="412" on="1"/>
        <pt x="460" y="339" on="1"/>
        <pt x="226" y="339" on="1"/>
        <pt x="226" y="73" on="1"/>
        <pt x="459" y="73" on="1"/>
        <pt x="478" y="73" on="0"/>
        <pt x="496" y="84" on="0"/>
        <pt x="497" y="102" on="1"/>
        <pt x="503" y="177" on="1"/>
        <pt x="570" y="177" on="1"/>
      </contour>
    </TTGlyph>
    <TTGlyph name="Ecircumflex" xMin="58" yMin="0" xMax="576" yMax="913">
      <contour>
        <pt x="295" y="913" on="1"/>
        <pt x="370" y="913" on="1"/>
        <pt x="484" y="778" on="1"/>
        <pt x="446" y="746" on="1"/>
        <pt x="332" y="852" on="1"/>
        <pt x="219" y="746" on="1"/>
        <pt x="180" y="778" on="1"/>
      </contour>
      <contour>
        <pt x="576" y="0" on="1"/>
        <pt x="58" y="0" on="1"/>
        <pt x="58" y="60" on="1"/>
        <pt x="111" y="69" on="1"/>
        <pt x="129" y="72" on="0"/>
        <pt x="140" y="87" on="0"/>
        <pt x="140" y="107" on="1"/>
        <pt x="140" y="618" on="1"/>
        <pt x="140" y="638" on="0"/>
        <pt x="129" y="656" on="0"/>
        <pt x="111" y="658" on="1"/>
        <pt x="58" y="664" on="1"/>
        <pt x="58" y="720" on="1"/>
        <pt x="572" y="720" on="1"/>
        <pt x="566" y="548" on="1"/>
        <pt x="502" y="548" on="1"/>
        <pt x="496" y="618" on="1"/>
        <pt x="495" y="636" on="0"/>
        <pt x="477" y="647" on="0"/>
        <pt x="458" y="647" on="1"/>
        <pt x="226" y="647" on="1"/>
        <pt x="226" y="412" on="1"/>
        <pt x="460" y="412" on="1"/>
        <pt x="460" y="339" on="1"/>
        <pt x="226" y="339" on="1"/>
        <pt x="226" y="73" on="1"/>
        <pt x="459" y="73" on="1"/>
        <pt x="478" y="73" on="0"/>
        <pt x="496" y="84" on="0"/>
        <pt x="497" y="102" on="1"/>
        <pt x="503" y="177" on="1"/>
        <pt x="570" y="177" on="1"/>
      </contour>
    </TTGlyph>
    <TTGlyph name="Edieresis" xMin="58" yMin="0" xMax="576" yMax="892">
      <contour>
        <pt x="576" y="0" on="1"/>
        <pt x="58" y="0" on="1"/>
        <pt x="58" y="60" on="1"/>
        <pt x="111" y="69" on="1"/>
        <pt x="129" y="72" on="0"/>
        <pt x="140" y="87" on="0"/>
        <pt x="140" y="107" on="1"/>
        <pt x="140" y="618" on="1"/>
        <pt x="140" y="638" on="0"/>
        <pt x="129" y="656" on="0"/>
        <pt x="111" y="658" on="1"/>
        <pt x="58" y="664" on="1"/>
        <pt x="58" y="720" on="1"/>
        <pt x="572" y="720" on="1"/>
        <pt x="566" y="548" on="1"/>
        <pt x="502" y="548" on="1"/>
        <pt x="496" y="618" on="1"/>
        <pt x="495" y="636" on="0"/>
        <pt x="477" y="647" on="0"/>
        <pt x="458" y="647" on="1"/>
        <pt x="226" y="647" on="1"/>
        <pt x="226" y="412" on="1"/>
        <pt x="460" y="412" on="1"/>
        <pt x="460" y="339" on="1"/>
        <pt x="226" y="339" on="1"/>
        <pt x="226" y="73" on="1"/>
        <pt x="459" y="73" on="1"/>
        <pt x="478" y="73" on="0"/>
        <pt x="496" y="84" on="0"/>
        <pt x="497" y="102" on="1"/>
        <pt x="503" y="177" on="1"/>
        <pt x="570" y="177" on="1"/>
      </contour>
      <contour>
        <pt x="272" y="892" on="0"/>
        <pt x="292" y="865" on="0"/>
        <pt x="292" y="802" on="0"/>
        <pt x="265" y="780" on="0"/>
        <pt x="203" y="780" on="0"/>
        <pt x="180" y="804" on="0"/>
        <pt x="180" y="864" on="0"/>
        <pt x="207" y="892" on="0"/>
      </contour>
      <contour>
        <pt x="477" y="892" on="0"/>
        <pt x="497" y="865" on="0"/>
        <pt x="497" y="802" on="0"/>
        <pt x="470" y="780" on="0"/>
        <pt x="408" y="780" on="0"/>
        <pt x="385" y="804" on="0"/>
        <pt x="385" y="864" on="0"/>
        <pt x="412" y="892" on="0"/>
      </contour>
    </TTGlyph>
    <TTGlyph name="Edotaccent" xMin="58" yMin="0" xMax="576" yMax="905">
      <contour>
        <pt x="576" y="0" on="1"/>
        <pt x="58" y="0" on="1"/>
        <pt x="58" y="60" on="1"/>
        <pt x="111" y="69" on="1"/>
        <pt x="129" y="72" on="0"/>
        <pt x="140" y="87" on="0"/>
        <pt x="140" y="107" on="1"/>
        <pt x="140" y="618" on="1"/>
        <pt x="140" y="638" on="0"/>
        <pt x="129" y="656" on="0"/>
        <pt x="111" y="658" on="1"/>
        <pt x="58" y="664" on="1"/>
        <pt x="58" y="720" on="1"/>
        <pt x="572" y="720" on="1"/>
        <pt x="566" y="548" on="1"/>
        <pt x="502" y="548" on="1"/>
        <pt x="496" y="618" on="1"/>
        <pt x="495" y="636" on="0"/>
        <pt x="477" y="647" on="0"/>
        <pt x="458" y="647" on="1"/>
        <pt x="226" y="647" on="1"/>
        <pt x="226" y="412" on="1"/>
        <pt x="460" y="412" on="1"/>
        <pt x="460" y="339" on="1"/>
        <pt x="226" y="339" on="1"/>
        <pt x="226" y="73" on="1"/>
        <pt x="459" y="73" on="1"/>
        <pt x="478" y="73" on="0"/>
        <pt x="496" y="84" on="0"/>
        <pt x="497" y="102" on="1"/>
        <pt x="503" y="177" on="1"/>
        <pt x="570" y="177" on="1"/>
      </contour>
      <contour>
        <pt x="377" y="905" on="0"/>
        <pt x="398" y="876" on="0"/>
        <pt x="398" y="810" on="0"/>
        <pt x="370" y="787" on="0"/>
        <pt x="304" y="787" on="0"/>
        <pt x="280" y="813" on="0"/>
        <pt x="280" y="875" on="0"/>
        <pt x="308" y="905" on="0"/>
      </contour>
    </TTGlyph>
    <TTGlyph name="Egrave" xMin="58" yMin="0" xMax="576" yMax="935">
      <contour>
        <pt x="154" y="868" on="1"/>
        <pt x="203" y="935" on="1"/>
        <pt x="382" y="783" on="1"/>
        <pt x="357" y="754" on="0"/>
        <pt x="334" y="754" on="1"/>
        <pt x="323" y="754" on="0"/>
        <pt x="307" y="764" on="1"/>
      </contour>
      <contour>
        <pt x="576" y="0" on="1"/>
        <pt x="58" y="0" on="1"/>
        <pt x="58" y="60" on="1"/>
        <pt x="111" y="69" on="1"/>
        <pt x="129" y="72" on="0"/>
        <pt x="140" y="87" on="0"/>
        <pt x="140" y="107" on="1"/>
        <pt x="140" y="618" on="1"/>
        <pt x="140" y="638" on="0"/>
        <pt x="129" y="656" on="0"/>
        <pt x="111" y="658" on="1"/>
        <pt x="58" y="664" on="1"/>
        <pt x="58" y="720" on="1"/>
        <pt x="572" y="720" on="1"/>
        <pt x="566" y="548" on="1"/>
        <pt x="502" y="548" on="1"/>
        <pt x="496" y="618" on="1"/>
        <pt x="495" y="636" on="0"/>
        <pt x="477" y="647" on="0"/>
        <pt x="458" y="647" on="1"/>
        <pt x="226" y="647" on="1"/>
        <pt x="226" y="412" on="1"/>
        <pt x="460" y="412" on="1"/>
        <pt x="460" y="339" on="1"/>
        <pt x="226" y="339" on="1"/>
        <pt x="226" y="73" on="1"/>
        <pt x="459" y="73" on="1"/>
        <pt x="478" y="73" on="0"/>
        <pt x="496" y="84" on="0"/>
        <pt x="497" y="102" on="1"/>
        <pt x="503" y="177" on="1"/>
        <pt x="570" y="177" on="1"/>
      </contour>
    </TTGlyph>
    <TTGlyph name="Emacron" xMin="58" yMin="0" xMax="576" yMax="878">
      <contour>
        <pt x="576" y="0" on="1"/>
        <pt x="58" y="0" on="1"/>
        <pt x="58" y="60" on="1"/>
        <pt x="111" y="69" on="1"/>
        <pt x="129" y="72" on="0"/>
        <pt x="140" y="87" on="0"/>
        <pt x="140" y="107" on="1"/>
        <pt x="140" y="618" on="1"/>
        <pt x="140" y="638" on="0"/>
        <pt x="129" y="656" on="0"/>
        <pt x="111" y="658" on="1"/>
        <pt x="58" y="664" on="1"/>
        <pt x="58" y="720" on="1"/>
        <pt x="572" y="720" on="1"/>
        <pt x="566" y="548" on="1"/>
        <pt x="502" y="548" on="1"/>
        <pt x="496" y="618" on="1"/>
        <pt x="495" y="636" on="0"/>
        <pt x="477" y="647" on="0"/>
        <pt x="458" y="647" on="1"/>
        <pt x="226" y="647" on="1"/>
        <pt x="226" y="412" on="1"/>
        <pt x="460" y="412" on="1"/>
        <pt x="460" y="339" on="1"/>
        <pt x="226" y="339" on="1"/>
        <pt x="226" y="73" on="1"/>
        <pt x="459" y="73" on="1"/>
        <pt x="478" y="73" on="0"/>
        <pt x="496" y="84" on="0"/>
        <pt x="497" y="102" on="1"/>
        <pt x="503" y="177" on="1"/>
        <pt x="570" y="177" on="1"/>
      </contour>
      <contour>
        <pt x="204" y="808" on="1"/>
        <pt x="214" y="878" on="1"/>
        <pt x="481" y="878" on="1"/>
        <pt x="471" y="808" on="1"/>
      </contour>
    </TTGlyph>
    <TTGlyph name="Eng" xMin="56" yMin="-154" xMax="664" yMax="730">
      <contour>
        <pt x="576" y="153" on="1"/>
        <pt x="576" y="500" on="1"/>
        <pt x="576" y="574" on="0"/>
        <pt x="494" y="647" on="0"/>
        <pt x="363" y="647" on="0"/>
        <pt x="257" y="583" on="0"/>
        <pt x="228" y="531" on="1"/>
        <pt x="228" y="113" on="1"/>
        <pt x="228" y="89" on="0"/>
        <pt x="236" y="72" on="0"/>
        <pt x="252" y="69" on="1"/>
        <pt x="316" y="58" on="1"/>
        <pt x="316" y="0" on="1"/>
        <pt x="56" y="0" on="1"/>
        <pt x="56" y="59" on="1"/>
        <pt x="115" y="69" on="1"/>
        <pt x="131" y="72" on="0"/>
        <pt x="140" y="89" on="0"/>
        <pt x="140" y="113" on="1"/>
        <pt x="140" y="614" on="1"/>
        <pt x="140" y="635" on="0"/>
        <pt x="129" y="653" on="0"/>
        <pt x="110" y="655" on="1"/>
        <pt x="59" y="661" on="1"/>
        <pt x="59" y="720" on="1"/>
        <pt x="218" y="720" on="1"/>
        <pt x="229" y="612" on="1"/>
        <pt x="279" y="668" on="0"/>
        <pt x="391" y="730" on="0"/>
        <pt x="564" y="730" on="0"/>
        <pt x="664" y="626" on="0"/>
        <pt x="664" y="541" on="1"/>
        <pt x="664" y="128" on="1"/>
        <pt x="664" y="-17" on="0"/>
        <pt x="570" y="-87" on="1"/>
        <pt x="528" y="-119" on="0"/>
        <pt x="450" y="-154" on="1"/>
        <pt x="411" y="-93" on="1"/>
        <pt x="513" y="-44" on="0"/>
        <pt x="576" y="58" on="0"/>
      </contour>
    </TTGlyph>
    <TTGlyph name="Eogonek" xMin="58" yMin="-225" xMax="576" yMax="720">
      <contour>
        <pt x="382" y="-98" on="0"/>
        <pt x="401" y="-70" on="0"/>
        <pt x="411" y="-56" on="0"/>
        <pt x="438" y="-35" on="0"/>
        <pt x="447" y="-27" on="0"/>
        <pt x="483" y="-3" on="0"/>
        <pt x="487" y="0" on="1"/>
        <pt x="58" y="0" on="1"/>
        <pt x="58" y="60" on="1"/>
        <pt x="111" y="69" on="1"/>
        <pt x="129" y="72" on="0"/>
        <pt x="140" y="87" on="0"/>
        <pt x="140" y="107" on="1"/>
        <pt x="140" y="618" on="1"/>
        <pt x="140" y="638" on="0"/>
        <pt x="129" y="656" on="0"/>
        <pt x="111" y="658" on="1"/>
        <pt x="58" y="664" on="1"/>
        <pt x="58" y="720" on="1"/>
        <pt x="572" y="720" on="1"/>
        <pt x="566" y="548" on="1"/>
        <pt x="502" y="548" on="1"/>
        <pt x="496" y="618" on="1"/>
        <pt x="495" y="636" on="0"/>
        <pt x="477" y="647" on="0"/>
        <pt x="458" y="647" on="1"/>
        <pt x="226" y="647" on="1"/>
        <pt x="226" y="412" on="1"/>
        <pt x="460" y="412" on="1"/>
        <pt x="460" y="339" on="1"/>
        <pt x="226" y="339" on="1"/>
        <pt x="226" y="73" on="1"/>
        <pt x="459" y="73" on="1"/>
        <pt x="478" y="73" on="0"/>
        <pt x="496" y="84" on="0"/>
        <pt x="497" y="102" on="1"/>
        <pt x="503" y="177" on="1"/>
        <pt x="570" y="177" on="1"/>
        <pt x="576" y="0" on="1"/>
        <pt x="571" y="0" on="1"/>
        <pt x="564" y="-3" on="0"/>
        <pt x="508" y="-40" on="0"/>
        <pt x="496" y="-50" on="1"/>
        <pt x="448" y="-87" on="0"/>
        <pt x="448" y="-139" on="0"/>
        <pt x="474" y="-170" on="0"/>
        <pt x="516" y="-170" on="0"/>
        <pt x="562" y="-157" on="1"/>
        <pt x="574" y="-198" on="1"/>
        <pt x="573" y="-198" on="0"/>
        <pt x="547" y="-210" on="0"/>
        <pt x="537" y="-214" on="1"/>
        <pt x="504" y="-225" on="0"/>
        <pt x="477" y="-225" on="1"/>
        <pt x="433" y="-225" on="0"/>
        <pt x="382" y="-167" on="0"/>
      </contour>
    </TTGlyph>
    <TTGlyph name="Eth" xMin="58" yMin="0" xMax="672" yMax="720">
      <contour>
        <pt x="58" y="319" on="1"/>
        <pt x="58" y="392" on="1"/>
        <pt x="140" y="392" on="1"/>
        <pt x="140" y="618" on="1"/>
        <pt x="140" y="638" on="0"/>
        <pt x="129" y="656" on="0"/>
        <pt x="111" y="658" on="1"/>
        <pt x="58" y="664" on="1"/>
        <pt x="58" y="720" on="1"/>
        <pt x="357" y="720" on="1"/>
        <pt x="672" y="720" on="0"/>
        <pt x="672" y="371" on="1"/>
        <pt x="672" y="199" on="0"/>
        <pt x="520" y="0" on="0"/>
        <pt x="357" y="0" on="1"/>
        <pt x="58" y="0" on="1"/>
        <pt x="58" y="60" on="1"/>
        <pt x="111" y="69" on="1"/>
        <pt x="129" y="72" on="0"/>
        <pt x="140" y="89" on="0"/>
        <pt x="140" y="109" on="1"/>
        <pt x="140" y="319" on="1"/>
      </contour>
      <contour>
        <pt x="462" y="73" on="0"/>
        <pt x="575" y="211" on="0"/>
        <pt x="575" y="526" on="0"/>
        <pt x="464" y="647" on="0"/>
        <pt x="342" y="647" on="1"/>
        <pt x="226" y="647" on="1"/>
        <pt x="226" y="392" on="1"/>
        <pt x="409" y="392" on="1"/>
        <pt x="409" y="319" on="1"/>
        <pt x="226" y="319" on="1"/>
        <pt x="226" y="73" on="1"/>
        <pt x="342" y="73" on="1"/>
      </contour>
    </TTGlyph>
    <TTGlyph name="Euro" xMin="10" yMin="-10" xMax="550" yMax="692">
      <contour>
        <pt x="10" y="358" on="1"/>
        <pt x="10" y="416" on="1"/>
        <pt x="79" y="416" on="1"/>
        <pt x="94" y="546" on="0"/>
        <pt x="234" y="692" on="0"/>
        <pt x="451" y="692" on="0"/>
        <pt x="550" y="641" on="1"/>
        <pt x="524" y="571" on="1"/>
        <pt x="443" y="613" on="0"/>
        <pt x="351" y="613" on="1"/>
        <pt x="302" y="613" on="0"/>
        <pt x="250" y="589" on="0"/>
        <pt x="225" y="562" on="1"/>
        <pt x="191" y="525" on="0"/>
        <pt x="175" y="416" on="1"/>
        <pt x="430" y="416" on="1"/>
        <pt x="412" y="358" on="1"/>
        <pt x="169" y="358" on="1"/>
        <pt x="169" y="341" on="1"/>
        <pt x="169" y="307" on="0"/>
        <pt x="170" y="292" on="1"/>
        <pt x="394" y="292" on="1"/>
        <pt x="379" y="234" on="1"/>
        <pt x="177" y="234" on="1"/>
        <pt x="193" y="148" on="0"/>
        <pt x="288" y="68" on="0"/>
        <pt x="433" y="68" on="0"/>
        <pt x="528" y="113" on="1"/>
        <pt x="548" y="49" on="1"/>
        <pt x="446" y="-10" on="0"/>
        <pt x="352" y="-10" on="1"/>
        <pt x="120" y="-10" on="0"/>
        <pt x="82" y="234" on="1"/>
        <pt x="10" y="234" on="1"/>
        <pt x="10" y="292" on="1"/>
        <pt x="76" y="292" on="1"/>
        <pt x="75" y="308" on="0"/>
        <pt x="75" y="341" on="1"/>
        <pt x="75" y="358" on="1"/>
      </contour>
    </TTGlyph>
    <TTGlyph name="F" xMin="58" yMin="0" xMax="562" yMax="720">
      <contour>
        <pt x="58" y="720" on="1"/>
        <pt x="562" y="720" on="1"/>
        <pt x="556" y="548" on="1"/>
        <pt x="492" y="548" on="1"/>
        <pt x="486" y="618" on="1"/>
        <pt x="485" y="636" on="0"/>
        <pt x="467" y="647" on="0"/>
        <pt x="448" y="647" on="1"/>
        <pt x="226" y="647" on="1"/>
        <pt x="226" y="406" on="1"/>
        <pt x="440" y="406" on="1"/>
        <pt x="440" y="333" on="1"/>
        <pt x="226" y="333" on="1"/>
        <pt x="226" y="106" on="1"/>
        <pt x="226" y="86" on="0"/>
        <pt x="238" y="70" on="0"/>
        <pt x="256" y="68" on="1"/>
        <pt x="327" y="60" on="1"/>
        <pt x="327" y="0" on="1"/>
        <pt x="58" y="0" on="1"/>
        <pt x="58" y="59" on="1"/>
        <pt x="111" y="68" on="1"/>
        <pt x="129" y="71" on="0"/>
        <pt x="140" y="86" on="0"/>
        <pt x="140" y="106" on="1"/>
        <pt x="140" y="622" on="1"/>
        <pt x="140" y="640" on="0"/>
        <pt x="128" y="656" on="0"/>
        <pt x="111" y="658" on="1"/>
        <pt x="58" y="664" on="1"/>
      </contour>
    </TTGlyph>
    <TTGlyph name="G" xMin="45" yMin="-10" xMax="659" yMax="730">
      <contour>
        <pt x="142" y="359" on="1"/>
        <pt x="142" y="227" on="0"/>
        <pt x="250" y="66" on="0"/>
        <pt x="361" y="66" on="1"/>
        <pt x="429" y="66" on="0"/>
        <pt x="509" y="91" on="1"/>
        <pt x="509" y="224" on="1"/>
        <pt x="509" y="243" on="0"/>
        <pt x="498" y="259" on="0"/>
        <pt x="480" y="262" on="1"/>
        <pt x="423" y="271" on="1"/>
        <pt x="423" y="330" on="1"/>
        <pt x="659" y="330" on="1"/>
        <pt x="659" y="271" on="1"/>
        <pt x="620" y="264" on="1"/>
        <pt x="602" y="260" on="0"/>
        <pt x="593" y="246" on="0"/>
        <pt x="593" y="226" on="1"/>
        <pt x="593" y="51" on="1"/>
        <pt x="455" y="-10" on="0"/>
        <pt x="346" y="-10" on="1"/>
        <pt x="45" y="-10" on="0"/>
        <pt x="45" y="352" on="1"/>
        <pt x="45" y="520" on="0"/>
        <pt x="208" y="730" on="0"/>
        <pt x="371" y="730" on="1"/>
        <pt x="433" y="730" on="0"/>
        <pt x="539" y="709" on="0"/>
        <pt x="607" y="673" on="1"/>
        <pt x="591" y="510" on="1"/>
        <pt x="519" y="510" on="1"/>
        <pt x="498" y="620" on="1"/>
        <pt x="457" y="639" on="0"/>
        <pt x="391" y="655" on="0"/>
        <pt x="287" y="655" on="0"/>
        <pt x="224" y="627" on="0"/>
        <pt x="174" y="577" on="0"/>
        <pt x="142" y="423" on="0"/>
      </contour>
    </TTGlyph>
    <TTGlyph name="Gbreve" xMin="42" yMin="-10" xMax="656" yMax="903">
      <contour>
        <pt x="139" y="359" on="1"/>
        <pt x="139" y="227" on="0"/>
        <pt x="247" y="66" on="0"/>
        <pt x="358" y="66" on="1"/>
        <pt x="426" y="66" on="0"/>
        <pt x="506" y="91" on="1"/>
        <pt x="506" y="224" on="1"/>
        <pt x="506" y="243" on="0"/>
        <pt x="495" y="259" on="0"/>
        <pt x="477" y="262" on="1"/>
        <pt x="420" y="271" on="1"/>
        <pt x="420" y="330" on="1"/>
        <pt x="656" y="330" on="1"/>
        <pt x="656" y="271" on="1"/>
        <pt x="617" y="264" on="1"/>
        <pt x="599" y="260" on="0"/>
        <pt x="590" y="246" on="0"/>
        <pt x="590" y="226" on="1"/>
        <pt x="590" y="51" on="1"/>
        <pt x="452" y="-10" on="0"/>
        <pt x="343" y="-10" on="1"/>
        <pt x="42" y="-10" on="0"/>
        <pt x="42" y="352" on="1"/>
        <pt x="42" y="520" on="0"/>
        <pt x="205" y="730" on="0"/>
        <pt x="368" y="730" on="1"/>
        <pt x="430" y="730" on="0"/>
        <pt x="536" y="709" on="0"/>
        <pt x="604" y="673" on="1"/>
        <pt x="588" y="510" on="1"/>
        <pt x="516" y="510" on="1"/>
        <pt x="495" y="620" on="1"/>
        <pt x="454" y="639" on="0"/>
        <pt x="388" y="655" on="0"/>
        <pt x="284" y="655" on="0"/>
        <pt x="221" y="627" on="0"/>
        <pt x="171" y="577" on="0"/>
        <pt x="139" y="423" on="0"/>
      </contour>
      <contour>
        <pt x="431" y="903" on="1"/>
        <pt x="479" y="888" on="1"/>
        <pt x="463" y="835" on="0"/>
        <pt x="386" y="768" on="0"/>
        <pt x="272" y="768" on="0"/>
        <pt x="195" y="835" on="0"/>
        <pt x="179" y="888" on="1"/>
        <pt x="227" y="903" on="1"/>
        <pt x="244" y="874" on="0"/>
        <pt x="297" y="834" on="0"/>
        <pt x="361" y="834" on="0"/>
        <pt x="414" y="874" on="0"/>
      </contour>
    </TTGlyph>
    <TTGlyph name="Gcircumflex" xMin="42" yMin="-10" xMax="656" yMax="913">
      <contour>
        <pt x="304" y="913" on="1"/>
        <pt x="379" y="913" on="1"/>
        <pt x="493" y="778" on="1"/>
        <pt x="455" y="746" on="1"/>
        <pt x="341" y="852" on="1"/>
        <pt x="228" y="746" on="1"/>
        <pt x="189" y="778" on="1"/>
      </contour>
      <contour>
        <pt x="139" y="359" on="1"/>
        <pt x="139" y="227" on="0"/>
        <pt x="247" y="66" on="0"/>
        <pt x="358" y="66" on="1"/>
        <pt x="426" y="66" on="0"/>
        <pt x="506" y="91" on="1"/>
        <pt x="506" y="224" on="1"/>
        <pt x="506" y="243" on="0"/>
        <pt x="495" y="259" on="0"/>
        <pt x="477" y="262" on="1"/>
        <pt x="420" y="271" on="1"/>
        <pt x="420" y="330" on="1"/>
        <pt x="656" y="330" on="1"/>
        <pt x="656" y="271" on="1"/>
        <pt x="617" y="264" on="1"/>
        <pt x="599" y="260" on="0"/>
        <pt x="590" y="246" on="0"/>
        <pt x="590" y="226" on="1"/>
        <pt x="590" y="51" on="1"/>
        <pt x="452" y="-10" on="0"/>
        <pt x="343" y="-10" on="1"/>
        <pt x="42" y="-10" on="0"/>
        <pt x="42" y="352" on="1"/>
        <pt x="42" y="520" on="0"/>
        <pt x="205" y="730" on="0"/>
        <pt x="368" y="730" on="1"/>
        <pt x="430" y="730" on="0"/>
        <pt x="536" y="709" on="0"/>
        <pt x="604" y="673" on="1"/>
        <pt x="588" y="510" on="1"/>
        <pt x="516" y="510" on="1"/>
        <pt x="495" y="620" on="1"/>
        <pt x="454" y="639" on="0"/>
        <pt x="388" y="655" on="0"/>
        <pt x="284" y="655" on="0"/>
        <pt x="221" y="627" on="0"/>
        <pt x="171" y="577" on="0"/>
        <pt x="139" y="423" on="0"/>
      </contour>
    </TTGlyph>
    <TTGlyph name="Gcommaaccent" xMin="42" yMin="-251" xMax="656" yMax="730">
      <contour>
        <pt x="358" y="-37" on="1"/>
        <pt x="422" y="-37" on="0"/>
        <pt x="422" y="-115" on="1"/>
        <pt x="422" y="-154" on="0"/>
        <pt x="366" y="-234" on="0"/>
        <pt x="328" y="-251" on="1"/>
        <pt x="305" y="-227" on="1"/>
        <pt x="331" y="-210" on="0"/>
        <pt x="370" y="-164" on="0"/>
        <pt x="370" y="-146" on="1"/>
        <pt x="362" y="-149" on="0"/>
        <pt x="325" y="-149" on="0"/>
        <pt x="300" y="-118" on="0"/>
        <pt x="300" y="-95" on="1"/>
        <pt x="300" y="-37" on="0"/>
      </contour>
      <contour>
        <pt x="139" y="359" on="1"/>
        <pt x="139" y="227" on="0"/>
        <pt x="247" y="66" on="0"/>
        <pt x="358" y="66" on="1"/>
        <pt x="426" y="66" on="0"/>
        <pt x="506" y="91" on="1"/>
        <pt x="506" y="224" on="1"/>
        <pt x="506" y="243" on="0"/>
        <pt x="495" y="259" on="0"/>
        <pt x="477" y="262" on="1"/>
        <pt x="420" y="271" on="1"/>
        <pt x="420" y="330" on="1"/>
        <pt x="656" y="330" on="1"/>
        <pt x="656" y="271" on="1"/>
        <pt x="617" y="264" on="1"/>
        <pt x="599" y="260" on="0"/>
        <pt x="590" y="246" on="0"/>
        <pt x="590" y="226" on="1"/>
        <pt x="590" y="51" on="1"/>
        <pt x="452" y="-10" on="0"/>
        <pt x="343" y="-10" on="1"/>
        <pt x="42" y="-10" on="0"/>
        <pt x="42" y="352" on="1"/>
        <pt x="42" y="520" on="0"/>
        <pt x="205" y="730" on="0"/>
        <pt x="368" y="730" on="1"/>
        <pt x="430" y="730" on="0"/>
        <pt x="536" y="709" on="0"/>
        <pt x="604" y="673" on="1"/>
        <pt x="588" y="510" on="1"/>
        <pt x="516" y="510" on="1"/>
        <pt x="495" y="620" on="1"/>
        <pt x="454" y="639" on="0"/>
        <pt x="388" y="655" on="0"/>
        <pt x="284" y="655" on="0"/>
        <pt x="221" y="627" on="0"/>
        <pt x="171" y="577" on="0"/>
        <pt x="139" y="423" on="0"/>
      </contour>
    </TTGlyph>
    <TTGlyph name="Gdotaccent" xMin="42" yMin="-10" xMax="656" yMax="905">
      <contour>
        <pt x="139" y="359" on="1"/>
        <pt x="139" y="227" on="0"/>
        <pt x="247" y="66" on="0"/>
        <pt x="358" y="66" on="1"/>
        <pt x="426" y="66" on="0"/>
        <pt x="506" y="91" on="1"/>
        <pt x="506" y="224" on="1"/>
        <pt x="506" y="243" on="0"/>
        <pt x="495" y="259" on="0"/>
        <pt x="477" y="262" on="1"/>
        <pt x="420" y="271" on="1"/>
        <pt x="420" y="330" on="1"/>
        <pt x="656" y="330" on="1"/>
        <pt x="656" y="271" on="1"/>
        <pt x="617" y="264" on="1"/>
        <pt x="599" y="260" on="0"/>
        <pt x="590" y="246" on="0"/>
        <pt x="590" y="226" on="1"/>
        <pt x="590" y="51" on="1"/>
        <pt x="452" y="-10" on="0"/>
        <pt x="343" y="-10" on="1"/>
        <pt x="42" y="-10" on="0"/>
        <pt x="42" y="352" on="1"/>
        <pt x="42" y="520" on="0"/>
        <pt x="205" y="730" on="0"/>
        <pt x="368" y="730" on="1"/>
        <pt x="430" y="730" on="0"/>
        <pt x="536" y="709" on="0"/>
        <pt x="604" y="673" on="1"/>
        <pt x="588" y="510" on="1"/>
        <pt x="516" y="510" on="1"/>
        <pt x="495" y="620" on="1"/>
        <pt x="454" y="639" on="0"/>
        <pt x="388" y="655" on="0"/>
        <pt x="284" y="655" on="0"/>
        <pt x="221" y="627" on="0"/>
        <pt x="171" y="577" on="0"/>
        <pt x="139" y="423" on="0"/>
      </contour>
      <contour>
        <pt x="377" y="905" on="0"/>
        <pt x="398" y="876" on="0"/>
        <pt x="398" y="810" on="0"/>
        <pt x="370" y="787" on="0"/>
        <pt x="304" y="787" on="0"/>
        <pt x="280" y="813" on="0"/>
        <pt x="280" y="875" on="0"/>
        <pt x="308" y="905" on="0"/>
      </contour>
    </TTGlyph>
    <TTGlyph name="H" xMin="58" yMin="0" xMax="732" yMax="720">
      <contour>
        <pt x="650" y="614" on="1"/>
        <pt x="650" y="106" on="1"/>
        <pt x="650" y="86" on="0"/>
        <pt x="661" y="71" on="0"/>
        <pt x="679" y="68" on="1"/>
        <pt x="732" y="59" on="1"/>
        <pt x="732" y="0" on="1"/>
        <pt x="477" y="0" on="1"/>
        <pt x="477" y="59" on="1"/>
        <pt x="535" y="68" on="1"/>
        <pt x="553" y="71" on="0"/>
        <pt x="564" y="86" on="0"/>
        <pt x="564" y="106" on="1"/>
        <pt x="564" y="341" on="1"/>
        <pt x="226" y="341" on="1"/>
        <pt x="226" y="106" on="1"/>
        <pt x="226" y="86" on="0"/>
        <pt x="237" y="71" on="0"/>
        <pt x="255" y="68" on="1"/>
        <pt x="313" y="59" on="1"/>
        <pt x="313" y="0" on="1"/>
        <pt x="58" y="0" on="1"/>
        <pt x="58" y="59" on="1"/>
        <pt x="111" y="68" on="1"/>
        <pt x="129" y="71" on="0"/>
        <pt x="140" y="86" on="0"/>
        <pt x="140" y="106" on="1"/>
        <pt x="140" y="614" on="1"/>
        <pt x="140" y="634" on="0"/>
        <pt x="129" y="649" on="0"/>
        <pt x="111" y="652" on="1"/>
        <pt x="58" y="661" on="1"/>
        <pt x="58" y="720" on="1"/>
        <pt x="313" y="720" on="1"/>
        <pt x="313" y="661" on="1"/>
        <pt x="255" y="652" on="1"/>
        <pt x="237" y="649" on="0"/>
        <pt x="226" y="634" on="0"/>
        <pt x="226" y="614" on="1"/>
        <pt x="226" y="413" on="1"/>
        <pt x="564" y="413" on="1"/>
        <pt x="564" y="614" on="1"/>
        <pt x="564" y="634" on="0"/>
        <pt x="553" y="649" on="0"/>
        <pt x="535" y="652" on="1"/>
        <pt x="477" y="661" on="1"/>
        <pt x="477" y="720" on="1"/>
        <pt x="732" y="720" on="1"/>
        <pt x="732" y="661" on="1"/>
        <pt x="679" y="652" on="1"/>
        <pt x="661" y="649" on="0"/>
        <pt x="650" y="634" on="0"/>
      </contour>
    </TTGlyph>
    <TTGlyph name="Hbar" xMin="58" yMin="0" xMax="732" yMax="720">
      <contour>
        <pt x="650" y="614" on="1"/>
        <pt x="650" y="565" on="1"/>
        <pt x="708" y="565" on="1"/>
        <pt x="708" y="505" on="1"/>
        <pt x="650" y="505" on="1"/>
        <pt x="650" y="106" on="1"/>
        <pt x="650" y="86" on="0"/>
        <pt x="661" y="71" on="0"/>
        <pt x="679" y="68" on="1"/>
        <pt x="732" y="59" on="1"/>
        <pt x="732" y="0" on="1"/>
        <pt x="477" y="0" on="1"/>
        <pt x="477" y="59" on="1"/>
        <pt x="535" y="68" on="1"/>
        <pt x="553" y="71" on="0"/>
        <pt x="564" y="86" on="0"/>
        <pt x="564" y="106" on="1"/>
        <pt x="564" y="341" on="1"/>
        <pt x="226" y="341" on="1"/>
        <pt x="226" y="106" on="1"/>
        <pt x="226" y="86" on="0"/>
        <pt x="237" y="71" on="0"/>
        <pt x="255" y="68" on="1"/>
        <pt x="313" y="59" on="1"/>
        <pt x="313" y="0" on="1"/>
        <pt x="58" y="0" on="1"/>
        <pt x="58" y="59" on="1"/>
        <pt x="111" y="68" on="1"/>
        <pt x="129" y="71" on="0"/>
        <pt x="140" y="86" on="0"/>
        <pt x="140" y="106" on="1"/>
        <pt x="140" y="505" on="1"/>
        <pt x="78" y="505" on="1"/>
        <pt x="78" y="565" on="1"/>
        <pt x="140" y="565" on="1"/>
        <pt x="140" y="614" on="1"/>
        <pt x="140" y="634" on="0"/>
        <pt x="129" y="649" on="0"/>
        <pt x="111" y="652" on="1"/>
        <pt x="58" y="661" on="1"/>
        <pt x="58" y="720" on="1"/>
        <pt x="313" y="720" on="1"/>
        <pt x="313" y="661" on="1"/>
        <pt x="255" y="652" on="1"/>
        <pt x="237" y="649" on="0"/>
        <pt x="226" y="634" on="0"/>
        <pt x="226" y="614" on="1"/>
        <pt x="226" y="565" on="1"/>
        <pt x="564" y="565" on="1"/>
        <pt x="564" y="614" on="1"/>
        <pt x="564" y="634" on="0"/>
        <pt x="553" y="649" on="0"/>
        <pt x="535" y="652" on="1"/>
        <pt x="477" y="661" on="1"/>
        <pt x="477" y="720" on="1"/>
        <pt x="732" y="720" on="1"/>
        <pt x="732" y="661" on="1"/>
        <pt x="679" y="652" on="1"/>
        <pt x="661" y="649" on="0"/>
        <pt x="650" y="634" on="0"/>
      </contour>
      <contour>
        <pt x="226" y="413" on="1"/>
        <pt x="564" y="413" on="1"/>
        <pt x="564" y="505" on="1"/>
        <pt x="226" y="505" on="1"/>
      </contour>
    </TTGlyph>
    <TTGlyph name="Hcircumflex" xMin="58" yMin="0" xMax="732" yMax="913">
      <contour>
        <pt x="362" y="913" on="1"/>
        <pt x="437" y="913" on="1"/>
        <pt x="551" y="778" on="1"/>
        <pt x="513" y="746" on="1"/>
        <pt x="399" y="852" on="1"/>
        <pt x="286" y="746" on="1"/>
        <pt x="247" y="778" on="1"/>
      </contour>
      <contour>
        <pt x="650" y="614" on="1"/>
        <pt x="650" y="106" on="1"/>
        <pt x="650" y="86" on="0"/>
        <pt x="661" y="71" on="0"/>
        <pt x="679" y="68" on="1"/>
        <pt x="732" y="59" on="1"/>
        <pt x="732" y="0" on="1"/>
        <pt x="477" y="0" on="1"/>
        <pt x="477" y="59" on="1"/>
        <pt x="535" y="68" on="1"/>
        <pt x="553" y="71" on="0"/>
        <pt x="564" y="86" on="0"/>
        <pt x="564" y="106" on="1"/>
        <pt x="564" y="341" on="1"/>
        <pt x="226" y="341" on="1"/>
        <pt x="226" y="106" on="1"/>
        <pt x="226" y="86" on="0"/>
        <pt x="237" y="71" on="0"/>
        <pt x="255" y="68" on="1"/>
        <pt x="313" y="59" on="1"/>
        <pt x="313" y="0" on="1"/>
        <pt x="58" y="0" on="1"/>
        <pt x="58" y="59" on="1"/>
        <pt x="111" y="68" on="1"/>
        <pt x="129" y="71" on="0"/>
        <pt x="140" y="86" on="0"/>
        <pt x="140" y="106" on="1"/>
        <pt x="140" y="614" on="1"/>
        <pt x="140" y="634" on="0"/>
        <pt x="129" y="649" on="0"/>
        <pt x="111" y="652" on="1"/>
        <pt x="58" y="661" on="1"/>
        <pt x="58" y="720" on="1"/>
        <pt x="313" y="720" on="1"/>
        <pt x="313" y="661" on="1"/>
        <pt x="255" y="652" on="1"/>
        <pt x="237" y="649" on="0"/>
        <pt x="226" y="634" on="0"/>
        <pt x="226" y="614" on="1"/>
        <pt x="226" y="413" on="1"/>
        <pt x="564" y="413" on="1"/>
        <pt x="564" y="614" on="1"/>
        <pt x="564" y="634" on="0"/>
        <pt x="553" y="649" on="0"/>
        <pt x="535" y="652" on="1"/>
        <pt x="477" y="661" on="1"/>
        <pt x="477" y="720" on="1"/>
        <pt x="732" y="720" on="1"/>
        <pt x="732" y="661" on="1"/>
        <pt x="679" y="652" on="1"/>
        <pt x="661" y="649" on="0"/>
        <pt x="650" y="634" on="0"/>
      </contour>
    </TTGlyph>
    <TTGlyph name="I" xMin="58" yMin="0" xMax="308" yMax="720">
      <contour>
        <pt x="308" y="59" on="1"/>
        <pt x="308" y="0" on="1"/>
        <pt x="58" y="0" on="1"/>
        <pt x="58" y="59" on="1"/>
        <pt x="111" y="68" on="1"/>
        <pt x="129" y="71" on="0"/>
        <pt x="140" y="86" on="0"/>
        <pt x="140" y="106" on="1"/>
        <pt x="140" y="614" on="1"/>
        <pt x="140" y="634" on="0"/>
        <pt x="129" y="649" on="0"/>
        <pt x="111" y="652" on="1"/>
        <pt x="58" y="661" on="1"/>
        <pt x="58" y="720" on="1"/>
        <pt x="308" y="720" on="1"/>
        <pt x="308" y="661" on="1"/>
        <pt x="255" y="652" on="1"/>
        <pt x="237" y="649" on="0"/>
        <pt x="226" y="634" on="0"/>
        <pt x="226" y="614" on="1"/>
        <pt x="226" y="106" on="1"/>
        <pt x="226" y="86" on="0"/>
        <pt x="237" y="71" on="0"/>
        <pt x="255" y="68" on="1"/>
      </contour>
    </TTGlyph>
    <TTGlyph name="IJ" xMin="58" yMin="-154" xMax="625" yMax="720">
      <contour>
        <pt x="308" y="59" on="1"/>
        <pt x="308" y="0" on="1"/>
        <pt x="58" y="0" on="1"/>
        <pt x="58" y="59" on="1"/>
        <pt x="111" y="68" on="1"/>
        <pt x="129" y="71" on="0"/>
        <pt x="140" y="86" on="0"/>
        <pt x="140" y="106" on="1"/>
        <pt x="140" y="614" on="1"/>
        <pt x="140" y="634" on="0"/>
        <pt x="129" y="649" on="0"/>
        <pt x="111" y="652" on="1"/>
        <pt x="58" y="661" on="1"/>
        <pt x="58" y="720" on="1"/>
        <pt x="308" y="720" on="1"/>
        <pt x="308" y="661" on="1"/>
        <pt x="255" y="652" on="1"/>
        <pt x="237" y="649" on="0"/>
        <pt x="226" y="634" on="0"/>
        <pt x="226" y="614" on="1"/>
        <pt x="226" y="106" on="1"/>
        <pt x="226" y="86" on="0"/>
        <pt x="237" y="71" on="0"/>
        <pt x="255" y="68" on="1"/>
      </contour>
      <contour>
        <pt x="331" y="-154" on="1"/>
        <pt x="292" y="-100" on="1"/>
        <pt x="401" y="-33" on="0"/>
        <pt x="457" y="63" on="0"/>
        <pt x="457" y="179" on="1"/>
        <pt x="457" y="614" on="1"/>
        <pt x="457" y="634" on="0"/>
        <pt x="446" y="649" on="0"/>
        <pt x="428" y="652" on="1"/>
        <pt x="375" y="661" on="1"/>
        <pt x="375" y="720" on="1"/>
        <pt x="625" y="720" on="1"/>
        <pt x="625" y="661" on="1"/>
        <pt x="572" y="652" on="1"/>
        <pt x="554" y="649" on="0"/>
        <pt x="543" y="634" on="0"/>
        <pt x="543" y="614" on="1"/>
        <pt x="543" y="148" on="1"/>
        <pt x="543" y="53" on="0"/>
        <pt x="515" y="-18" on="0"/>
        <pt x="491" y="-54" on="0"/>
        <pt x="463" y="-75" on="1"/>
        <pt x="418" y="-109" on="0"/>
      </contour>
    </TTGlyph>
    <TTGlyph name="Iacute" xMin="58" yMin="0" xMax="354" yMax="935">
      <contour>
        <pt x="305" y="935" on="1"/>
        <pt x="354" y="868" on="1"/>
        <pt x="201" y="764" on="1"/>
        <pt x="185" y="754" on="0"/>
        <pt x="174" y="754" on="1"/>
        <pt x="151" y="754" on="0"/>
        <pt x="126" y="783" on="1"/>
      </contour>
      <contour>
        <pt x="308" y="59" on="1"/>
        <pt x="308" y="0" on="1"/>
        <pt x="58" y="0" on="1"/>
        <pt x="58" y="59" on="1"/>
        <pt x="111" y="68" on="1"/>
        <pt x="129" y="71" on="0"/>
        <pt x="140" y="86" on="0"/>
        <pt x="140" y="106" on="1"/>
        <pt x="140" y="614" on="1"/>
        <pt x="140" y="634" on="0"/>
        <pt x="129" y="649" on="0"/>
        <pt x="111" y="652" on="1"/>
        <pt x="58" y="661" on="1"/>
        <pt x="58" y="720" on="1"/>
        <pt x="308" y="720" on="1"/>
        <pt x="308" y="661" on="1"/>
        <pt x="255" y="652" on="1"/>
        <pt x="237" y="649" on="0"/>
        <pt x="226" y="634" on="0"/>
        <pt x="226" y="614" on="1"/>
        <pt x="226" y="106" on="1"/>
        <pt x="226" y="86" on="0"/>
        <pt x="237" y="71" on="0"/>
        <pt x="255" y="68" on="1"/>
      </contour>
    </TTGlyph>
    <TTGlyph name="Ibreve" xMin="33" yMin="0" xMax="333" yMax="903">
      <contour>
        <pt x="308" y="59" on="1"/>
        <pt x="308" y="0" on="1"/>
        <pt x="58" y="0" on="1"/>
        <pt x="58" y="59" on="1"/>
        <pt x="111" y="68" on="1"/>
        <pt x="129" y="71" on="0"/>
        <pt x="140" y="86" on="0"/>
        <pt x="140" y="106" on="1"/>
        <pt x="140" y="614" on="1"/>
        <pt x="140" y="634" on="0"/>
        <pt x="129" y="649" on="0"/>
        <pt x="111" y="652" on="1"/>
        <pt x="58" y="661" on="1"/>
        <pt x="58" y="720" on="1"/>
        <pt x="308" y="720" on="1"/>
        <pt x="308" y="661" on="1"/>
        <pt x="255" y="652" on="1"/>
        <pt x="237" y="649" on="0"/>
        <pt x="226" y="634" on="0"/>
        <pt x="226" y="614" on="1"/>
        <pt x="226" y="106" on="1"/>
        <pt x="226" y="86" on="0"/>
        <pt x="237" y="71" on="0"/>
        <pt x="255" y="68" on="1"/>
      </contour>
      <contour>
        <pt x="285" y="903" on="1"/>
        <pt x="333" y="888" on="1"/>
        <pt x="317" y="835" on="0"/>
        <pt x="240" y="768" on="0"/>
        <pt x="126" y="768" on="0"/>
        <pt x="49" y="835" on="0"/>
        <pt x="33" y="888" on="1"/>
        <pt x="81" y="903" on="1"/>
        <pt x="98" y="874" on="0"/>
        <pt x="151" y="834" on="0"/>
        <pt x="215" y="834" on="0"/>
        <pt x="268" y="874" on="0"/>
      </contour>
    </TTGlyph>
    <TTGlyph name="Icircumflex" xMin="47" yMin="0" xMax="321" yMax="913">
      <contour>
        <pt x="147" y="913" on="1"/>
        <pt x="222" y="913" on="1"/>
        <pt x="321" y="778" on="1"/>
        <pt x="283" y="746" on="1"/>
        <pt x="184" y="852" on="1"/>
        <pt x="86" y="746" on="1"/>
        <pt x="47" y="778" on="1"/>
      </contour>
      <contour>
        <pt x="308" y="59" on="1"/>
        <pt x="308" y="0" on="1"/>
        <pt x="58" y="0" on="1"/>
        <pt x="58" y="59" on="1"/>
        <pt x="111" y="68" on="1"/>
        <pt x="129" y="71" on="0"/>
        <pt x="140" y="86" on="0"/>
        <pt x="140" y="106" on="1"/>
        <pt x="140" y="614" on="1"/>
        <pt x="140" y="634" on="0"/>
        <pt x="129" y="649" on="0"/>
        <pt x="111" y="652" on="1"/>
        <pt x="58" y="661" on="1"/>
        <pt x="58" y="720" on="1"/>
        <pt x="308" y="720" on="1"/>
        <pt x="308" y="661" on="1"/>
        <pt x="255" y="652" on="1"/>
        <pt x="237" y="649" on="0"/>
        <pt x="226" y="634" on="0"/>
        <pt x="226" y="614" on="1"/>
        <pt x="226" y="106" on="1"/>
        <pt x="226" y="86" on="0"/>
        <pt x="237" y="71" on="0"/>
        <pt x="255" y="68" on="1"/>
      </contour>
    </TTGlyph>
    <TTGlyph name="Idieresis" xMin="34" yMin="0" xMax="331" yMax="892">
      <contour>
        <pt x="126" y="892" on="0"/>
        <pt x="146" y="865" on="0"/>
        <pt x="146" y="802" on="0"/>
        <pt x="119" y="780" on="0"/>
        <pt x="57" y="780" on="0"/>
        <pt x="34" y="804" on="0"/>
        <pt x="34" y="864" on="0"/>
        <pt x="61" y="892" on="0"/>
      </contour>
      <contour>
        <pt x="311" y="892" on="0"/>
        <pt x="331" y="865" on="0"/>
        <pt x="331" y="802" on="0"/>
        <pt x="304" y="780" on="0"/>
        <pt x="242" y="780" on="0"/>
        <pt x="219" y="804" on="0"/>
        <pt x="219" y="864" on="0"/>
        <pt x="246" y="892" on="0"/>
      </contour>
      <contour>
        <pt x="308" y="59" on="1"/>
        <pt x="308" y="0" on="1"/>
        <pt x="58" y="0" on="1"/>
        <pt x="58" y="59" on="1"/>
        <pt x="111" y="68" on="1"/>
        <pt x="129" y="71" on="0"/>
        <pt x="140" y="86" on="0"/>
        <pt x="140" y="106" on="1"/>
        <pt x="140" y="614" on="1"/>
        <pt x="140" y="634" on="0"/>
        <pt x="129" y="649" on="0"/>
        <pt x="111" y="652" on="1"/>
        <pt x="58" y="661" on="1"/>
        <pt x="58" y="720" on="1"/>
        <pt x="308" y="720" on="1"/>
        <pt x="308" y="661" on="1"/>
        <pt x="255" y="652" on="1"/>
        <pt x="237" y="649" on="0"/>
        <pt x="226" y="634" on="0"/>
        <pt x="226" y="614" on="1"/>
        <pt x="226" y="106" on="1"/>
        <pt x="226" y="86" on="0"/>
        <pt x="237" y="71" on="0"/>
        <pt x="255" y="68" on="1"/>
      </contour>
    </TTGlyph>
    <TTGlyph name="Idotaccent" xMin="58" yMin="0" xMax="308" yMax="905">
      <contour>
        <pt x="308" y="59" on="1"/>
        <pt x="308" y="0" on="1"/>
        <pt x="58" y="0" on="1"/>
        <pt x="58" y="59" on="1"/>
        <pt x="111" y="68" on="1"/>
        <pt x="129" y="71" on="0"/>
        <pt x="140" y="86" on="0"/>
        <pt x="140" y="106" on="1"/>
        <pt x="140" y="614" on="1"/>
        <pt x="140" y="634" on="0"/>
        <pt x="129" y="649" on="0"/>
        <pt x="111" y="652" on="1"/>
        <pt x="58" y="661" on="1"/>
        <pt x="58" y="720" on="1"/>
        <pt x="308" y="720" on="1"/>
        <pt x="308" y="661" on="1"/>
        <pt x="255" y="652" on="1"/>
        <pt x="237" y="649" on="0"/>
        <pt x="226" y="634" on="0"/>
        <pt x="226" y="614" on="1"/>
        <pt x="226" y="106" on="1"/>
        <pt x="226" y="86" on="0"/>
        <pt x="237" y="71" on="0"/>
        <pt x="255" y="68" on="1"/>
      </contour>
      <contour>
        <pt x="221" y="905" on="0"/>
        <pt x="242" y="876" on="0"/>
        <pt x="242" y="810" on="0"/>
        <pt x="214" y="787" on="0"/>
        <pt x="148" y="787" on="0"/>
        <pt x="124" y="813" on="0"/>
        <pt x="124" y="875" on="0"/>
        <pt x="152" y="905" on="0"/>
      </contour>
    </TTGlyph>
    <TTGlyph name="Igrave" xMin="12" yMin="0" xMax="308" yMax="935">
      <contour>
        <pt x="12" y="868" on="1"/>
        <pt x="61" y="935" on="1"/>
        <pt x="240" y="783" on="1"/>
        <pt x="215" y="754" on="0"/>
        <pt x="192" y="754" on="1"/>
        <pt x="181" y="754" on="0"/>
        <pt x="165" y="764" on="1"/>
      </contour>
      <contour>
        <pt x="308" y="59" on="1"/>
        <pt x="308" y="0" on="1"/>
        <pt x="58" y="0" on="1"/>
        <pt x="58" y="59" on="1"/>
        <pt x="111" y="68" on="1"/>
        <pt x="129" y="71" on="0"/>
        <pt x="140" y="86" on="0"/>
        <pt x="140" y="106" on="1"/>
        <pt x="140" y="614" on="1"/>
        <pt x="140" y="634" on="0"/>
        <pt x="129" y="649" on="0"/>
        <pt x="111" y="652" on="1"/>
        <pt x="58" y="661" on="1"/>
        <pt x="58" y="720" on="1"/>
        <pt x="308" y="720" on="1"/>
        <pt x="308" y="661" on="1"/>
        <pt x="255" y="652" on="1"/>
        <pt x="237" y="649" on="0"/>
        <pt x="226" y="634" on="0"/>
        <pt x="226" y="614" on="1"/>
        <pt x="226" y="106" on="1"/>
        <pt x="226" y="86" on="0"/>
        <pt x="237" y="71" on="0"/>
        <pt x="255" y="68" on="1"/>
      </contour>
    </TTGlyph>
    <TTGlyph name="Imacron" xMin="48" yMin="0" xMax="325" yMax="878">
      <contour>
        <pt x="308" y="59" on="1"/>
        <pt x="308" y="0" on="1"/>
        <pt x="58" y="0" on="1"/>
        <pt x="58" y="59" on="1"/>
        <pt x="111" y="68" on="1"/>
        <pt x="129" y="71" on="0"/>
        <pt x="140" y="86" on="0"/>
        <pt x="140" y="106" on="1"/>
        <pt x="140" y="614" on="1"/>
        <pt x="140" y="634" on="0"/>
        <pt x="129" y="649" on="0"/>
        <pt x="111" y="652" on="1"/>
        <pt x="58" y="661" on="1"/>
        <pt x="58" y="720" on="1"/>
        <pt x="308" y="720" on="1"/>
        <pt x="308" y="661" on="1"/>
        <pt x="255" y="652" on="1"/>
        <pt x="237" y="649" on="0"/>
        <pt x="226" y="634" on="0"/>
        <pt x="226" y="614" on="1"/>
        <pt x="226" y="106" on="1"/>
        <pt x="226" y="86" on="0"/>
        <pt x="237" y="71" on="0"/>
        <pt x="255" y="68" on="1"/>
      </contour>
      <contour>
        <pt x="48" y="808" on="1"/>
        <pt x="58" y="878" on="1"/>
        <pt x="325" y="878" on="1"/>
        <pt x="315" y="808" on="1"/>
      </contour>
    </TTGlyph>
    <TTGlyph name="Iogonek" xMin="58" yMin="-225" xMax="308" yMax="720">
      <contour>
        <pt x="115" y="-98" on="0"/>
        <pt x="134" y="-70" on="0"/>
        <pt x="144" y="-56" on="0"/>
        <pt x="171" y="-35" on="0"/>
        <pt x="180" y="-27" on="0"/>
        <pt x="216" y="-3" on="0"/>
        <pt x="220" y="0" on="1"/>
        <pt x="58" y="0" on="1"/>
        <pt x="58" y="59" on="1"/>
        <pt x="111" y="68" on="1"/>
        <pt x="129" y="71" on="0"/>
        <pt x="140" y="86" on="0"/>
        <pt x="140" y="106" on="1"/>
        <pt x="140" y="614" on="1"/>
        <pt x="140" y="634" on="0"/>
        <pt x="129" y="649" on="0"/>
        <pt x="111" y="652" on="1"/>
        <pt x="58" y="661" on="1"/>
        <pt x="58" y="720" on="1"/>
        <pt x="308" y="720" on="1"/>
        <pt x="308" y="661" on="1"/>
        <pt x="255" y="652" on="1"/>
        <pt x="237" y="649" on="0"/>
        <pt x="226" y="634" on="0"/>
        <pt x="226" y="614" on="1"/>
        <pt x="226" y="106" on="1"/>
        <pt x="226" y="86" on="0"/>
        <pt x="237" y="71" on="0"/>
        <pt x="255" y="68" on="1"/>
        <pt x="308" y="59" on="1"/>
        <pt x="308" y="0" on="1"/>
        <pt x="304" y="0" on="1"/>
        <pt x="297" y="-3" on="0"/>
        <pt x="241" y="-40" on="0"/>
        <pt x="229" y="-50" on="1"/>
        <pt x="181" y="-87" on="0"/>
        <pt x="181" y="-139" on="0"/>
        <pt x="207" y="-170" on="0"/>
        <pt x="249" y="-170" on="0"/>
        <pt x="295" y="-157" on="1"/>
        <pt x="307" y="-198" on="1"/>
        <pt x="306" y="-198" on="0"/>
        <pt x="280" y="-210" on="0"/>
        <pt x="270" y="-214" on="1"/>
        <pt x="237" y="-225" on="0"/>
        <pt x="210" y="-225" on="1"/>
        <pt x="166" y="-225" on="0"/>
        <pt x="115" y="-167" on="0"/>
      </contour>
    </TTGlyph>
    <TTGlyph name="Itilde" xMin="33" yMin="0" xMax="333" yMax="880">
      <contour>
        <pt x="219" y="774" on="0"/>
        <pt x="137" y="811" on="0"/>
        <pt x="86" y="811" on="0"/>
        <pt x="48" y="780" on="1"/>
        <pt x="33" y="822" on="1"/>
        <pt x="74" y="880" on="0"/>
        <pt x="123" y="880" on="1"/>
        <pt x="150" y="880" on="0"/>
        <pt x="232" y="845" on="0"/>
        <pt x="251" y="845" on="1"/>
        <pt x="286" y="845" on="0"/>
        <pt x="317" y="872" on="1"/>
        <pt x="333" y="832" on="1"/>
        <pt x="293" y="774" on="0"/>
        <pt x="244" y="774" on="1"/>
      </contour>
      <contour>
        <pt x="308" y="59" on="1"/>
        <pt x="308" y="0" on="1"/>
        <pt x="58" y="0" on="1"/>
        <pt x="58" y="59" on="1"/>
        <pt x="111" y="68" on="1"/>
        <pt x="129" y="71" on="0"/>
        <pt x="140" y="86" on="0"/>
        <pt x="140" y="106" on="1"/>
        <pt x="140" y="614" on="1"/>
        <pt x="140" y="634" on="0"/>
        <pt x="129" y="649" on="0"/>
        <pt x="111" y="652" on="1"/>
        <pt x="58" y="661" on="1"/>
        <pt x="58" y="720" on="1"/>
        <pt x="308" y="720" on="1"/>
        <pt x="308" y="661" on="1"/>
        <pt x="255" y="652" on="1"/>
        <pt x="237" y="649" on="0"/>
        <pt x="226" y="634" on="0"/>
        <pt x="226" y="614" on="1"/>
        <pt x="226" y="106" on="1"/>
        <pt x="226" y="86" on="0"/>
        <pt x="237" y="71" on="0"/>
        <pt x="255" y="68" on="1"/>
      </contour>
    </TTGlyph>
    <TTGlyph name="J" xMin="-25" yMin="-154" xMax="308" yMax="720">
      <contour>
        <pt x="14" y="-154" on="1"/>
        <pt x="-25" y="-100" on="1"/>
        <pt x="84" y="-33" on="0"/>
        <pt x="140" y="63" on="0"/>
        <pt x="140" y="179" on="1"/>
        <pt x="140" y="614" on="1"/>
        <pt x="140" y="634" on="0"/>
        <pt x="129" y="649" on="0"/>
        <pt x="111" y="652" on="1"/>
        <pt x="58" y="661" on="1"/>
        <pt x="58" y="720" on="1"/>
        <pt x="308" y="720" on="1"/>
        <pt x="308" y="661" on="1"/>
        <pt x="255" y="652" on="1"/>
        <pt x="237" y="649" on="0"/>
        <pt x="226" y="634" on="0"/>
        <pt x="226" y="614" on="1"/>
        <pt x="226" y="148" on="1"/>
        <pt x="226" y="53" on="0"/>
        <pt x="198" y="-18" on="0"/>
        <pt x="174" y="-54" on="0"/>
        <pt x="146" y="-75" on="1"/>
        <pt x="101" y="-109" on="0"/>
      </contour>
    </TTGlyph>
    <TTGlyph name="Jcircumflex" xMin="-25" yMin="-154" xMax="316" yMax="913">
      <contour>
        <pt x="142" y="913" on="1"/>
        <pt x="217" y="913" on="1"/>
        <pt x="316" y="778" on="1"/>
        <pt x="278" y="746" on="1"/>
        <pt x="179" y="852" on="1"/>
        <pt x="81" y="746" on="1"/>
        <pt x="42" y="778" on="1"/>
      </contour>
      <contour>
        <pt x="14" y="-154" on="1"/>
        <pt x="-25" y="-100" on="1"/>
        <pt x="84" y="-33" on="0"/>
        <pt x="140" y="63" on="0"/>
        <pt x="140" y="179" on="1"/>
        <pt x="140" y="614" on="1"/>
        <pt x="140" y="634" on="0"/>
        <pt x="129" y="649" on="0"/>
        <pt x="111" y="652" on="1"/>
        <pt x="58" y="661" on="1"/>
        <pt x="58" y="720" on="1"/>
        <pt x="308" y="720" on="1"/>
        <pt x="308" y="661" on="1"/>
        <pt x="255" y="652" on="1"/>
        <pt x="237" y="649" on="0"/>
        <pt x="226" y="634" on="0"/>
        <pt x="226" y="614" on="1"/>
        <pt x="226" y="148" on="1"/>
        <pt x="226" y="53" on="0"/>
        <pt x="198" y="-18" on="0"/>
        <pt x="174" y="-54" on="0"/>
        <pt x="146" y="-75" on="1"/>
        <pt x="101" y="-109" on="0"/>
      </contour>
    </TTGlyph>
    <TTGlyph name="K" xMin="58" yMin="-10" xMax="661" yMax="720">
      <contour>
        <pt x="226" y="384" on="1"/>
        <pt x="226" y="106" on="1"/>
        <pt x="226" y="86" on="0"/>
        <pt x="237" y="71" on="0"/>
        <pt x="255" y="68" on="1"/>
        <pt x="312" y="59" on="1"/>
        <pt x="312" y="0" on="1"/>
        <pt x="58" y="0" on="1"/>
        <pt x="58" y="59" on="1"/>
        <pt x="111" y="68" on="1"/>
        <pt x="129" y="71" on="0"/>
        <pt x="140" y="86" on="0"/>
        <pt x="140" y="106" on="1"/>
        <pt x="140" y="614" on="1"/>
        <pt x="140" y="634" on="0"/>
        <pt x="129" y="649" on="0"/>
        <pt x="111" y="652" on="1"/>
        <pt x="58" y="661" on="1"/>
        <pt x="58" y="720" on="1"/>
        <pt x="312" y="720" on="1"/>
        <pt x="312" y="661" on="1"/>
        <pt x="255" y="652" on="1"/>
        <pt x="237" y="649" on="0"/>
        <pt x="226" y="634" on="0"/>
        <pt x="226" y="614" on="1"/>
        <pt x="226" y="403" on="1"/>
        <pt x="481" y="677" on="1"/>
        <pt x="521" y="720" on="0"/>
        <pt x="574" y="720" on="1"/>
        <pt x="623" y="720" on="1"/>
        <pt x="623" y="658" on="1"/>
        <pt x="590" y="658" on="0"/>
        <pt x="551" y="643" on="0"/>
        <pt x="526" y="617" on="1"/>
        <pt x="324" y="398" on="1"/>
        <pt x="504" y="153" on="1"/>
        <pt x="544" y="98" on="0"/>
        <pt x="591" y="60" on="0"/>
        <pt x="641" y="60" on="0"/>
        <pt x="661" y="67" on="1"/>
        <pt x="655" y="9" on="1"/>
        <pt x="619" y="-10" on="0"/>
        <pt x="528" y="-10" on="0"/>
        <pt x="470" y="41" on="0"/>
        <pt x="431" y="97" on="1"/>
      </contour>
    </TTGlyph>
    <TTGlyph name="Kcommaaccent" xMin="58" yMin="-250" xMax="661" yMax="720">
      <contour>
        <pt x="226" y="384" on="1"/>
        <pt x="226" y="106" on="1"/>
        <pt x="226" y="86" on="0"/>
        <pt x="237" y="71" on="0"/>
        <pt x="255" y="68" on="1"/>
        <pt x="312" y="59" on="1"/>
        <pt x="312" y="0" on="1"/>
        <pt x="58" y="0" on="1"/>
        <pt x="58" y="59" on="1"/>
        <pt x="111" y="68" on="1"/>
        <pt x="129" y="71" on="0"/>
        <pt x="140" y="86" on="0"/>
        <pt x="140" y="106" on="1"/>
        <pt x="140" y="614" on="1"/>
        <pt x="140" y="634" on="0"/>
        <pt x="129" y="649" on="0"/>
        <pt x="111" y="652" on="1"/>
        <pt x="58" y="661" on="1"/>
        <pt x="58" y="720" on="1"/>
        <pt x="312" y="720" on="1"/>
        <pt x="312" y="661" on="1"/>
        <pt x="255" y="652" on="1"/>
        <pt x="237" y="649" on="0"/>
        <pt x="226" y="634" on="0"/>
        <pt x="226" y="614" on="1"/>
        <pt x="226" y="403" on="1"/>
        <pt x="481" y="677" on="1"/>
        <pt x="521" y="720" on="0"/>
        <pt x="574" y="720" on="1"/>
        <pt x="623" y="720" on="1"/>
        <pt x="623" y="658" on="1"/>
        <pt x="590" y="658" on="0"/>
        <pt x="551" y="643" on="0"/>
        <pt x="526" y="617" on="1"/>
        <pt x="324" y="398" on="1"/>
        <pt x="504" y="153" on="1"/>
        <pt x="544" y="98" on="0"/>
        <pt x="591" y="60" on="0"/>
        <pt x="641" y="60" on="0"/>
        <pt x="661" y="67" on="1"/>
        <pt x="655" y="9" on="1"/>
        <pt x="619" y="-10" on="0"/>
        <pt x="528" y="-10" on="0"/>
        <pt x="470" y="41" on="0"/>
        <pt x="431" y="97" on="1"/>
      </contour>
      <contour>
        <pt x="355" y="-36" on="1"/>
        <pt x="419" y="-36" on="0"/>
        <pt x="419" y="-114" on="1"/>
        <pt x="419" y="-153" on="0"/>
        <pt x="363" y="-233" on="0"/>
        <pt x="325" y="-250" on="1"/>
        <pt x="302" y="-226" on="1"/>
        <pt x="328" y="-209" on="0"/>
        <pt x="367" y="-163" on="0"/>
        <pt x="367" y="-145" on="1"/>
        <pt x="360" y="-148" on="0"/>
        <pt x="322" y="-148" on="0"/>
        <pt x="297" y="-117" on="0"/>
        <pt x="297" y="-94" on="1"/>
        <pt x="297" y="-36" on="0"/>
      </contour>
    </TTGlyph>
    <TTGlyph name="L" xMin="58" yMin="0" xMax="542" yMax="720">
      <contour>
        <pt x="542" y="0" on="1"/>
        <pt x="58" y="0" on="1"/>
        <pt x="58" y="59" on="1"/>
        <pt x="111" y="68" on="1"/>
        <pt x="129" y="71" on="0"/>
        <pt x="140" y="86" on="0"/>
        <pt x="140" y="106" on="1"/>
        <pt x="140" y="614" on="1"/>
        <pt x="140" y="634" on="0"/>
        <pt x="129" y="649" on="0"/>
        <pt x="111" y="652" on="1"/>
        <pt x="58" y="661" on="1"/>
        <pt x="58" y="720" on="1"/>
        <pt x="314" y="720" on="1"/>
        <pt x="314" y="661" on="1"/>
        <pt x="255" y="652" on="1"/>
        <pt x="237" y="649" on="0"/>
        <pt x="226" y="634" on="0"/>
        <pt x="226" y="614" on="1"/>
        <pt x="226" y="73" on="1"/>
        <pt x="425" y="73" on="1"/>
        <pt x="444" y="73" on="0"/>
        <pt x="462" y="84" on="0"/>
        <pt x="463" y="102" on="1"/>
        <pt x="469" y="177" on="1"/>
        <pt x="536" y="177" on="1"/>
      </contour>
    </TTGlyph>
    <TTGlyph name="Lacute" xMin="58" yMin="0" xMax="542" yMax="935">
      <contour>
        <pt x="316" y="935" on="1"/>
        <pt x="365" y="868" on="1"/>
        <pt x="212" y="764" on="1"/>
        <pt x="196" y="754" on="0"/>
        <pt x="185" y="754" on="1"/>
        <pt x="162" y="754" on="0"/>
        <pt x="137" y="783" on="1"/>
      </contour>
      <contour>
        <pt x="542" y="0" on="1"/>
        <pt x="58" y="0" on="1"/>
        <pt x="58" y="59" on="1"/>
        <pt x="111" y="68" on="1"/>
        <pt x="129" y="71" on="0"/>
        <pt x="140" y="86" on="0"/>
        <pt x="140" y="106" on="1"/>
        <pt x="140" y="614" on="1"/>
        <pt x="140" y="634" on="0"/>
        <pt x="129" y="649" on="0"/>
        <pt x="111" y="652" on="1"/>
        <pt x="58" y="661" on="1"/>
        <pt x="58" y="720" on="1"/>
        <pt x="314" y="720" on="1"/>
        <pt x="314" y="661" on="1"/>
        <pt x="255" y="652" on="1"/>
        <pt x="237" y="649" on="0"/>
        <pt x="226" y="634" on="0"/>
        <pt x="226" y="614" on="1"/>
        <pt x="226" y="73" on="1"/>
        <pt x="425" y="73" on="1"/>
        <pt x="444" y="73" on="0"/>
        <pt x="462" y="84" on="0"/>
        <pt x="463" y="102" on="1"/>
        <pt x="469" y="177" on="1"/>
        <pt x="536" y="177" on="1"/>
      </contour>
    </TTGlyph>
    <TTGlyph name="Lcaron" xMin="58" yMin="0" xMax="542" yMax="759">
      <contour>
        <pt x="524" y="690" on="1"/>
        <pt x="524" y="593" on="0"/>
        <pt x="425" y="532" on="1"/>
        <pt x="398" y="561" on="1"/>
        <pt x="420" y="573" on="0"/>
        <pt x="462" y="623" on="0"/>
        <pt x="462" y="645" on="1"/>
        <pt x="458" y="644" on="0"/>
        <pt x="422" y="645" on="0"/>
        <pt x="395" y="675" on="0"/>
        <pt x="395" y="698" on="1"/>
        <pt x="395" y="759" on="0"/>
        <pt x="454" y="759" on="1"/>
        <pt x="488" y="759" on="0"/>
        <pt x="524" y="721" on="0"/>
      </contour>
      <contour>
        <pt x="542" y="0" on="1"/>
        <pt x="58" y="0" on="1"/>
        <pt x="58" y="59" on="1"/>
        <pt x="111" y="68" on="1"/>
        <pt x="129" y="71" on="0"/>
        <pt x="140" y="86" on="0"/>
        <pt x="140" y="106" on="1"/>
        <pt x="140" y="614" on="1"/>
        <pt x="140" y="634" on="0"/>
        <pt x="129" y="649" on="0"/>
        <pt x="111" y="652" on="1"/>
        <pt x="58" y="661" on="1"/>
        <pt x="58" y="720" on="1"/>
        <pt x="314" y="720" on="1"/>
        <pt x="314" y="661" on="1"/>
        <pt x="255" y="652" on="1"/>
        <pt x="237" y="649" on="0"/>
        <pt x="226" y="634" on="0"/>
        <pt x="226" y="614" on="1"/>
        <pt x="226" y="73" on="1"/>
        <pt x="425" y="73" on="1"/>
        <pt x="444" y="73" on="0"/>
        <pt x="462" y="84" on="0"/>
        <pt x="463" y="102" on="1"/>
        <pt x="469" y="177" on="1"/>
        <pt x="536" y="177" on="1"/>
      </contour>
    </TTGlyph>
    <TTGlyph name="Lcommaaccent" xMin="58" yMin="-250" xMax="542" yMax="720">
      <contour>
        <pt x="542" y="0" on="1"/>
        <pt x="58" y="0" on="1"/>
        <pt x="58" y="59" on="1"/>
        <pt x="111" y="68" on="1"/>
        <pt x="129" y="71" on="0"/>
        <pt x="140" y="86" on="0"/>
        <pt x="140" y="106" on="1"/>
        <pt x="140" y="614" on="1"/>
        <pt x="140" y="634" on="0"/>
        <pt x="129" y="649" on="0"/>
        <pt x="111" y="652" on="1"/>
        <pt x="58" y="661" on="1"/>
        <pt x="58" y="720" on="1"/>
        <pt x="314" y="720" on="1"/>
        <pt x="314" y="661" on="1"/>
        <pt x="255" y="652" on="1"/>
        <pt x="237" y="649" on="0"/>
        <pt x="226" y="634" on="0"/>
        <pt x="226" y="614" on="1"/>
        <pt x="226" y="73" on="1"/>
        <pt x="425" y="73" on="1"/>
        <pt x="444" y="73" on="0"/>
        <pt x="462" y="84" on="0"/>
        <pt x="463" y="102" on="1"/>
        <pt x="469" y="177" on="1"/>
        <pt x="536" y="177" on="1"/>
      </contour>
      <contour>
        <pt x="276" y="-36" on="1"/>
        <pt x="340" y="-36" on="0"/>
        <pt x="340" y="-114" on="1"/>
        <pt x="340" y="-153" on="0"/>
        <pt x="284" y="-233" on="0"/>
        <pt x="246" y="-250" on="1"/>
        <pt x="223" y="-226" on="1"/>
        <pt x="249" y="-209" on="0"/>
        <pt x="288" y="-163" on="0"/>
        <pt x="288" y="-145" on="1"/>
        <pt x="280" y="-148" on="0"/>
        <pt x="243" y="-148" on="0"/>
        <pt x="218" y="-117" on="0"/>
        <pt x="218" y="-94" on="1"/>
        <pt x="218" y="-36" on="0"/>
      </contour>
    </TTGlyph>
    <TTGlyph name="Ldot" xMin="58" yMin="0" xMax="542" yMax="720">
      <contour>
        <pt x="446" y="425" on="0"/>
        <pt x="466" y="396" on="0"/>
        <pt x="466" y="330" on="0"/>
        <pt x="437" y="307" on="0"/>
        <pt x="400" y="307" on="1"/>
        <pt x="348" y="307" on="0"/>
        <pt x="348" y="360" on="1"/>
        <pt x="348" y="395" on="0"/>
        <pt x="375" y="425" on="0"/>
      </contour>
      <contour>
        <pt x="542" y="0" on="1"/>
        <pt x="58" y="0" on="1"/>
        <pt x="58" y="59" on="1"/>
        <pt x="111" y="68" on="1"/>
        <pt x="129" y="71" on="0"/>
        <pt x="140" y="86" on="0"/>
        <pt x="140" y="106" on="1"/>
        <pt x="140" y="614" on="1"/>
        <pt x="140" y="634" on="0"/>
        <pt x="129" y="649" on="0"/>
        <pt x="111" y="652" on="1"/>
        <pt x="58" y="661" on="1"/>
        <pt x="58" y="720" on="1"/>
        <pt x="314" y="720" on="1"/>
        <pt x="314" y="661" on="1"/>
        <pt x="255" y="652" on="1"/>
        <pt x="237" y="649" on="0"/>
        <pt x="226" y="634" on="0"/>
        <pt x="226" y="614" on="1"/>
        <pt x="226" y="73" on="1"/>
        <pt x="425" y="73" on="1"/>
        <pt x="444" y="73" on="0"/>
        <pt x="462" y="84" on="0"/>
        <pt x="463" y="102" on="1"/>
        <pt x="469" y="177" on="1"/>
        <pt x="536" y="177" on="1"/>
      </contour>
    </TTGlyph>
    <TTGlyph name="Lslash" xMin="58" yMin="0" xMax="542" yMax="720">
      <contour>
        <pt x="61" y="242" on="1"/>
        <pt x="61" y="312" on="1"/>
        <pt x="140" y="358" on="1"/>
        <pt x="140" y="614" on="1"/>
        <pt x="140" y="634" on="0"/>
        <pt x="129" y="649" on="0"/>
        <pt x="111" y="652" on="1"/>
        <pt x="58" y="661" on="1"/>
        <pt x="58" y="720" on="1"/>
        <pt x="314" y="720" on="1"/>
        <pt x="314" y="661" on="1"/>
        <pt x="255" y="652" on="1"/>
        <pt x="237" y="649" on="0"/>
        <pt x="226" y="634" on="0"/>
        <pt x="226" y="614" on="1"/>
        <pt x="226" y="408" on="1"/>
        <pt x="371" y="492" on="1"/>
        <pt x="371" y="423" on="1"/>
        <pt x="226" y="338" on="1"/>
        <pt x="226" y="73" on="1"/>
        <pt x="425" y="73" on="1"/>
        <pt x="444" y="73" on="0"/>
        <pt x="462" y="84" on="0"/>
        <pt x="463" y="102" on="1"/>
        <pt x="469" y="177" on="1"/>
        <pt x="536" y="177" on="1"/>
        <pt x="542" y="0" on="1"/>
        <pt x="58" y="0" on="1"/>
        <pt x="58" y="59" on="1"/>
        <pt x="111" y="68" on="1"/>
        <pt x="129" y="71" on="0"/>
        <pt x="140" y="86" on="0"/>
        <pt x="140" y="106" on="1"/>
        <pt x="140" y="288" on="1"/>
      </contour>
    </TTGlyph>
    <TTGlyph name="M" xMin="19" yMin="0" xMax="882" yMax="720">
      <contour>
        <pt x="257" y="0" on="1"/>
        <pt x="19" y="0" on="1"/>
        <pt x="19" y="59" on="1"/>
        <pt x="72" y="68" on="1"/>
        <pt x="90" y="71" on="0"/>
        <pt x="99" y="85" on="0"/>
        <pt x="101" y="105" on="1"/>
        <pt x="136" y="625" on="1"/>
        <pt x="136" y="651" on="0"/>
        <pt x="106" y="655" on="1"/>
        <pt x="54" y="661" on="1"/>
        <pt x="54" y="720" on="1"/>
        <pt x="254" y="720" on="1"/>
        <pt x="452" y="134" on="1"/>
        <pt x="629" y="720" on="1"/>
        <pt x="841" y="720" on="1"/>
        <pt x="841" y="661" on="1"/>
        <pt x="785" y="655" on="1"/>
        <pt x="767" y="653" on="0"/>
        <pt x="754" y="639" on="0"/>
        <pt x="754" y="623" on="1"/>
        <pt x="794" y="105" on="1"/>
        <pt x="796" y="85" on="0"/>
        <pt x="805" y="71" on="0"/>
        <pt x="823" y="68" on="1"/>
        <pt x="882" y="59" on="1"/>
        <pt x="882" y="0" on="1"/>
        <pt x="626" y="0" on="1"/>
        <pt x="626" y="59" on="1"/>
        <pt x="680" y="65" on="1"/>
        <pt x="709" y="69" on="0"/>
        <pt x="709" y="97" on="1"/>
        <pt x="672" y="611" on="1"/>
        <pt x="481" y="0" on="1"/>
        <pt x="410" y="0" on="1"/>
        <pt x="198" y="611" on="1"/>
        <pt x="174" y="99" on="1"/>
        <pt x="175" y="83" on="0"/>
        <pt x="187" y="67" on="0"/>
        <pt x="204" y="65" on="1"/>
        <pt x="257" y="59" on="1"/>
      </contour>
    </TTGlyph>
    <TTGlyph name="N" xMin="58" yMin="0" xMax="753" yMax="720">
      <contour>
        <pt x="226" y="562" on="1"/>
        <pt x="226" y="106" on="1"/>
        <pt x="226" y="86" on="0"/>
        <pt x="237" y="71" on="0"/>
        <pt x="255" y="68" on="1"/>
        <pt x="308" y="59" on="1"/>
        <pt x="308" y="0" on="1"/>
        <pt x="58" y="0" on="1"/>
        <pt x="58" y="59" on="1"/>
        <pt x="111" y="68" on="1"/>
        <pt x="129" y="71" on="0"/>
        <pt x="140" y="86" on="0"/>
        <pt x="140" y="106" on="1"/>
        <pt x="140" y="615" on="1"/>
        <pt x="140" y="635" on="0"/>
        <pt x="129" y="653" on="0"/>
        <pt x="111" y="655" on="1"/>
        <pt x="59" y="661" on="1"/>
        <pt x="59" y="720" on="1"/>
        <pt x="227" y="720" on="1"/>
        <pt x="586" y="158" on="1"/>
        <pt x="586" y="615" on="1"/>
        <pt x="586" y="635" on="0"/>
        <pt x="576" y="653" on="0"/>
        <pt x="558" y="655" on="1"/>
        <pt x="506" y="661" on="1"/>
        <pt x="506" y="720" on="1"/>
        <pt x="753" y="720" on="1"/>
        <pt x="753" y="661" on="1"/>
        <pt x="701" y="655" on="1"/>
        <pt x="683" y="653" on="0"/>
        <pt x="672" y="635" on="0"/>
        <pt x="672" y="615" on="1"/>
        <pt x="672" y="0" on="1"/>
        <pt x="584" y="0" on="1"/>
      </contour>
    </TTGlyph>
    <TTGlyph name="Nacute" xMin="58" yMin="0" xMax="753" yMax="935">
      <contour>
        <pt x="473" y="935" on="1"/>
        <pt x="522" y="868" on="1"/>
        <pt x="369" y="764" on="1"/>
        <pt x="353" y="754" on="0"/>
        <pt x="342" y="754" on="1"/>
        <pt x="319" y="754" on="0"/>
        <pt x="294" y="783" on="1"/>
      </contour>
      <contour>
        <pt x="226" y="562" on="1"/>
        <pt x="226" y="106" on="1"/>
        <pt x="226" y="86" on="0"/>
        <pt x="237" y="71" on="0"/>
        <pt x="255" y="68" on="1"/>
        <pt x="308" y="59" on="1"/>
        <pt x="308" y="0" on="1"/>
        <pt x="58" y="0" on="1"/>
        <pt x="58" y="59" on="1"/>
        <pt x="111" y="68" on="1"/>
        <pt x="129" y="71" on="0"/>
        <pt x="140" y="86" on="0"/>
        <pt x="140" y="106" on="1"/>
        <pt x="140" y="615" on="1"/>
        <pt x="140" y="635" on="0"/>
        <pt x="129" y="653" on="0"/>
        <pt x="111" y="655" on="1"/>
        <pt x="59" y="661" on="1"/>
        <pt x="59" y="720" on="1"/>
        <pt x="227" y="720" on="1"/>
        <pt x="586" y="158" on="1"/>
        <pt x="586" y="615" on="1"/>
        <pt x="586" y="635" on="0"/>
        <pt x="576" y="653" on="0"/>
        <pt x="558" y="655" on="1"/>
        <pt x="506" y="661" on="1"/>
        <pt x="506" y="720" on="1"/>
        <pt x="753" y="720" on="1"/>
        <pt x="753" y="661" on="1"/>
        <pt x="701" y="655" on="1"/>
        <pt x="683" y="653" on="0"/>
        <pt x="672" y="635" on="0"/>
        <pt x="672" y="615" on="1"/>
        <pt x="672" y="0" on="1"/>
        <pt x="584" y="0" on="1"/>
      </contour>
    </TTGlyph>
    <TTGlyph name="Ncaron" xMin="58" yMin="0" xMax="753" yMax="935">
      <contour>
        <pt x="226" y="562" on="1"/>
        <pt x="226" y="106" on="1"/>
        <pt x="226" y="86" on="0"/>
        <pt x="237" y="71" on="0"/>
        <pt x="255" y="68" on="1"/>
        <pt x="308" y="59" on="1"/>
        <pt x="308" y="0" on="1"/>
        <pt x="58" y="0" on="1"/>
        <pt x="58" y="59" on="1"/>
        <pt x="111" y="68" on="1"/>
        <pt x="129" y="71" on="0"/>
        <pt x="140" y="86" on="0"/>
        <pt x="140" y="106" on="1"/>
        <pt x="140" y="615" on="1"/>
        <pt x="140" y="635" on="0"/>
        <pt x="129" y="653" on="0"/>
        <pt x="111" y="655" on="1"/>
        <pt x="59" y="661" on="1"/>
        <pt x="59" y="720" on="1"/>
        <pt x="227" y="720" on="1"/>
        <pt x="586" y="158" on="1"/>
        <pt x="586" y="615" on="1"/>
        <pt x="586" y="635" on="0"/>
        <pt x="576" y="653" on="0"/>
        <pt x="558" y="655" on="1"/>
        <pt x="506" y="661" on="1"/>
        <pt x="506" y="720" on="1"/>
        <pt x="753" y="720" on="1"/>
        <pt x="753" y="661" on="1"/>
        <pt x="701" y="655" on="1"/>
        <pt x="683" y="653" on="0"/>
        <pt x="672" y="635" on="0"/>
        <pt x="672" y="615" on="1"/>
        <pt x="672" y="0" on="1"/>
        <pt x="584" y="0" on="1"/>
      </contour>
      <contour>
        <pt x="444" y="753" on="1"/>
        <pt x="369" y="753" on="1"/>
        <pt x="261" y="903" on="1"/>
        <pt x="299" y="935" on="1"/>
        <pt x="407" y="814" on="1"/>
        <pt x="515" y="935" on="1"/>
        <pt x="554" y="903" on="1"/>
      </contour>
    </TTGlyph>
    <TTGlyph name="Ncommaaccent" xMin="58" yMin="-250" xMax="753" yMax="720">
      <contour>
        <pt x="226" y="562" on="1"/>
        <pt x="226" y="106" on="1"/>
        <pt x="226" y="86" on="0"/>
        <pt x="237" y="71" on="0"/>
        <pt x="255" y="68" on="1"/>
        <pt x="308" y="59" on="1"/>
        <pt x="308" y="0" on="1"/>
        <pt x="58" y="0" on="1"/>
        <pt x="58" y="59" on="1"/>
        <pt x="111" y="68" on="1"/>
        <pt x="129" y="71" on="0"/>
        <pt x="140" y="86" on="0"/>
        <pt x="140" y="106" on="1"/>
        <pt x="140" y="615" on="1"/>
        <pt x="140" y="635" on="0"/>
        <pt x="129" y="653" on="0"/>
        <pt x="111" y="655" on="1"/>
        <pt x="59" y="661" on="1"/>
        <pt x="59" y="720" on="1"/>
        <pt x="227" y="720" on="1"/>
        <pt x="586" y="158" on="1"/>
        <pt x="586" y="615" on="1"/>
        <pt x="586" y="635" on="0"/>
        <pt x="576" y="653" on="0"/>
        <pt x="558" y="655" on="1"/>
        <pt x="506" y="661" on="1"/>
        <pt x="506" y="720" on="1"/>
        <pt x="753" y="720" on="1"/>
        <pt x="753" y="661" on="1"/>
        <pt x="701" y="655" on="1"/>
        <pt x="683" y="653" on="0"/>
        <pt x="672" y="635" on="0"/>
        <pt x="672" y="615" on="1"/>
        <pt x="672" y="0" on="1"/>
        <pt x="584" y="0" on="1"/>
      </contour>
      <contour>
        <pt x="427" y="-36" on="1"/>
        <pt x="491" y="-36" on="0"/>
        <pt x="491" y="-114" on="1"/>
        <pt x="491" y="-153" on="0"/>
        <pt x="435" y="-233" on="0"/>
        <pt x="397" y="-250" on="1"/>
        <pt x="374" y="-226" on="1"/>
        <pt x="400" y="-209" on="0"/>
        <pt x="439" y="-163" on="0"/>
        <pt x="439" y="-145" on="1"/>
        <pt x="432" y="-148" on="0"/>
        <pt x="394" y="-148" on="0"/>
        <pt x="369" y="-117" on="0"/>
        <pt x="369" y="-94" on="1"/>
        <pt x="369" y="-36" on="0"/>
      </contour>
    </TTGlyph>
    <TTGlyph name="Ntilde" xMin="58" yMin="0" xMax="753" yMax="879">
      <contour>
        <pt x="226" y="562" on="1"/>
        <pt x="226" y="106" on="1"/>
        <pt x="226" y="86" on="0"/>
        <pt x="237" y="71" on="0"/>
        <pt x="255" y="68" on="1"/>
        <pt x="308" y="59" on="1"/>
        <pt x="308" y="0" on="1"/>
        <pt x="58" y="0" on="1"/>
        <pt x="58" y="59" on="1"/>
        <pt x="111" y="68" on="1"/>
        <pt x="129" y="71" on="0"/>
        <pt x="140" y="86" on="0"/>
        <pt x="140" y="106" on="1"/>
        <pt x="140" y="615" on="1"/>
        <pt x="140" y="635" on="0"/>
        <pt x="129" y="653" on="0"/>
        <pt x="111" y="655" on="1"/>
        <pt x="59" y="661" on="1"/>
        <pt x="59" y="720" on="1"/>
        <pt x="227" y="720" on="1"/>
        <pt x="586" y="158" on="1"/>
        <pt x="586" y="615" on="1"/>
        <pt x="586" y="635" on="0"/>
        <pt x="576" y="653" on="0"/>
        <pt x="558" y="655" on="1"/>
        <pt x="506" y="661" on="1"/>
        <pt x="506" y="720" on="1"/>
        <pt x="753" y="720" on="1"/>
        <pt x="753" y="661" on="1"/>
        <pt x="701" y="655" on="1"/>
        <pt x="683" y="653" on="0"/>
        <pt x="672" y="635" on="0"/>
        <pt x="672" y="615" on="1"/>
        <pt x="672" y="0" on="1"/>
        <pt x="584" y="0" on="1"/>
      </contour>
      <contour>
        <pt x="445" y="773" on="0"/>
        <pt x="356" y="810" on="0"/>
        <pt x="304" y="810" on="0"/>
        <pt x="266" y="779" on="1"/>
        <pt x="251" y="821" on="1"/>
        <pt x="292" y="879" on="0"/>
        <pt x="341" y="879" on="1"/>
        <pt x="371" y="879" on="0"/>
        <pt x="459" y="844" on="0"/>
        <pt x="514" y="844" on="0"/>
        <pt x="545" y="871" on="1"/>
        <pt x="561" y="831" on="1"/>
        <pt x="521" y="773" on="0"/>
        <pt x="472" y="773" on="1"/>
      </contour>
    </TTGlyph>
    <TTGlyph name="O" xMin="42" yMin="-10" xMax="675" yMax="730">
      <contour>
        <pt x="619" y="632" on="0"/>
        <pt x="675" y="472" on="0"/>
        <pt x="675" y="286" on="0"/>
        <pt x="637" y="157" on="0"/>
        <pt x="558" y="51" on="0"/>
        <pt x="424" y="-10" on="0"/>
        <pt x="232" y="-10" on="0"/>
        <pt x="98" y="88" on="0"/>
        <pt x="42" y="248" on="0"/>
        <pt x="42" y="434" on="0"/>
        <pt x="80" y="563" on="0"/>
        <pt x="159" y="669" on="0"/>
        <pt x="293" y="730" on="0"/>
        <pt x="485" y="730" on="0"/>
      </contour>
      <contour>
        <pt x="578" y="502" on="0"/>
        <pt x="457" y="656" on="0"/>
        <pt x="244" y="656" on="0"/>
        <pt x="196" y="601" on="1"/>
        <pt x="171" y="572" on="0"/>
        <pt x="139" y="425" on="0"/>
        <pt x="139" y="354" on="1"/>
        <pt x="139" y="218" on="0"/>
        <pt x="260" y="64" on="0"/>
        <pt x="473" y="64" on="0"/>
        <pt x="521" y="119" on="1"/>
        <pt x="546" y="148" on="0"/>
        <pt x="578" y="295" on="0"/>
        <pt x="578" y="366" on="1"/>
      </contour>
    </TTGlyph>
    <TTGlyph name="OE" xMin="42" yMin="-10" xMax="985" yMax="730">
      <contour>
        <pt x="985" y="0" on="1"/>
        <pt x="563" y="0" on="1"/>
        <pt x="563" y="91" on="1"/>
        <pt x="486" y="-10" on="0"/>
        <pt x="335" y="-10" on="1"/>
        <pt x="232" y="-10" on="0"/>
        <pt x="98" y="88" on="0"/>
        <pt x="42" y="248" on="0"/>
        <pt x="42" y="435" on="0"/>
        <pt x="79" y="562" on="0"/>
        <pt x="156" y="669" on="0"/>
        <pt x="292" y="730" on="0"/>
        <pt x="383" y="730" on="1"/>
        <pt x="499" y="730" on="0"/>
        <pt x="562" y="648" on="1"/>
        <pt x="562" y="720" on="1"/>
        <pt x="977" y="720" on="1"/>
        <pt x="971" y="548" on="1"/>
        <pt x="907" y="548" on="1"/>
        <pt x="901" y="618" on="1"/>
        <pt x="900" y="636" on="0"/>
        <pt x="882" y="647" on="0"/>
        <pt x="863" y="647" on="1"/>
        <pt x="646" y="647" on="1"/>
        <pt x="646" y="402" on="1"/>
        <pt x="855" y="402" on="1"/>
        <pt x="855" y="329" on="1"/>
        <pt x="646" y="329" on="1"/>
        <pt x="646" y="73" on="1"/>
        <pt x="868" y="73" on="1"/>
        <pt x="887" y="73" on="0"/>
        <pt x="905" y="84" on="0"/>
        <pt x="906" y="102" on="1"/>
        <pt x="912" y="177" on="1"/>
        <pt x="979" y="177" on="1"/>
      </contour>
      <contour>
        <pt x="336" y="656" on="1"/>
        <pt x="244" y="656" on="0"/>
        <pt x="196" y="601" on="1"/>
        <pt x="171" y="572" on="0"/>
        <pt x="139" y="425" on="0"/>
        <pt x="139" y="354" on="1"/>
        <pt x="139" y="218" on="0"/>
        <pt x="260" y="64" on="0"/>
        <pt x="371" y="64" on="1"/>
        <pt x="460" y="64" on="0"/>
        <pt x="515" y="127" on="1"/>
        <pt x="556" y="198" on="0"/>
        <pt x="556" y="381" on="1"/>
        <pt x="556" y="518" on="0"/>
        <pt x="457" y="656" on="0"/>
      </contour>
    </TTGlyph>
    <TTGlyph name="Oacute" xMin="42" yMin="-10" xMax="675" yMax="935">
      <contour>
        <pt x="502" y="935" on="1"/>
        <pt x="551" y="868" on="1"/>
        <pt x="398" y="764" on="1"/>
        <pt x="382" y="754" on="0"/>
        <pt x="371" y="754" on="1"/>
        <pt x="348" y="754" on="0"/>
        <pt x="323" y="783" on="1"/>
      </contour>
      <contour>
        <pt x="619" y="632" on="0"/>
        <pt x="675" y="472" on="0"/>
        <pt x="675" y="286" on="0"/>
        <pt x="637" y="157" on="0"/>
        <pt x="558" y="51" on="0"/>
        <pt x="424" y="-10" on="0"/>
        <pt x="232" y="-10" on="0"/>
        <pt x="98" y="88" on="0"/>
        <pt x="42" y="248" on="0"/>
        <pt x="42" y="434" on="0"/>
        <pt x="80" y="563" on="0"/>
        <pt x="159" y="669" on="0"/>
        <pt x="293" y="730" on="0"/>
        <pt x="485" y="730" on="0"/>
      </contour>
      <contour>
        <pt x="578" y="502" on="0"/>
        <pt x="457" y="656" on="0"/>
        <pt x="244" y="656" on="0"/>
        <pt x="196" y="601" on="1"/>
        <pt x="171" y="572" on="0"/>
        <pt x="139" y="425" on="0"/>
        <pt x="139" y="354" on="1"/>
        <pt x="139" y="218" on="0"/>
        <pt x="260" y="64" on="0"/>
        <pt x="473" y="64" on="0"/>
        <pt x="521" y="119" on="1"/>
        <pt x="546" y="148" on="0"/>
        <pt x="578" y="295" on="0"/>
        <pt x="578" y="366" on="1"/>
      </contour>
    </TTGlyph>
    <TTGlyph name="Obreve" xMin="42" yMin="-10" xMax="675" yMax="903">
      <contour>
        <pt x="619" y="632" on="0"/>
        <pt x="675" y="472" on="0"/>
        <pt x="675" y="286" on="0"/>
        <pt x="637" y="157" on="0"/>
        <pt x="558" y="51" on="0"/>
        <pt x="424" y="-10" on="0"/>
        <pt x="232" y="-10" on="0"/>
        <pt x="98" y="88" on="0"/>
        <pt x="42" y="248" on="0"/>
        <pt x="42" y="434" on="0"/>
        <pt x="80" y="563" on="0"/>
        <pt x="159" y="669" on="0"/>
        <pt x="293" y="730" on="0"/>
        <pt x="485" y="730" on="0"/>
      </contour>
      <contour>
        <pt x="578" y="502" on="0"/>
        <pt x="457" y="656" on="0"/>
        <pt x="244" y="656" on="0"/>
        <pt x="196" y="601" on="1"/>
        <pt x="171" y="572" on="0"/>
        <pt x="139" y="425" on="0"/>
        <pt x="139" y="354" on="1"/>
        <pt x="139" y="218" on="0"/>
        <pt x="260" y="64" on="0"/>
        <pt x="473" y="64" on="0"/>
        <pt x="521" y="119" on="1"/>
        <pt x="546" y="148" on="0"/>
        <pt x="578" y="295" on="0"/>
        <pt x="578" y="366" on="1"/>
      </contour>
      <contour>
        <pt x="461" y="903" on="1"/>
        <pt x="509" y="888" on="1"/>
        <pt x="493" y="835" on="0"/>
        <pt x="416" y="768" on="0"/>
        <pt x="302" y="768" on="0"/>
        <pt x="225" y="835" on="0"/>
        <pt x="209" y="888" on="1"/>
        <pt x="257" y="903" on="1"/>
        <pt x="274" y="874" on="0"/>
        <pt x="327" y="834" on="0"/>
        <pt x="391" y="834" on="0"/>
        <pt x="444" y="874" on="0"/>
      </contour>
    </TTGlyph>
    <TTGlyph name="Ocircumflex" xMin="42" yMin="-10" xMax="675" yMax="913">
      <contour>
        <pt x="323" y="913" on="1"/>
        <pt x="398" y="913" on="1"/>
        <pt x="512" y="778" on="1"/>
        <pt x="474" y="746" on="1"/>
        <pt x="360" y="852" on="1"/>
        <pt x="247" y="746" on="1"/>
        <pt x="208" y="778" on="1"/>
      </contour>
      <contour>
        <pt x="619" y="632" on="0"/>
        <pt x="675" y="472" on="0"/>
        <pt x="675" y="286" on="0"/>
        <pt x="637" y="157" on="0"/>
        <pt x="558" y="51" on="0"/>
        <pt x="424" y="-10" on="0"/>
        <pt x="232" y="-10" on="0"/>
        <pt x="98" y="88" on="0"/>
        <pt x="42" y="248" on="0"/>
        <pt x="42" y="434" on="0"/>
        <pt x="80" y="563" on="0"/>
        <pt x="159" y="669" on="0"/>
        <pt x="293" y="730" on="0"/>
        <pt x="485" y="730" on="0"/>
      </contour>
      <contour>
        <pt x="578" y="502" on="0"/>
        <pt x="457" y="656" on="0"/>
        <pt x="244" y="656" on="0"/>
        <pt x="196" y="601" on="1"/>
        <pt x="171" y="572" on="0"/>
        <pt x="139" y="425" on="0"/>
        <pt x="139" y="354" on="1"/>
        <pt x="139" y="218" on="0"/>
        <pt x="260" y="64" on="0"/>
        <pt x="473" y="64" on="0"/>
        <pt x="521" y="119" on="1"/>
        <pt x="546" y="148" on="0"/>
        <pt x="578" y="295" on="0"/>
        <pt x="578" y="366" on="1"/>
      </contour>
    </TTGlyph>
    <TTGlyph name="Odieresis" xMin="42" yMin="-10" xMax="675" yMax="892">
      <contour>
        <pt x="619" y="632" on="0"/>
        <pt x="675" y="472" on="0"/>
        <pt x="675" y="286" on="0"/>
        <pt x="637" y="157" on="0"/>
        <pt x="558" y="51" on="0"/>
        <pt x="424" y="-10" on="0"/>
        <pt x="232" y="-10" on="0"/>
        <pt x="98" y="88" on="0"/>
        <pt x="42" y="248" on="0"/>
        <pt x="42" y="434" on="0"/>
        <pt x="80" y="563" on="0"/>
        <pt x="159" y="669" on="0"/>
        <pt x="293" y="730" on="0"/>
        <pt x="485" y="730" on="0"/>
      </contour>
      <contour>
        <pt x="578" y="502" on="0"/>
        <pt x="457" y="656" on="0"/>
        <pt x="244" y="656" on="0"/>
        <pt x="196" y="601" on="1"/>
        <pt x="171" y="572" on="0"/>
        <pt x="139" y="425" on="0"/>
        <pt x="139" y="354" on="1"/>
        <pt x="139" y="218" on="0"/>
        <pt x="260" y="64" on="0"/>
        <pt x="473" y="64" on="0"/>
        <pt x="521" y="119" on="1"/>
        <pt x="546" y="148" on="0"/>
        <pt x="578" y="295" on="0"/>
        <pt x="578" y="366" on="1"/>
      </contour>
      <contour>
        <pt x="292" y="892" on="0"/>
        <pt x="312" y="865" on="0"/>
        <pt x="312" y="802" on="0"/>
        <pt x="285" y="780" on="0"/>
        <pt x="223" y="780" on="0"/>
        <pt x="200" y="804" on="0"/>
        <pt x="200" y="864" on="0"/>
        <pt x="227" y="892" on="0"/>
      </contour>
      <contour>
        <pt x="497" y="892" on="0"/>
        <pt x="517" y="865" on="0"/>
        <pt x="517" y="802" on="0"/>
        <pt x="490" y="780" on="0"/>
        <pt x="428" y="780" on="0"/>
        <pt x="405" y="804" on="0"/>
        <pt x="405" y="864" on="0"/>
        <pt x="432" y="892" on="0"/>
      </contour>
    </TTGlyph>
    <TTGlyph name="Ograve" xMin="42" yMin="-10" xMax="675" yMax="935">
      <contour>
        <pt x="199" y="868" on="1"/>
        <pt x="248" y="935" on="1"/>
        <pt x="427" y="783" on="1"/>
        <pt x="402" y="754" on="0"/>
        <pt x="379" y="754" on="1"/>
        <pt x="368" y="754" on="0"/>
        <pt x="352" y="764" on="1"/>
      </contour>
      <contour>
        <pt x="619" y="632" on="0"/>
        <pt x="675" y="472" on="0"/>
        <pt x="675" y="286" on="0"/>
        <pt x="637" y="157" on="0"/>
        <pt x="558" y="51" on="0"/>
        <pt x="424" y="-10" on="0"/>
        <pt x="232" y="-10" on="0"/>
        <pt x="98" y="88" on="0"/>
        <pt x="42" y="248" on="0"/>
        <pt x="42" y="434" on="0"/>
        <pt x="80" y="563" on="0"/>
        <pt x="159" y="669" on="0"/>
        <pt x="293" y="730" on="0"/>
        <pt x="485" y="730" on="0"/>
      </contour>
      <contour>
        <pt x="578" y="502" on="0"/>
        <pt x="457" y="656" on="0"/>
        <pt x="244" y="656" on="0"/>
        <pt x="196" y="601" on="1"/>
        <pt x="171" y="572" on="0"/>
        <pt x="139" y="425" on="0"/>
        <pt x="139" y="354" on="1"/>
        <pt x="139" y="218" on="0"/>
        <pt x="260" y="64" on="0"/>
        <pt x="473" y="64" on="0"/>
        <pt x="521" y="119" on="1"/>
        <pt x="546" y="148" on="0"/>
        <pt x="578" y="295" on="0"/>
        <pt x="578" y="366" on="1"/>
      </contour>
    </TTGlyph>
    <TTGlyph name="Ohorn" xMin="42" yMin="-10" xMax="743" yMax="790">
      <contour>
        <pt x="598" y="104" on="1"/>
        <pt x="558" y="51" on="0"/>
        <pt x="424" y="-10" on="0"/>
        <pt x="232" y="-10" on="0"/>
        <pt x="98" y="88" on="0"/>
        <pt x="42" y="248" on="0"/>
        <pt x="42" y="434" on="0"/>
        <pt x="80" y="563" on="0"/>
        <pt x="159" y="669" on="0"/>
        <pt x="293" y="730" on="0"/>
        <pt x="382" y="730" on="1"/>
        <pt x="523" y="730" on="0"/>
        <pt x="598" y="638" on="1"/>
        <pt x="661" y="662" on="0"/>
        <pt x="661" y="727" on="1"/>
        <pt x="661" y="736" on="0"/>
        <pt x="653" y="778" on="1"/>
        <pt x="736" y="790" on="1"/>
        <pt x="743" y="764" on="0"/>
        <pt x="743" y="735" on="1"/>
        <pt x="743" y="640" on="0"/>
        <pt x="626" y="597" on="1"/>
        <pt x="675" y="506" on="0"/>
        <pt x="675" y="208" on="0"/>
      </contour>
      <contour>
        <pt x="578" y="502" on="0"/>
        <pt x="457" y="656" on="0"/>
        <pt x="244" y="656" on="0"/>
        <pt x="196" y="601" on="1"/>
        <pt x="171" y="572" on="0"/>
        <pt x="139" y="425" on="0"/>
        <pt x="139" y="354" on="1"/>
        <pt x="139" y="218" on="0"/>
        <pt x="260" y="64" on="0"/>
        <pt x="473" y="64" on="0"/>
        <pt x="521" y="119" on="1"/>
        <pt x="546" y="148" on="0"/>
        <pt x="578" y="295" on="0"/>
        <pt x="578" y="366" on="1"/>
      </contour>
    </TTGlyph>
    <TTGlyph name="Ohungarumlaut" xMin="42" yMin="-10" xMax="675" yMax="968">
      <contour>
        <pt x="619" y="632" on="0"/>
        <pt x="675" y="472" on="0"/>
        <pt x="675" y="286" on="0"/>
        <pt x="637" y="157" on="0"/>
        <pt x="558" y="51" on="0"/>
        <pt x="424" y="-10" on="0"/>
        <pt x="232" y="-10" on="0"/>
        <pt x="98" y="88" on="0"/>
        <pt x="42" y="248" on="0"/>
        <pt x="42" y="434" on="0"/>
        <pt x="80" y="563" on="0"/>
        <pt x="159" y="669" on="0"/>
        <pt x="293" y="730" on="0"/>
        <pt x="485" y="730" on="0"/>
      </contour>
      <contour>
        <pt x="578" y="502" on="0"/>
        <pt x="457" y="656" on="0"/>
        <pt x="244" y="656" on="0"/>
        <pt x="196" y="601" on="1"/>
        <pt x="171" y="572" on="0"/>
        <pt x="139" y="425" on="0"/>
        <pt x="139" y="354" on="1"/>
        <pt x="139" y="218" on="0"/>
        <pt x="260" y="64" on="0"/>
        <pt x="473" y="64" on="0"/>
        <pt x="521" y="119" on="1"/>
        <pt x="546" y="148" on="0"/>
        <pt x="578" y="295" on="0"/>
        <pt x="578" y="366" on="1"/>
      </contour>
      <contour>
        <pt x="333" y="968" on="1"/>
        <pt x="402" y="924" on="1"/>
        <pt x="304" y="778" on="1"/>
        <pt x="287" y="755" on="0"/>
        <pt x="251" y="755" on="0"/>
        <pt x="223" y="765" on="1"/>
      </contour>
      <contour>
        <pt x="488" y="968" on="1"/>
        <pt x="557" y="924" on="1"/>
        <pt x="459" y="778" on="1"/>
        <pt x="442" y="755" on="0"/>
        <pt x="406" y="755" on="0"/>
        <pt x="378" y="765" on="1"/>
      </contour>
    </TTGlyph>
    <TTGlyph name="Omacron" xMin="42" yMin="-10" xMax="675" yMax="878">
      <contour>
        <pt x="619" y="632" on="0"/>
        <pt x="675" y="472" on="0"/>
        <pt x="675" y="286" on="0"/>
        <pt x="637" y="157" on="0"/>
        <pt x="558" y="51" on="0"/>
        <pt x="424" y="-10" on="0"/>
        <pt x="232" y="-10" on="0"/>
        <pt x="98" y="88" on="0"/>
        <pt x="42" y="248" on="0"/>
        <pt x="42" y="434" on="0"/>
        <pt x="80" y="563" on="0"/>
        <pt x="159" y="669" on="0"/>
        <pt x="293" y="730" on="0"/>
        <pt x="485" y="730" on="0"/>
      </contour>
      <contour>
        <pt x="578" y="502" on="0"/>
        <pt x="457" y="656" on="0"/>
        <pt x="244" y="656" on="0"/>
        <pt x="196" y="601" on="1"/>
        <pt x="171" y="572" on="0"/>
        <pt x="139" y="425" on="0"/>
        <pt x="139" y="354" on="1"/>
        <pt x="139" y="218" on="0"/>
        <pt x="260" y="64" on="0"/>
        <pt x="473" y="64" on="0"/>
        <pt x="521" y="119" on="1"/>
        <pt x="546" y="148" on="0"/>
        <pt x="578" y="295" on="0"/>
        <pt x="578" y="366" on="1"/>
      </contour>
      <contour>
        <pt x="224" y="808" on="1"/>
        <pt x="234" y="878" on="1"/>
        <pt x="501" y="878" on="1"/>
        <pt x="491" y="808" on="1"/>
      </contour>
    </TTGlyph>
    <TTGlyph name="Oslash" xMin="42" yMin="-53" xMax="675" yMax="770">
      <contour>
        <pt x="194" y="-53" on="1"/>
        <pt x="139" y="-27" on="1"/>
        <pt x="168" y="36" on="1"/>
        <pt x="42" y="122" on="0"/>
        <pt x="42" y="360" on="1"/>
        <pt x="42" y="512" on="0"/>
        <pt x="120" y="616" on="1"/>
        <pt x="159" y="669" on="0"/>
        <pt x="293" y="730" on="0"/>
        <pt x="440" y="730" on="0"/>
        <pt x="485" y="715" on="1"/>
        <pt x="511" y="770" on="1"/>
        <pt x="566" y="744" on="1"/>
        <pt x="540" y="689" on="1"/>
        <pt x="675" y="606" on="0"/>
        <pt x="675" y="360" on="1"/>
        <pt x="675" y="208" on="0"/>
        <pt x="598" y="104" on="1"/>
        <pt x="558" y="51" on="0"/>
        <pt x="424" y="-10" on="0"/>
        <pt x="276" y="-10" on="0"/>
        <pt x="222" y="8" on="1"/>
      </contour>
      <contour>
        <pt x="578" y="366" on="1"/>
        <pt x="578" y="524" on="0"/>
        <pt x="499" y="600" on="1"/>
        <pt x="260" y="89" on="1"/>
        <pt x="308" y="64" on="0"/>
        <pt x="371" y="64" on="1"/>
        <pt x="473" y="64" on="0"/>
        <pt x="521" y="119" on="1"/>
        <pt x="546" y="148" on="0"/>
        <pt x="578" y="295" on="0"/>
      </contour>
      <contour>
        <pt x="346" y="656" on="1"/>
        <pt x="244" y="656" on="0"/>
        <pt x="196" y="601" on="1"/>
        <pt x="171" y="572" on="0"/>
        <pt x="139" y="425" on="0"/>
        <pt x="139" y="354" on="1"/>
        <pt x="139" y="202" on="0"/>
        <pt x="211" y="127" on="1"/>
        <pt x="448" y="635" on="1"/>
        <pt x="403" y="656" on="0"/>
      </contour>
    </TTGlyph>
    <TTGlyph name="Oslashacute" xMin="42" yMin="-53" xMax="675" yMax="935">
      <contour>
        <pt x="194" y="-53" on="1"/>
        <pt x="139" y="-27" on="1"/>
        <pt x="168" y="36" on="1"/>
        <pt x="42" y="122" on="0"/>
        <pt x="42" y="360" on="1"/>
        <pt x="42" y="512" on="0"/>
        <pt x="120" y="616" on="1"/>
        <pt x="159" y="669" on="0"/>
        <pt x="293" y="730" on="0"/>
        <pt x="440" y="730" on="0"/>
        <pt x="485" y="715" on="1"/>
        <pt x="511" y="770" on="1"/>
        <pt x="566" y="744" on="1"/>
        <pt x="540" y="689" on="1"/>
        <pt x="675" y="606" on="0"/>
        <pt x="675" y="360" on="1"/>
        <pt x="675" y="208" on="0"/>
        <pt x="598" y="104" on="1"/>
        <pt x="558" y="51" on="0"/>
        <pt x="424" y="-10" on="0"/>
        <pt x="276" y="-10" on="0"/>
        <pt x="222" y="8" on="1"/>
      </contour>
      <contour>
        <pt x="578" y="366" on="1"/>
        <pt x="578" y="524" on="0"/>
        <pt x="499" y="600" on="1"/>
        <pt x="260" y="89" on="1"/>
        <pt x="308" y="64" on="0"/>
        <pt x="371" y="64" on="1"/>
        <pt x="473" y="64" on="0"/>
        <pt x="521" y="119" on="1"/>
        <pt x="546" y="148" on="0"/>
        <pt x="578" y="295" on="0"/>
      </contour>
      <contour>
        <pt x="346" y="656" on="1"/>
        <pt x="244" y="656" on="0"/>
        <pt x="196" y="601" on="1"/>
        <pt x="171" y="572" on="0"/>
        <pt x="139" y="425" on="0"/>
        <pt x="139" y="354" on="1"/>
        <pt x="139" y="202" on="0"/>
        <pt x="211" y="127" on="1"/>
        <pt x="448" y="635" on="1"/>
        <pt x="403" y="656" on="0"/>
      </contour>
      <contour>
        <pt x="482" y="935" on="1"/>
        <pt x="531" y="868" on="1"/>
        <pt x="378" y="764" on="1"/>
        <pt x="362" y="754" on="0"/>
        <pt x="351" y="754" on="1"/>
        <pt x="328" y="754" on="0"/>
        <pt x="303" y="783" on="1"/>
      </contour>
    </TTGlyph>
    <TTGlyph name="Otilde" xMin="42" yMin="-10" xMax="675" yMax="880">
      <contour>
        <pt x="619" y="632" on="0"/>
        <pt x="675" y="472" on="0"/>
        <pt x="675" y="286" on="0"/>
        <pt x="637" y="157" on="0"/>
        <pt x="558" y="51" on="0"/>
        <pt x="424" y="-10" on="0"/>
        <pt x="232" y="-10" on="0"/>
        <pt x="98" y="88" on="0"/>
        <pt x="42" y="248" on="0"/>
        <pt x="42" y="434" on="0"/>
        <pt x="80" y="563" on="0"/>
        <pt x="159" y="669" on="0"/>
        <pt x="293" y="730" on="0"/>
        <pt x="485" y="730" on="0"/>
      </contour>
      <contour>
        <pt x="578" y="502" on="0"/>
        <pt x="457" y="656" on="0"/>
        <pt x="244" y="656" on="0"/>
        <pt x="196" y="601" on="1"/>
        <pt x="171" y="572" on="0"/>
        <pt x="139" y="425" on="0"/>
        <pt x="139" y="354" on="1"/>
        <pt x="139" y="218" on="0"/>
        <pt x="260" y="64" on="0"/>
        <pt x="473" y="64" on="0"/>
        <pt x="521" y="119" on="1"/>
        <pt x="546" y="148" on="0"/>
        <pt x="578" y="295" on="0"/>
        <pt x="578" y="366" on="1"/>
      </contour>
      <contour>
        <pt x="398" y="774" on="0"/>
        <pt x="309" y="811" on="0"/>
        <pt x="257" y="811" on="0"/>
        <pt x="219" y="780" on="1"/>
        <pt x="204" y="822" on="1"/>
        <pt x="245" y="880" on="0"/>
        <pt x="294" y="880" on="1"/>
        <pt x="324" y="880" on="0"/>
        <pt x="412" y="845" on="0"/>
        <pt x="466" y="845" on="0"/>
        <pt x="498" y="872" on="1"/>
        <pt x="514" y="832" on="1"/>
        <pt x="474" y="774" on="0"/>
        <pt x="425" y="774" on="1"/>
      </contour>
    </TTGlyph>
    <TTGlyph name="P" xMin="58" yMin="0" xMax="554" yMax="720">
      <contour>
        <pt x="226" y="650" on="1"/>
        <pt x="226" y="349" on="1"/>
        <pt x="295" y="349" on="1"/>
        <pt x="376" y="349" on="0"/>
        <pt x="434" y="396" on="0"/>
        <pt x="457" y="464" on="0"/>
        <pt x="457" y="524" on="1"/>
        <pt x="457" y="650" on="0"/>
        <pt x="312" y="650" on="1"/>
      </contour>
      <contour>
        <pt x="140" y="106" on="1"/>
        <pt x="140" y="614" on="1"/>
        <pt x="140" y="634" on="0"/>
        <pt x="129" y="649" on="0"/>
        <pt x="111" y="652" on="1"/>
        <pt x="58" y="661" on="1"/>
        <pt x="58" y="720" on="1"/>
        <pt x="321" y="720" on="1"/>
        <pt x="435" y="720" on="0"/>
        <pt x="554" y="639" on="0"/>
        <pt x="554" y="418" on="0"/>
        <pt x="400" y="279" on="0"/>
        <pt x="298" y="279" on="1"/>
        <pt x="226" y="279" on="1"/>
        <pt x="226" y="106" on="1"/>
        <pt x="226" y="86" on="0"/>
        <pt x="238" y="70" on="0"/>
        <pt x="256" y="68" on="1"/>
        <pt x="327" y="60" on="1"/>
        <pt x="327" y="0" on="1"/>
        <pt x="58" y="0" on="1"/>
        <pt x="58" y="59" on="1"/>
        <pt x="111" y="68" on="1"/>
        <pt x="129" y="71" on="0"/>
        <pt x="140" y="86" on="0"/>
      </contour>
    </TTGlyph>
    <TTGlyph name="Q" xMin="42" yMin="-187" xMax="701" yMax="730">
      <contour>
        <pt x="388" y="-49" on="0"/>
        <pt x="573" y="-109" on="0"/>
        <pt x="646" y="-109" on="0"/>
        <pt x="686" y="-89" on="1"/>
        <pt x="701" y="-142" on="1"/>
        <pt x="691" y="-153" on="0"/>
        <pt x="631" y="-187" on="0"/>
        <pt x="535" y="-187" on="0"/>
        <pt x="350" y="-121" on="0"/>
        <pt x="271" y="-121" on="0"/>
        <pt x="226" y="-134" on="1"/>
        <pt x="206" y="-82" on="1"/>
        <pt x="269" y="-49" on="0"/>
      </contour>
      <contour>
        <pt x="619" y="632" on="0"/>
        <pt x="675" y="472" on="0"/>
        <pt x="675" y="286" on="0"/>
        <pt x="637" y="157" on="0"/>
        <pt x="558" y="51" on="0"/>
        <pt x="424" y="-10" on="0"/>
        <pt x="232" y="-10" on="0"/>
        <pt x="98" y="88" on="0"/>
        <pt x="42" y="248" on="0"/>
        <pt x="42" y="434" on="0"/>
        <pt x="80" y="563" on="0"/>
        <pt x="159" y="669" on="0"/>
        <pt x="293" y="730" on="0"/>
        <pt x="485" y="730" on="0"/>
      </contour>
      <contour>
        <pt x="578" y="502" on="0"/>
        <pt x="457" y="656" on="0"/>
        <pt x="244" y="656" on="0"/>
        <pt x="196" y="601" on="1"/>
        <pt x="171" y="572" on="0"/>
        <pt x="139" y="425" on="0"/>
        <pt x="139" y="354" on="1"/>
        <pt x="139" y="218" on="0"/>
        <pt x="260" y="64" on="0"/>
        <pt x="473" y="64" on="0"/>
        <pt x="521" y="119" on="1"/>
        <pt x="546" y="148" on="0"/>
        <pt x="578" y="295" on="0"/>
        <pt x="578" y="366" on="1"/>
      </contour>
    </TTGlyph>
    <TTGlyph name="R" xMin="58" yMin="-10" xMax="658" yMax="720">
      <contour>
        <pt x="226" y="650" on="1"/>
        <pt x="226" y="397" on="1"/>
        <pt x="315" y="397" on="1"/>
        <pt x="383" y="397" on="0"/>
        <pt x="413" y="422" on="1"/>
        <pt x="453" y="455" on="0"/>
        <pt x="453" y="530" on="1"/>
        <pt x="453" y="650" on="0"/>
        <pt x="301" y="650" on="1"/>
      </contour>
      <contour>
        <pt x="226" y="327" on="1"/>
        <pt x="226" y="106" on="1"/>
        <pt x="226" y="86" on="0"/>
        <pt x="238" y="70" on="0"/>
        <pt x="256" y="68" on="1"/>
        <pt x="321" y="60" on="1"/>
        <pt x="321" y="0" on="1"/>
        <pt x="58" y="0" on="1"/>
        <pt x="58" y="59" on="1"/>
        <pt x="111" y="68" on="1"/>
        <pt x="129" y="71" on="0"/>
        <pt x="140" y="86" on="0"/>
        <pt x="140" y="106" on="1"/>
        <pt x="140" y="614" on="1"/>
        <pt x="140" y="634" on="0"/>
        <pt x="129" y="649" on="0"/>
        <pt x="111" y="652" on="1"/>
        <pt x="58" y="661" on="1"/>
        <pt x="58" y="720" on="1"/>
        <pt x="321" y="720" on="1"/>
        <pt x="432" y="720" on="0"/>
        <pt x="550" y="638" on="0"/>
        <pt x="550" y="540" on="1"/>
        <pt x="550" y="429" on="0"/>
        <pt x="460" y="378" on="1"/>
        <pt x="415" y="352" on="0"/>
        <pt x="369" y="346" on="1"/>
        <pt x="399" y="339" on="0"/>
        <pt x="434" y="284" on="1"/>
        <pt x="544" y="112" on="1"/>
        <pt x="578" y="59" on="0"/>
        <pt x="623" y="59" on="1"/>
        <pt x="637" y="59" on="0"/>
        <pt x="658" y="66" on="1"/>
        <pt x="653" y="11" on="1"/>
        <pt x="625" y="-10" on="0"/>
        <pt x="574" y="-10" on="1"/>
        <pt x="512" y="-10" on="0"/>
        <pt x="457" y="74" on="1"/>
        <pt x="323" y="287" on="1"/>
        <pt x="297" y="327" on="0"/>
        <pt x="262" y="327" on="1"/>
      </contour>
    </TTGlyph>
    <TTGlyph name="Racute" xMin="58" yMin="-10" xMax="658" yMax="935">
      <contour>
        <pt x="396" y="935" on="1"/>
        <pt x="445" y="868" on="1"/>
        <pt x="292" y="764" on="1"/>
        <pt x="276" y="754" on="0"/>
        <pt x="265" y="754" on="1"/>
        <pt x="242" y="754" on="0"/>
        <pt x="217" y="783" on="1"/>
      </contour>
      <contour>
        <pt x="226" y="650" on="1"/>
        <pt x="226" y="397" on="1"/>
        <pt x="315" y="397" on="1"/>
        <pt x="383" y="397" on="0"/>
        <pt x="413" y="422" on="1"/>
        <pt x="453" y="455" on="0"/>
        <pt x="453" y="530" on="1"/>
        <pt x="453" y="650" on="0"/>
        <pt x="301" y="650" on="1"/>
      </contour>
      <contour>
        <pt x="226" y="327" on="1"/>
        <pt x="226" y="106" on="1"/>
        <pt x="226" y="86" on="0"/>
        <pt x="238" y="70" on="0"/>
        <pt x="256" y="68" on="1"/>
        <pt x="321" y="60" on="1"/>
        <pt x="321" y="0" on="1"/>
        <pt x="58" y="0" on="1"/>
        <pt x="58" y="59" on="1"/>
        <pt x="111" y="68" on="1"/>
        <pt x="129" y="71" on="0"/>
        <pt x="140" y="86" on="0"/>
        <pt x="140" y="106" on="1"/>
        <pt x="140" y="614" on="1"/>
        <pt x="140" y="634" on="0"/>
        <pt x="129" y="649" on="0"/>
        <pt x="111" y="652" on="1"/>
        <pt x="58" y="661" on="1"/>
        <pt x="58" y="720" on="1"/>
        <pt x="321" y="720" on="1"/>
        <pt x="432" y="720" on="0"/>
        <pt x="550" y="638" on="0"/>
        <pt x="550" y="540" on="1"/>
        <pt x="550" y="429" on="0"/>
        <pt x="460" y="378" on="1"/>
        <pt x="415" y="352" on="0"/>
        <pt x="369" y="346" on="1"/>
        <pt x="399" y="339" on="0"/>
        <pt x="434" y="284" on="1"/>
        <pt x="544" y="112" on="1"/>
        <pt x="578" y="59" on="0"/>
        <pt x="623" y="59" on="1"/>
        <pt x="637" y="59" on="0"/>
        <pt x="658" y="66" on="1"/>
        <pt x="653" y="11" on="1"/>
        <pt x="625" y="-10" on="0"/>
        <pt x="574" y="-10" on="1"/>
        <pt x="512" y="-10" on="0"/>
        <pt x="457" y="74" on="1"/>
        <pt x="323" y="287" on="1"/>
        <pt x="297" y="327" on="0"/>
        <pt x="262" y="327" on="1"/>
      </contour>
    </TTGlyph>
    <TTGlyph name="Rcaron" xMin="58" yMin="-10" xMax="658" yMax="920">
      <contour>
        <pt x="354" y="753" on="1"/>
        <pt x="279" y="753" on="1"/>
        <pt x="164" y="888" on="1"/>
        <pt x="203" y="920" on="1"/>
        <pt x="316" y="814" on="1"/>
        <pt x="430" y="920" on="1"/>
        <pt x="468" y="888" on="1"/>
      </contour>
      <contour>
        <pt x="226" y="650" on="1"/>
        <pt x="226" y="397" on="1"/>
        <pt x="315" y="397" on="1"/>
        <pt x="383" y="397" on="0"/>
        <pt x="413" y="422" on="1"/>
        <pt x="453" y="455" on="0"/>
        <pt x="453" y="530" on="1"/>
        <pt x="453" y="650" on="0"/>
        <pt x="301" y="650" on="1"/>
      </contour>
      <contour>
        <pt x="226" y="327" on="1"/>
        <pt x="226" y="106" on="1"/>
        <pt x="226" y="86" on="0"/>
        <pt x="238" y="70" on="0"/>
        <pt x="256" y="68" on="1"/>
        <pt x="321" y="60" on="1"/>
        <pt x="321" y="0" on="1"/>
        <pt x="58" y="0" on="1"/>
        <pt x="58" y="59" on="1"/>
        <pt x="111" y="68" on="1"/>
        <pt x="129" y="71" on="0"/>
        <pt x="140" y="86" on="0"/>
        <pt x="140" y="106" on="1"/>
        <pt x="140" y="614" on="1"/>
        <pt x="140" y="634" on="0"/>
        <pt x="129" y="649" on="0"/>
        <pt x="111" y="652" on="1"/>
        <pt x="58" y="661" on="1"/>
        <pt x="58" y="720" on="1"/>
        <pt x="321" y="720" on="1"/>
        <pt x="432" y="720" on="0"/>
        <pt x="550" y="638" on="0"/>
        <pt x="550" y="540" on="1"/>
        <pt x="550" y="429" on="0"/>
        <pt x="460" y="378" on="1"/>
        <pt x="415" y="352" on="0"/>
        <pt x="369" y="346" on="1"/>
        <pt x="399" y="339" on="0"/>
        <pt x="434" y="284" on="1"/>
        <pt x="544" y="112" on="1"/>
        <pt x="578" y="59" on="0"/>
        <pt x="623" y="59" on="1"/>
        <pt x="637" y="59" on="0"/>
        <pt x="658" y="66" on="1"/>
        <pt x="653" y="11" on="1"/>
        <pt x="625" y="-10" on="0"/>
        <pt x="574" y="-10" on="1"/>
        <pt x="512" y="-10" on="0"/>
        <pt x="457" y="74" on="1"/>
        <pt x="323" y="287" on="1"/>
        <pt x="297" y="327" on="0"/>
        <pt x="262" y="327" on="1"/>
      </contour>
    </TTGlyph>
    <TTGlyph name="Rcommaaccent" xMin="58" yMin="-250" xMax="658" yMax="720">
      <contour>
        <pt x="226" y="650" on="1"/>
        <pt x="226" y="397" on="1"/>
        <pt x="315" y="397" on="1"/>
        <pt x="383" y="397" on="0"/>
        <pt x="413" y="422" on="1"/>
        <pt x="453" y="455" on="0"/>
        <pt x="453" y="530" on="1"/>
        <pt x="453" y="650" on="0"/>
        <pt x="301" y="650" on="1"/>
      </contour>
      <contour>
        <pt x="226" y="327" on="1"/>
        <pt x="226" y="106" on="1"/>
        <pt x="226" y="86" on="0"/>
        <pt x="238" y="70" on="0"/>
        <pt x="256" y="68" on="1"/>
        <pt x="321" y="60" on="1"/>
        <pt x="321" y="0" on="1"/>
        <pt x="58" y="0" on="1"/>
        <pt x="58" y="59" on="1"/>
        <pt x="111" y="68" on="1"/>
        <pt x="129" y="71" on="0"/>
        <pt x="140" y="86" on="0"/>
        <pt x="140" y="106" on="1"/>
        <pt x="140" y="614" on="1"/>
        <pt x="140" y="634" on="0"/>
        <pt x="129" y="649" on="0"/>
        <pt x="111" y="652" on="1"/>
        <pt x="58" y="661" on="1"/>
        <pt x="58" y="720" on="1"/>
        <pt x="321" y="720" on="1"/>
        <pt x="432" y="720" on="0"/>
        <pt x="550" y="638" on="0"/>
        <pt x="550" y="540" on="1"/>
        <pt x="550" y="429" on="0"/>
        <pt x="460" y="378" on="1"/>
        <pt x="415" y="352" on="0"/>
        <pt x="369" y="346" on="1"/>
        <pt x="399" y="339" on="0"/>
        <pt x="434" y="284" on="1"/>
        <pt x="544" y="112" on="1"/>
        <pt x="578" y="59" on="0"/>
        <pt x="623" y="59" on="1"/>
        <pt x="637" y="59" on="0"/>
        <pt x="658" y="66" on="1"/>
        <pt x="653" y="11" on="1"/>
        <pt x="625" y="-10" on="0"/>
        <pt x="574" y="-10" on="1"/>
        <pt x="512" y="-10" on="0"/>
        <pt x="457" y="74" on="1"/>
        <pt x="323" y="287" on="1"/>
        <pt x="297" y="327" on="0"/>
        <pt x="262" y="327" on="1"/>
      </contour>
      <contour>
        <pt x="369" y="-36" on="1"/>
        <pt x="433" y="-36" on="0"/>
        <pt x="433" y="-114" on="1"/>
        <pt x="433" y="-153" on="0"/>
        <pt x="377" y="-233" on="0"/>
        <pt x="339" y="-250" on="1"/>
        <pt x="316" y="-226" on="1"/>
        <pt x="342" y="-209" on="0"/>
        <pt x="381" y="-163" on="0"/>
        <pt x="381" y="-145" on="1"/>
        <pt x="373" y="-148" on="0"/>
        <pt x="336" y="-148" on="0"/>
        <pt x="311" y="-117" on="0"/>
        <pt x="311" y="-94" on="1"/>
        <pt x="311" y="-36" on="0"/>
      </contour>
    </TTGlyph>
    <TTGlyph name="S" xMin="46" yMin="-10" xMax="514" yMax="729">
      <contour>
        <pt x="131" y="197" on="1"/>
        <pt x="146" y="95" on="1"/>
        <pt x="204" y="60" on="0"/>
        <pt x="341" y="60" on="0"/>
        <pt x="425" y="125" on="0"/>
        <pt x="425" y="228" on="0"/>
        <pt x="374" y="284" on="0"/>
        <pt x="302" y="311" on="1"/>
        <pt x="180" y="357" on="1"/>
        <pt x="119" y="380" on="0"/>
        <pt x="46" y="472" on="0"/>
        <pt x="46" y="539" on="1"/>
        <pt x="46" y="626" on="0"/>
        <pt x="161" y="729" on="0"/>
        <pt x="363" y="729" on="0"/>
        <pt x="476" y="702" on="1"/>
        <pt x="462" y="547" on="1"/>
        <pt x="390" y="547" on="1"/>
        <pt x="375" y="637" on="1"/>
        <pt x="321" y="662" on="0"/>
        <pt x="258" y="662" on="1"/>
        <pt x="138" y="662" on="0"/>
        <pt x="138" y="551" on="1"/>
        <pt x="138" y="506" on="0"/>
        <pt x="190" y="449" on="0"/>
        <pt x="255" y="426" on="1"/>
        <pt x="340" y="396" on="1"/>
        <pt x="416" y="369" on="0"/>
        <pt x="487" y="312" on="0"/>
        <pt x="514" y="246" on="0"/>
        <pt x="514" y="202" on="1"/>
        <pt x="514" y="106" on="0"/>
        <pt x="379" y="-10" on="0"/>
        <pt x="254" y="-10" on="1"/>
        <pt x="169" y="-10" on="0"/>
        <pt x="109" y="12" on="1"/>
        <pt x="88" y="19" on="0"/>
        <pt x="46" y="36" on="1"/>
        <pt x="58" y="197" on="1"/>
      </contour>
    </TTGlyph>
    <TTGlyph name="Sacute" xMin="46" yMin="-10" xMax="514" yMax="952">
      <contour>
        <pt x="131" y="197" on="1"/>
        <pt x="146" y="95" on="1"/>
        <pt x="204" y="60" on="0"/>
        <pt x="341" y="60" on="0"/>
        <pt x="425" y="125" on="0"/>
        <pt x="425" y="228" on="0"/>
        <pt x="374" y="284" on="0"/>
        <pt x="302" y="311" on="1"/>
        <pt x="180" y="357" on="1"/>
        <pt x="119" y="380" on="0"/>
        <pt x="46" y="472" on="0"/>
        <pt x="46" y="539" on="1"/>
        <pt x="46" y="626" on="0"/>
        <pt x="161" y="729" on="0"/>
        <pt x="363" y="729" on="0"/>
        <pt x="476" y="702" on="1"/>
        <pt x="462" y="547" on="1"/>
        <pt x="390" y="547" on="1"/>
        <pt x="375" y="637" on="1"/>
        <pt x="321" y="662" on="0"/>
        <pt x="258" y="662" on="1"/>
        <pt x="138" y="662" on="0"/>
        <pt x="138" y="551" on="1"/>
        <pt x="138" y="506" on="0"/>
        <pt x="190" y="449" on="0"/>
        <pt x="255" y="426" on="1"/>
        <pt x="340" y="396" on="1"/>
        <pt x="416" y="369" on="0"/>
        <pt x="487" y="312" on="0"/>
        <pt x="514" y="246" on="0"/>
        <pt x="514" y="202" on="1"/>
        <pt x="514" y="106" on="0"/>
        <pt x="379" y="-10" on="0"/>
        <pt x="254" y="-10" on="1"/>
        <pt x="169" y="-10" on="0"/>
        <pt x="109" y="12" on="1"/>
        <pt x="88" y="19" on="0"/>
        <pt x="46" y="36" on="1"/>
        <pt x="58" y="197" on="1"/>
      </contour>
      <contour>
        <pt x="396" y="952" on="1"/>
        <pt x="454" y="892" on="1"/>
        <pt x="317" y="768" on="1"/>
        <pt x="302" y="754" on="0"/>
        <pt x="266" y="754" on="0"/>
        <pt x="240" y="776" on="1"/>
      </contour>
    </TTGlyph>
    <TTGlyph name="Scaron" xMin="46" yMin="-10" xMax="514" yMax="921">
      <contour>
        <pt x="318" y="754" on="1"/>
        <pt x="243" y="754" on="1"/>
        <pt x="128" y="889" on="1"/>
        <pt x="167" y="921" on="1"/>
        <pt x="280" y="815" on="1"/>
        <pt x="394" y="921" on="1"/>
        <pt x="432" y="889" on="1"/>
      </contour>
      <contour>
        <pt x="131" y="197" on="1"/>
        <pt x="146" y="95" on="1"/>
        <pt x="204" y="60" on="0"/>
        <pt x="341" y="60" on="0"/>
        <pt x="425" y="125" on="0"/>
        <pt x="425" y="228" on="0"/>
        <pt x="374" y="284" on="0"/>
        <pt x="302" y="311" on="1"/>
        <pt x="180" y="357" on="1"/>
        <pt x="119" y="380" on="0"/>
        <pt x="46" y="472" on="0"/>
        <pt x="46" y="539" on="1"/>
        <pt x="46" y="626" on="0"/>
        <pt x="161" y="729" on="0"/>
        <pt x="363" y="729" on="0"/>
        <pt x="476" y="702" on="1"/>
        <pt x="462" y="547" on="1"/>
        <pt x="390" y="547" on="1"/>
        <pt x="375" y="637" on="1"/>
        <pt x="321" y="662" on="0"/>
        <pt x="258" y="662" on="1"/>
        <pt x="138" y="662" on="0"/>
        <pt x="138" y="551" on="1"/>
        <pt x="138" y="506" on="0"/>
        <pt x="190" y="449" on="0"/>
        <pt x="255" y="426" on="1"/>
        <pt x="340" y="396" on="1"/>
        <pt x="416" y="369" on="0"/>
        <pt x="487" y="312" on="0"/>
        <pt x="514" y="246" on="0"/>
        <pt x="514" y="202" on="1"/>
        <pt x="514" y="106" on="0"/>
        <pt x="379" y="-10" on="0"/>
        <pt x="254" y="-10" on="1"/>
        <pt x="169" y="-10" on="0"/>
        <pt x="109" y="12" on="1"/>
        <pt x="88" y="19" on="0"/>
        <pt x="46" y="36" on="1"/>
        <pt x="58" y="197" on="1"/>
      </contour>
    </TTGlyph>
    <TTGlyph name="Scedilla" xMin="46" yMin="-230" xMax="514" yMax="729">
      <contour>
        <pt x="131" y="197" on="1"/>
        <pt x="146" y="95" on="1"/>
        <pt x="204" y="60" on="0"/>
        <pt x="341" y="60" on="0"/>
        <pt x="425" y="125" on="0"/>
        <pt x="425" y="228" on="0"/>
        <pt x="374" y="284" on="0"/>
        <pt x="302" y="311" on="1"/>
        <pt x="180" y="357" on="1"/>
        <pt x="119" y="380" on="0"/>
        <pt x="46" y="472" on="0"/>
        <pt x="46" y="539" on="1"/>
        <pt x="46" y="626" on="0"/>
        <pt x="161" y="729" on="0"/>
        <pt x="363" y="729" on="0"/>
        <pt x="476" y="702" on="1"/>
        <pt x="462" y="547" on="1"/>
        <pt x="390" y="547" on="1"/>
        <pt x="375" y="637" on="1"/>
        <pt x="321" y="662" on="0"/>
        <pt x="258" y="662" on="1"/>
        <pt x="138" y="662" on="0"/>
        <pt x="138" y="551" on="1"/>
        <pt x="138" y="506" on="0"/>
        <pt x="190" y="449" on="0"/>
        <pt x="255" y="426" on="1"/>
        <pt x="340" y="396" on="1"/>
        <pt x="416" y="369" on="0"/>
        <pt x="487" y="312" on="0"/>
        <pt x="514" y="246" on="0"/>
        <pt x="514" y="202" on="1"/>
        <pt x="514" y="111" on="0"/>
        <pt x="393" y="-3" on="0"/>
        <pt x="280" y="-9" on="1"/>
        <pt x="280" y="-62" on="1"/>
        <pt x="307" y="-71" on="1"/>
        <pt x="339" y="-81" on="0"/>
        <pt x="361" y="-109" on="0"/>
        <pt x="361" y="-134" on="1"/>
        <pt x="361" y="-180" on="0"/>
        <pt x="296" y="-230" on="0"/>
        <pt x="210" y="-230" on="0"/>
        <pt x="165" y="-209" on="1"/>
        <pt x="177" y="-170" on="1"/>
        <pt x="212" y="-184" on="0"/>
        <pt x="249" y="-184" on="1"/>
        <pt x="298" y="-184" on="0"/>
        <pt x="298" y="-136" on="1"/>
        <pt x="298" y="-121" on="0"/>
        <pt x="276" y="-105" on="0"/>
        <pt x="253" y="-100" on="1"/>
        <pt x="216" y="-92" on="1"/>
        <pt x="231" y="-9" on="1"/>
        <pt x="147" y="-6" on="0"/>
        <pt x="46" y="36" on="1"/>
        <pt x="58" y="197" on="1"/>
      </contour>
    </TTGlyph>
    <TTGlyph name="Scircumflex" xMin="46" yMin="-10" xMax="514" yMax="913">
      <contour>
        <pt x="242" y="913" on="1"/>
        <pt x="317" y="913" on="1"/>
        <pt x="431" y="778" on="1"/>
        <pt x="393" y="746" on="1"/>
        <pt x="279" y="852" on="1"/>
        <pt x="166" y="746" on="1"/>
        <pt x="127" y="778" on="1"/>
      </contour>
      <contour>
        <pt x="131" y="197" on="1"/>
        <pt x="146" y="95" on="1"/>
        <pt x="204" y="60" on="0"/>
        <pt x="341" y="60" on="0"/>
        <pt x="425" y="125" on="0"/>
        <pt x="425" y="228" on="0"/>
        <pt x="374" y="284" on="0"/>
        <pt x="302" y="311" on="1"/>
        <pt x="180" y="357" on="1"/>
        <pt x="119" y="380" on="0"/>
        <pt x="46" y="472" on="0"/>
        <pt x="46" y="539" on="1"/>
        <pt x="46" y="626" on="0"/>
        <pt x="161" y="729" on="0"/>
        <pt x="363" y="729" on="0"/>
        <pt x="476" y="702" on="1"/>
        <pt x="462" y="547" on="1"/>
        <pt x="390" y="547" on="1"/>
        <pt x="375" y="637" on="1"/>
        <pt x="321" y="662" on="0"/>
        <pt x="258" y="662" on="1"/>
        <pt x="138" y="662" on="0"/>
        <pt x="138" y="551" on="1"/>
        <pt x="138" y="506" on="0"/>
        <pt x="190" y="449" on="0"/>
        <pt x="255" y="426" on="1"/>
        <pt x="340" y="396" on="1"/>
        <pt x="416" y="369" on="0"/>
        <pt x="487" y="312" on="0"/>
        <pt x="514" y="246" on="0"/>
        <pt x="514" y="202" on="1"/>
        <pt x="514" y="106" on="0"/>
        <pt x="379" y="-10" on="0"/>
        <pt x="254" y="-10" on="1"/>
        <pt x="169" y="-10" on="0"/>
        <pt x="109" y="12" on="1"/>
        <pt x="88" y="19" on="0"/>
        <pt x="46" y="36" on="1"/>
        <pt x="58" y="197" on="1"/>
      </contour>
    </TTGlyph>
    <TTGlyph name="Scommaaccent" xMin="46" yMin="-250" xMax="514" yMax="729">
      <contour>
        <pt x="131" y="197" on="1"/>
        <pt x="146" y="95" on="1"/>
        <pt x="204" y="60" on="0"/>
        <pt x="341" y="60" on="0"/>
        <pt x="425" y="125" on="0"/>
        <pt x="425" y="228" on="0"/>
        <pt x="374" y="284" on="0"/>
        <pt x="302" y="311" on="1"/>
        <pt x="180" y="357" on="1"/>
        <pt x="119" y="380" on="0"/>
        <pt x="46" y="472" on="0"/>
        <pt x="46" y="539" on="1"/>
        <pt x="46" y="626" on="0"/>
        <pt x="161" y="729" on="0"/>
        <pt x="363" y="729" on="0"/>
        <pt x="476" y="702" on="1"/>
        <pt x="462" y="547" on="1"/>
        <pt x="390" y="547" on="1"/>
        <pt x="375" y="637" on="1"/>
        <pt x="321" y="662" on="0"/>
        <pt x="258" y="662" on="1"/>
        <pt x="138" y="662" on="0"/>
        <pt x="138" y="551" on="1"/>
        <pt x="138" y="506" on="0"/>
        <pt x="190" y="449" on="0"/>
        <pt x="255" y="426" on="1"/>
        <pt x="340" y="396" on="1"/>
        <pt x="416" y="369" on="0"/>
        <pt x="487" y="312" on="0"/>
        <pt x="514" y="246" on="0"/>
        <pt x="514" y="202" on="1"/>
        <pt x="514" y="106" on="0"/>
        <pt x="379" y="-10" on="0"/>
        <pt x="254" y="-10" on="1"/>
        <pt x="169" y="-10" on="0"/>
        <pt x="109" y="12" on="1"/>
        <pt x="88" y="19" on="0"/>
        <pt x="46" y="36" on="1"/>
        <pt x="58" y="197" on="1"/>
      </contour>
      <contour>
        <pt x="271" y="-36" on="1"/>
        <pt x="335" y="-36" on="0"/>
        <pt x="335" y="-114" on="1"/>
        <pt x="335" y="-153" on="0"/>
        <pt x="279" y="-233" on="0"/>
        <pt x="241" y="-250" on="1"/>
        <pt x="218" y="-226" on="1"/>
        <pt x="244" y="-209" on="0"/>
        <pt x="283" y="-163" on="0"/>
        <pt x="283" y="-145" on="1"/>
        <pt x="275" y="-148" on="0"/>
        <pt x="238" y="-148" on="0"/>
        <pt x="213" y="-117" on="0"/>
        <pt x="213" y="-94" on="1"/>
        <pt x="213" y="-36" on="0"/>
      </contour>
    </TTGlyph>
    <TTGlyph name="T" xMin="7" yMin="0" xMax="599" yMax="720">
      <contour>
        <pt x="485" y="650" on="1"/>
        <pt x="346" y="650" on="1"/>
        <pt x="346" y="106" on="1"/>
        <pt x="346" y="86" on="0"/>
        <pt x="357" y="71" on="0"/>
        <pt x="375" y="68" on="1"/>
        <pt x="432" y="59" on="1"/>
        <pt x="432" y="0" on="1"/>
        <pt x="174" y="0" on="1"/>
        <pt x="174" y="59" on="1"/>
        <pt x="231" y="68" on="1"/>
        <pt x="249" y="71" on="0"/>
        <pt x="260" y="86" on="0"/>
        <pt x="260" y="106" on="1"/>
        <pt x="260" y="650" on="1"/>
        <pt x="120" y="650" on="1"/>
        <pt x="101" y="650" on="0"/>
        <pt x="84" y="639" on="0"/>
        <pt x="83" y="621" on="1"/>
        <pt x="77" y="548" on="1"/>
        <pt x="13" y="548" on="1"/>
        <pt x="7" y="720" on="1"/>
        <pt x="599" y="720" on="1"/>
        <pt x="593" y="548" on="1"/>
        <pt x="529" y="548" on="1"/>
        <pt x="523" y="621" on="1"/>
        <pt x="522" y="639" on="0"/>
        <pt x="504" y="650" on="0"/>
      </contour>
    </TTGlyph>
    <TTGlyph name="Tbar" xMin="7" yMin="0" xMax="599" yMax="720">
      <contour>
        <pt x="485" y="650" on="1"/>
        <pt x="346" y="650" on="1"/>
        <pt x="346" y="396" on="1"/>
        <pt x="511" y="396" on="1"/>
        <pt x="511" y="331" on="1"/>
        <pt x="346" y="331" on="1"/>
        <pt x="346" y="106" on="1"/>
        <pt x="346" y="86" on="0"/>
        <pt x="357" y="71" on="0"/>
        <pt x="375" y="68" on="1"/>
        <pt x="432" y="59" on="1"/>
        <pt x="432" y="0" on="1"/>
        <pt x="174" y="0" on="1"/>
        <pt x="174" y="59" on="1"/>
        <pt x="231" y="68" on="1"/>
        <pt x="249" y="71" on="0"/>
        <pt x="260" y="86" on="0"/>
        <pt x="260" y="106" on="1"/>
        <pt x="260" y="331" on="1"/>
        <pt x="95" y="331" on="1"/>
        <pt x="95" y="396" on="1"/>
        <pt x="260" y="396" on="1"/>
        <pt x="260" y="650" on="1"/>
        <pt x="120" y="650" on="1"/>
        <pt x="101" y="650" on="0"/>
        <pt x="84" y="639" on="0"/>
        <pt x="83" y="621" on="1"/>
        <pt x="77" y="548" on="1"/>
        <pt x="13" y="548" on="1"/>
        <pt x="7" y="720" on="1"/>
        <pt x="599" y="720" on="1"/>
        <pt x="593" y="548" on="1"/>
        <pt x="529" y="548" on="1"/>
        <pt x="523" y="621" on="1"/>
        <pt x="522" y="639" on="0"/>
        <pt x="504" y="650" on="0"/>
      </contour>
    </TTGlyph>
    <TTGlyph name="Tcaron" xMin="7" yMin="0" xMax="599" yMax="921">
      <contour>
        <pt x="341" y="754" on="1"/>
        <pt x="266" y="754" on="1"/>
        <pt x="151" y="889" on="1"/>
        <pt x="190" y="921" on="1"/>
        <pt x="303" y="815" on="1"/>
        <pt x="417" y="921" on="1"/>
        <pt x="455" y="889" on="1"/>
      </contour>
      <contour>
        <pt x="485" y="650" on="1"/>
        <pt x="346" y="650" on="1"/>
        <pt x="346" y="106" on="1"/>
        <pt x="346" y="86" on="0"/>
        <pt x="357" y="71" on="0"/>
        <pt x="375" y="68" on="1"/>
        <pt x="432" y="59" on="1"/>
        <pt x="432" y="0" on="1"/>
        <pt x="174" y="0" on="1"/>
        <pt x="174" y="59" on="1"/>
        <pt x="231" y="68" on="1"/>
        <pt x="249" y="71" on="0"/>
        <pt x="260" y="86" on="0"/>
        <pt x="260" y="106" on="1"/>
        <pt x="260" y="650" on="1"/>
        <pt x="120" y="650" on="1"/>
        <pt x="101" y="650" on="0"/>
        <pt x="84" y="639" on="0"/>
        <pt x="83" y="621" on="1"/>
        <pt x="77" y="548" on="1"/>
        <pt x="13" y="548" on="1"/>
        <pt x="7" y="720" on="1"/>
        <pt x="599" y="720" on="1"/>
        <pt x="593" y="548" on="1"/>
        <pt x="529" y="548" on="1"/>
        <pt x="523" y="621" on="1"/>
        <pt x="522" y="639" on="0"/>
        <pt x="504" y="650" on="0"/>
      </contour>
    </TTGlyph>
    <TTGlyph name="Tcedilla" xMin="7" yMin="-230" xMax="599" yMax="720">
      <contour>
        <pt x="485" y="650" on="1"/>
        <pt x="346" y="650" on="1"/>
        <pt x="346" y="106" on="1"/>
        <pt x="346" y="86" on="0"/>
        <pt x="357" y="71" on="0"/>
        <pt x="375" y="68" on="1"/>
        <pt x="432" y="59" on="1"/>
        <pt x="432" y="0" on="1"/>
        <pt x="322" y="0" on="1"/>
        <pt x="322" y="-62" on="1"/>
        <pt x="349" y="-71" on="1"/>
        <pt x="381" y="-81" on="0"/>
        <pt x="403" y="-109" on="0"/>
        <pt x="403" y="-134" on="1"/>
        <pt x="403" y="-180" on="0"/>
        <pt x="338" y="-230" on="0"/>
        <pt x="252" y="-230" on="0"/>
        <pt x="207" y="-209" on="1"/>
        <pt x="219" y="-170" on="1"/>
        <pt x="254" y="-184" on="0"/>
        <pt x="291" y="-184" on="1"/>
        <pt x="340" y="-184" on="0"/>
        <pt x="340" y="-136" on="1"/>
        <pt x="340" y="-121" on="0"/>
        <pt x="318" y="-105" on="0"/>
        <pt x="295" y="-100" on="1"/>
        <pt x="258" y="-92" on="1"/>
        <pt x="274" y="0" on="1"/>
        <pt x="174" y="0" on="1"/>
        <pt x="174" y="59" on="1"/>
        <pt x="231" y="68" on="1"/>
        <pt x="249" y="71" on="0"/>
        <pt x="260" y="86" on="0"/>
        <pt x="260" y="106" on="1"/>
        <pt x="260" y="650" on="1"/>
        <pt x="120" y="650" on="1"/>
        <pt x="101" y="650" on="0"/>
        <pt x="84" y="639" on="0"/>
        <pt x="83" y="621" on="1"/>
        <pt x="77" y="548" on="1"/>
        <pt x="13" y="548" on="1"/>
        <pt x="7" y="720" on="1"/>
        <pt x="599" y="720" on="1"/>
        <pt x="593" y="548" on="1"/>
        <pt x="529" y="548" on="1"/>
        <pt x="523" y="621" on="1"/>
        <pt x="522" y="639" on="0"/>
        <pt x="504" y="650" on="0"/>
      </contour>
    </TTGlyph>
    <TTGlyph name="Tcommaaccent" xMin="7" yMin="-250" xMax="599" yMax="720">
      <contour>
        <pt x="485" y="650" on="1"/>
        <pt x="346" y="650" on="1"/>
        <pt x="346" y="106" on="1"/>
        <pt x="346" y="86" on="0"/>
        <pt x="357" y="71" on="0"/>
        <pt x="375" y="68" on="1"/>
        <pt x="432" y="59" on="1"/>
        <pt x="432" y="0" on="1"/>
        <pt x="174" y="0" on="1"/>
        <pt x="174" y="59" on="1"/>
        <pt x="231" y="68" on="1"/>
        <pt x="249" y="71" on="0"/>
        <pt x="260" y="86" on="0"/>
        <pt x="260" y="106" on="1"/>
        <pt x="260" y="650" on="1"/>
        <pt x="120" y="650" on="1"/>
        <pt x="101" y="650" on="0"/>
        <pt x="84" y="639" on="0"/>
        <pt x="83" y="621" on="1"/>
        <pt x="77" y="548" on="1"/>
        <pt x="13" y="548" on="1"/>
        <pt x="7" y="720" on="1"/>
        <pt x="599" y="720" on="1"/>
        <pt x="593" y="548" on="1"/>
        <pt x="529" y="548" on="1"/>
        <pt x="523" y="621" on="1"/>
        <pt x="522" y="639" on="0"/>
        <pt x="504" y="650" on="0"/>
      </contour>
      <contour>
        <pt x="300" y="-36" on="1"/>
        <pt x="364" y="-36" on="0"/>
        <pt x="364" y="-114" on="1"/>
        <pt x="364" y="-153" on="0"/>
        <pt x="308" y="-233" on="0"/>
        <pt x="270" y="-250" on="1"/>
        <pt x="247" y="-226" on="1"/>
        <pt x="273" y="-209" on="0"/>
        <pt x="312" y="-163" on="0"/>
        <pt x="312" y="-145" on="1"/>
        <pt x="304" y="-148" on="0"/>
        <pt x="267" y="-148" on="0"/>
        <pt x="242" y="-117" on="0"/>
        <pt x="242" y="-94" on="1"/>
        <pt x="242" y="-36" on="0"/>
      </contour>
    </TTGlyph>
    <TTGlyph name="Thorn" xMin="56" yMin="0" xMax="541" yMax="720">
      <contour>
        <pt x="306" y="59" on="1"/>
        <pt x="306" y="0" on="1"/>
        <pt x="56" y="0" on="1"/>
        <pt x="56" y="59" on="1"/>
        <pt x="111" y="68" on="1"/>
        <pt x="129" y="71" on="0"/>
        <pt x="140" y="86" on="0"/>
        <pt x="140" y="106" on="1"/>
        <pt x="140" y="614" on="1"/>
        <pt x="140" y="634" on="0"/>
        <pt x="129" y="649" on="0"/>
        <pt x="111" y="652" on="1"/>
        <pt x="56" y="661" on="1"/>
        <pt x="56" y="720" on="1"/>
        <pt x="306" y="720" on="1"/>
        <pt x="306" y="661" on="1"/>
        <pt x="253" y="652" on="1"/>
        <pt x="235" y="649" on="0"/>
        <pt x="224" y="634" on="0"/>
        <pt x="224" y="614" on="1"/>
        <pt x="224" y="594" on="1"/>
        <pt x="321" y="594" on="1"/>
        <pt x="427" y="594" on="0"/>
        <pt x="541" y="516" on="0"/>
        <pt x="541" y="309" on="0"/>
        <pt x="396" y="178" on="0"/>
        <pt x="300" y="178" on="1"/>
        <pt x="224" y="178" on="1"/>
        <pt x="224" y="106" on="1"/>
        <pt x="224" y="86" on="0"/>
        <pt x="235" y="71" on="0"/>
        <pt x="253" y="68" on="1"/>
      </contour>
      <contour>
        <pt x="224" y="241" on="1"/>
        <pt x="297" y="241" on="1"/>
        <pt x="370" y="241" on="0"/>
        <pt x="401" y="265" on="1"/>
        <pt x="448" y="302" on="0"/>
        <pt x="448" y="412" on="1"/>
        <pt x="448" y="533" on="0"/>
        <pt x="312" y="533" on="1"/>
        <pt x="224" y="533" on="1"/>
      </contour>
    </TTGlyph>
    <TTGlyph name="U" xMin="28" yMin="-10" xMax="695" yMax="720">
      <contour>
        <pt x="613" y="614" on="1"/>
        <pt x="613" y="232" on="1"/>
        <pt x="613" y="148" on="0"/>
        <pt x="572" y="92" on="1"/>
        <pt x="500" y="-10" on="0"/>
        <pt x="351" y="-10" on="1"/>
        <pt x="232" y="-10" on="0"/>
        <pt x="110" y="115" on="0"/>
        <pt x="110" y="232" on="1"/>
        <pt x="110" y="614" on="1"/>
        <pt x="110" y="634" on="0"/>
        <pt x="99" y="649" on="0"/>
        <pt x="81" y="652" on="1"/>
        <pt x="28" y="661" on="1"/>
        <pt x="28" y="720" on="1"/>
        <pt x="278" y="720" on="1"/>
        <pt x="278" y="661" on="1"/>
        <pt x="225" y="652" on="1"/>
        <pt x="207" y="649" on="0"/>
        <pt x="196" y="634" on="0"/>
        <pt x="196" y="614" on="1"/>
        <pt x="196" y="248" on="1"/>
        <pt x="196" y="70" on="0"/>
        <pt x="382" y="70" on="1"/>
        <pt x="454" y="70" on="0"/>
        <pt x="531" y="142" on="0"/>
        <pt x="531" y="256" on="1"/>
        <pt x="531" y="614" on="1"/>
        <pt x="531" y="634" on="0"/>
        <pt x="520" y="649" on="0"/>
        <pt x="502" y="652" on="1"/>
        <pt x="449" y="661" on="1"/>
        <pt x="449" y="720" on="1"/>
        <pt x="695" y="720" on="1"/>
        <pt x="695" y="661" on="1"/>
        <pt x="642" y="652" on="1"/>
        <pt x="624" y="649" on="0"/>
        <pt x="613" y="634" on="0"/>
      </contour>
    </TTGlyph>
    <TTGlyph name="Uacute" xMin="28" yMin="-10" xMax="695" yMax="935">
      <contour>
        <pt x="498" y="935" on="1"/>
        <pt x="547" y="868" on="1"/>
        <pt x="394" y="764" on="1"/>
        <pt x="378" y="754" on="0"/>
        <pt x="367" y="754" on="1"/>
        <pt x="344" y="754" on="0"/>
        <pt x="319" y="783" on="1"/>
      </contour>
      <contour>
        <pt x="613" y="614" on="1"/>
        <pt x="613" y="232" on="1"/>
        <pt x="613" y="148" on="0"/>
        <pt x="572" y="92" on="1"/>
        <pt x="500" y="-10" on="0"/>
        <pt x="351" y="-10" on="1"/>
        <pt x="232" y="-10" on="0"/>
        <pt x="110" y="115" on="0"/>
        <pt x="110" y="232" on="1"/>
        <pt x="110" y="614" on="1"/>
        <pt x="110" y="634" on="0"/>
        <pt x="99" y="649" on="0"/>
        <pt x="81" y="652" on="1"/>
        <pt x="28" y="661" on="1"/>
        <pt x="28" y="720" on="1"/>
        <pt x="278" y="720" on="1"/>
        <pt x="278" y="661" on="1"/>
        <pt x="225" y="652" on="1"/>
        <pt x="207" y="649" on="0"/>
        <pt x="196" y="634" on="0"/>
        <pt x="196" y="614" on="1"/>
        <pt x="196" y="248" on="1"/>
        <pt x="196" y="70" on="0"/>
        <pt x="382" y="70" on="1"/>
        <pt x="454" y="70" on="0"/>
        <pt x="531" y="142" on="0"/>
        <pt x="531" y="256" on="1"/>
        <pt x="531" y="614" on="1"/>
        <pt x="531" y="634" on="0"/>
        <pt x="520" y="649" on="0"/>
        <pt x="502" y="652" on="1"/>
        <pt x="449" y="661" on="1"/>
        <pt x="449" y="720" on="1"/>
        <pt x="695" y="720" on="1"/>
        <pt x="695" y="661" on="1"/>
        <pt x="642" y="652" on="1"/>
        <pt x="624" y="649" on="0"/>
        <pt x="613" y="634" on="0"/>
      </contour>
    </TTGlyph>
    <TTGlyph name="Ubreve" xMin="28" yMin="-10" xMax="695" yMax="903">
      <contour>
        <pt x="613" y="614" on="1"/>
        <pt x="613" y="232" on="1"/>
        <pt x="613" y="148" on="0"/>
        <pt x="572" y="92" on="1"/>
        <pt x="500" y="-10" on="0"/>
        <pt x="351" y="-10" on="1"/>
        <pt x="232" y="-10" on="0"/>
        <pt x="110" y="115" on="0"/>
        <pt x="110" y="232" on="1"/>
        <pt x="110" y="614" on="1"/>
        <pt x="110" y="634" on="0"/>
        <pt x="99" y="649" on="0"/>
        <pt x="81" y="652" on="1"/>
        <pt x="28" y="661" on="1"/>
        <pt x="28" y="720" on="1"/>
        <pt x="278" y="720" on="1"/>
        <pt x="278" y="661" on="1"/>
        <pt x="225" y="652" on="1"/>
        <pt x="207" y="649" on="0"/>
        <pt x="196" y="634" on="0"/>
        <pt x="196" y="614" on="1"/>
        <pt x="196" y="248" on="1"/>
        <pt x="196" y="70" on="0"/>
        <pt x="382" y="70" on="1"/>
        <pt x="454" y="70" on="0"/>
        <pt x="531" y="142" on="0"/>
        <pt x="531" y="256" on="1"/>
        <pt x="531" y="614" on="1"/>
        <pt x="531" y="634" on="0"/>
        <pt x="520" y="649" on="0"/>
        <pt x="502" y="652" on="1"/>
        <pt x="449" y="661" on="1"/>
        <pt x="449" y="720" on="1"/>
        <pt x="695" y="720" on="1"/>
        <pt x="695" y="661" on="1"/>
        <pt x="642" y="652" on="1"/>
        <pt x="624" y="649" on="0"/>
        <pt x="613" y="634" on="0"/>
      </contour>
      <contour>
        <pt x="464" y="903" on="1"/>
        <pt x="512" y="888" on="1"/>
        <pt x="496" y="835" on="0"/>
        <pt x="419" y="768" on="0"/>
        <pt x="305" y="768" on="0"/>
        <pt x="228" y="835" on="0"/>
        <pt x="212" y="888" on="1"/>
        <pt x="260" y="903" on="1"/>
        <pt x="277" y="874" on="0"/>
        <pt x="330" y="834" on="0"/>
        <pt x="394" y="834" on="0"/>
        <pt x="447" y="874" on="0"/>
      </contour>
    </TTGlyph>
    <TTGlyph name="Ucircumflex" xMin="28" yMin="-10" xMax="695" yMax="913">
      <contour>
        <pt x="327" y="913" on="1"/>
        <pt x="402" y="913" on="1"/>
        <pt x="516" y="778" on="1"/>
        <pt x="478" y="746" on="1"/>
        <pt x="364" y="852" on="1"/>
        <pt x="251" y="746" on="1"/>
        <pt x="212" y="778" on="1"/>
      </contour>
      <contour>
        <pt x="613" y="614" on="1"/>
        <pt x="613" y="232" on="1"/>
        <pt x="613" y="148" on="0"/>
        <pt x="572" y="92" on="1"/>
        <pt x="500" y="-10" on="0"/>
        <pt x="351" y="-10" on="1"/>
        <pt x="232" y="-10" on="0"/>
        <pt x="110" y="115" on="0"/>
        <pt x="110" y="232" on="1"/>
        <pt x="110" y="614" on="1"/>
        <pt x="110" y="634" on="0"/>
        <pt x="99" y="649" on="0"/>
        <pt x="81" y="652" on="1"/>
        <pt x="28" y="661" on="1"/>
        <pt x="28" y="720" on="1"/>
        <pt x="278" y="720" on="1"/>
        <pt x="278" y="661" on="1"/>
        <pt x="225" y="652" on="1"/>
        <pt x="207" y="649" on="0"/>
        <pt x="196" y="634" on="0"/>
        <pt x="196" y="614" on="1"/>
        <pt x="196" y="248" on="1"/>
        <pt x="196" y="70" on="0"/>
        <pt x="382" y="70" on="1"/>
        <pt x="454" y="70" on="0"/>
        <pt x="531" y="142" on="0"/>
        <pt x="531" y="256" on="1"/>
        <pt x="531" y="614" on="1"/>
        <pt x="531" y="634" on="0"/>
        <pt x="520" y="649" on="0"/>
        <pt x="502" y="652" on="1"/>
        <pt x="449" y="661" on="1"/>
        <pt x="449" y="720" on="1"/>
        <pt x="695" y="720" on="1"/>
        <pt x="695" y="661" on="1"/>
        <pt x="642" y="652" on="1"/>
        <pt x="624" y="649" on="0"/>
        <pt x="613" y="634" on="0"/>
      </contour>
    </TTGlyph>
    <TTGlyph name="Udieresis" xMin="28" yMin="-10" xMax="695" yMax="892">
      <contour>
        <pt x="613" y="614" on="1"/>
        <pt x="613" y="232" on="1"/>
        <pt x="613" y="148" on="0"/>
        <pt x="572" y="92" on="1"/>
        <pt x="500" y="-10" on="0"/>
        <pt x="351" y="-10" on="1"/>
        <pt x="232" y="-10" on="0"/>
        <pt x="110" y="115" on="0"/>
        <pt x="110" y="232" on="1"/>
        <pt x="110" y="614" on="1"/>
        <pt x="110" y="634" on="0"/>
        <pt x="99" y="649" on="0"/>
        <pt x="81" y="652" on="1"/>
        <pt x="28" y="661" on="1"/>
        <pt x="28" y="720" on="1"/>
        <pt x="278" y="720" on="1"/>
        <pt x="278" y="661" on="1"/>
        <pt x="225" y="652" on="1"/>
        <pt x="207" y="649" on="0"/>
        <pt x="196" y="634" on="0"/>
        <pt x="196" y="614" on="1"/>
        <pt x="196" y="248" on="1"/>
        <pt x="196" y="70" on="0"/>
        <pt x="382" y="70" on="1"/>
        <pt x="454" y="70" on="0"/>
        <pt x="531" y="142" on="0"/>
        <pt x="531" y="256" on="1"/>
        <pt x="531" y="614" on="1"/>
        <pt x="531" y="634" on="0"/>
        <pt x="520" y="649" on="0"/>
        <pt x="502" y="652" on="1"/>
        <pt x="449" y="661" on="1"/>
        <pt x="449" y="720" on="1"/>
        <pt x="695" y="720" on="1"/>
        <pt x="695" y="661" on="1"/>
        <pt x="642" y="652" on="1"/>
        <pt x="624" y="649" on="0"/>
        <pt x="613" y="634" on="0"/>
      </contour>
      <contour>
        <pt x="295" y="892" on="0"/>
        <pt x="315" y="865" on="0"/>
        <pt x="315" y="802" on="0"/>
        <pt x="288" y="780" on="0"/>
        <pt x="226" y="780" on="0"/>
        <pt x="203" y="804" on="0"/>
        <pt x="203" y="864" on="0"/>
        <pt x="230" y="892" on="0"/>
      </contour>
      <contour>
        <pt x="500" y="892" on="0"/>
        <pt x="520" y="865" on="0"/>
        <pt x="520" y="802" on="0"/>
        <pt x="493" y="780" on="0"/>
        <pt x="431" y="780" on="0"/>
        <pt x="408" y="804" on="0"/>
        <pt x="408" y="864" on="0"/>
        <pt x="435" y="892" on="0"/>
      </contour>
    </TTGlyph>
    <TTGlyph name="Ugrave" xMin="28" yMin="-10" xMax="695" yMax="935">
      <contour>
        <pt x="186" y="868" on="1"/>
        <pt x="235" y="935" on="1"/>
        <pt x="414" y="783" on="1"/>
        <pt x="389" y="754" on="0"/>
        <pt x="366" y="754" on="1"/>
        <pt x="355" y="754" on="0"/>
        <pt x="339" y="764" on="1"/>
      </contour>
      <contour>
        <pt x="613" y="614" on="1"/>
        <pt x="613" y="232" on="1"/>
        <pt x="613" y="148" on="0"/>
        <pt x="572" y="92" on="1"/>
        <pt x="500" y="-10" on="0"/>
        <pt x="351" y="-10" on="1"/>
        <pt x="232" y="-10" on="0"/>
        <pt x="110" y="115" on="0"/>
        <pt x="110" y="232" on="1"/>
        <pt x="110" y="614" on="1"/>
        <pt x="110" y="634" on="0"/>
        <pt x="99" y="649" on="0"/>
        <pt x="81" y="652" on="1"/>
        <pt x="28" y="661" on="1"/>
        <pt x="28" y="720" on="1"/>
        <pt x="278" y="720" on="1"/>
        <pt x="278" y="661" on="1"/>
        <pt x="225" y="652" on="1"/>
        <pt x="207" y="649" on="0"/>
        <pt x="196" y="634" on="0"/>
        <pt x="196" y="614" on="1"/>
        <pt x="196" y="248" on="1"/>
        <pt x="196" y="70" on="0"/>
        <pt x="382" y="70" on="1"/>
        <pt x="454" y="70" on="0"/>
        <pt x="531" y="142" on="0"/>
        <pt x="531" y="256" on="1"/>
        <pt x="531" y="614" on="1"/>
        <pt x="531" y="634" on="0"/>
        <pt x="520" y="649" on="0"/>
        <pt x="502" y="652" on="1"/>
        <pt x="449" y="661" on="1"/>
        <pt x="449" y="720" on="1"/>
        <pt x="695" y="720" on="1"/>
        <pt x="695" y="661" on="1"/>
        <pt x="642" y="652" on="1"/>
        <pt x="624" y="649" on="0"/>
        <pt x="613" y="634" on="0"/>
      </contour>
    </TTGlyph>
    <TTGlyph name="Uhorn" xMin="29" yMin="-10" xMax="764" yMax="833">
      <contour>
        <pt x="674" y="821" on="1"/>
        <pt x="757" y="833" on="1"/>
        <pt x="764" y="807" on="0"/>
        <pt x="764" y="778" on="1"/>
        <pt x="764" y="718" on="0"/>
        <pt x="678" y="646" on="0"/>
        <pt x="615" y="630" on="1"/>
        <pt x="614" y="626" on="0"/>
        <pt x="614" y="614" on="1"/>
        <pt x="614" y="232" on="1"/>
        <pt x="614" y="148" on="0"/>
        <pt x="574" y="92" on="1"/>
        <pt x="501" y="-10" on="0"/>
        <pt x="352" y="-10" on="1"/>
        <pt x="233" y="-10" on="0"/>
        <pt x="111" y="115" on="0"/>
        <pt x="111" y="232" on="1"/>
        <pt x="111" y="614" on="1"/>
        <pt x="111" y="634" on="0"/>
        <pt x="100" y="649" on="0"/>
        <pt x="82" y="652" on="1"/>
        <pt x="29" y="661" on="1"/>
        <pt x="29" y="720" on="1"/>
        <pt x="279" y="720" on="1"/>
        <pt x="279" y="661" on="1"/>
        <pt x="226" y="652" on="1"/>
        <pt x="208" y="649" on="0"/>
        <pt x="197" y="634" on="0"/>
        <pt x="197" y="614" on="1"/>
        <pt x="197" y="248" on="1"/>
        <pt x="197" y="70" on="0"/>
        <pt x="383" y="70" on="1"/>
        <pt x="455" y="70" on="0"/>
        <pt x="532" y="142" on="0"/>
        <pt x="532" y="256" on="1"/>
        <pt x="532" y="614" on="1"/>
        <pt x="532" y="634" on="0"/>
        <pt x="521" y="649" on="0"/>
        <pt x="503" y="652" on="1"/>
        <pt x="450" y="661" on="1"/>
        <pt x="450" y="720" on="1"/>
        <pt x="670" y="720" on="1"/>
        <pt x="682" y="742" on="0"/>
        <pt x="682" y="779" on="0"/>
      </contour>
    </TTGlyph>
    <TTGlyph name="Uhungarumlaut" xMin="28" yMin="-10" xMax="695" yMax="968">
      <contour>
        <pt x="613" y="614" on="1"/>
        <pt x="613" y="232" on="1"/>
        <pt x="613" y="148" on="0"/>
        <pt x="572" y="92" on="1"/>
        <pt x="500" y="-10" on="0"/>
        <pt x="351" y="-10" on="1"/>
        <pt x="232" y="-10" on="0"/>
        <pt x="110" y="115" on="0"/>
        <pt x="110" y="232" on="1"/>
        <pt x="110" y="614" on="1"/>
        <pt x="110" y="634" on="0"/>
        <pt x="99" y="649" on="0"/>
        <pt x="81" y="652" on="1"/>
        <pt x="28" y="661" on="1"/>
        <pt x="28" y="720" on="1"/>
        <pt x="278" y="720" on="1"/>
        <pt x="278" y="661" on="1"/>
        <pt x="225" y="652" on="1"/>
        <pt x="207" y="649" on="0"/>
        <pt x="196" y="634" on="0"/>
        <pt x="196" y="614" on="1"/>
        <pt x="196" y="248" on="1"/>
        <pt x="196" y="70" on="0"/>
        <pt x="382" y="70" on="1"/>
        <pt x="454" y="70" on="0"/>
        <pt x="531" y="142" on="0"/>
        <pt x="531" y="256" on="1"/>
        <pt x="531" y="614" on="1"/>
        <pt x="531" y="634" on="0"/>
        <pt x="520" y="649" on="0"/>
        <pt x="502" y="652" on="1"/>
        <pt x="449" y="661" on="1"/>
        <pt x="449" y="720" on="1"/>
        <pt x="695" y="720" on="1"/>
        <pt x="695" y="661" on="1"/>
        <pt x="642" y="652" on="1"/>
        <pt x="624" y="649" on="0"/>
        <pt x="613" y="634" on="0"/>
      </contour>
      <contour>
        <pt x="353" y="968" on="1"/>
        <pt x="422" y="924" on="1"/>
        <pt x="324" y="778" on="1"/>
        <pt x="307" y="755" on="0"/>
        <pt x="271" y="755" on="0"/>
        <pt x="243" y="765" on="1"/>
      </contour>
      <contour>
        <pt x="508" y="968" on="1"/>
        <pt x="577" y="924" on="1"/>
        <pt x="479" y="778" on="1"/>
        <pt x="462" y="755" on="0"/>
        <pt x="426" y="755" on="0"/>
        <pt x="398" y="765" on="1"/>
      </contour>
    </TTGlyph>
    <TTGlyph name="Umacron" xMin="28" yMin="-10" xMax="695" yMax="878">
      <contour>
        <pt x="613" y="614" on="1"/>
        <pt x="613" y="232" on="1"/>
        <pt x="613" y="148" on="0"/>
        <pt x="572" y="92" on="1"/>
        <pt x="500" y="-10" on="0"/>
        <pt x="351" y="-10" on="1"/>
        <pt x="232" y="-10" on="0"/>
        <pt x="110" y="115" on="0"/>
        <pt x="110" y="232" on="1"/>
        <pt x="110" y="614" on="1"/>
        <pt x="110" y="634" on="0"/>
        <pt x="99" y="649" on="0"/>
        <pt x="81" y="652" on="1"/>
        <pt x="28" y="661" on="1"/>
        <pt x="28" y="720" on="1"/>
        <pt x="278" y="720" on="1"/>
        <pt x="278" y="661" on="1"/>
        <pt x="225" y="652" on="1"/>
        <pt x="207" y="649" on="0"/>
        <pt x="196" y="634" on="0"/>
        <pt x="196" y="614" on="1"/>
        <pt x="196" y="248" on="1"/>
        <pt x="196" y="70" on="0"/>
        <pt x="382" y="70" on="1"/>
        <pt x="454" y="70" on="0"/>
        <pt x="531" y="142" on="0"/>
        <pt x="531" y="256" on="1"/>
        <pt x="531" y="614" on="1"/>
        <pt x="531" y="634" on="0"/>
        <pt x="520" y="649" on="0"/>
        <pt x="502" y="652" on="1"/>
        <pt x="449" y="661" on="1"/>
        <pt x="449" y="720" on="1"/>
        <pt x="695" y="720" on="1"/>
        <pt x="695" y="661" on="1"/>
        <pt x="642" y="652" on="1"/>
        <pt x="624" y="649" on="0"/>
        <pt x="613" y="634" on="0"/>
      </contour>
      <contour>
        <pt x="227" y="808" on="1"/>
        <pt x="237" y="878" on="1"/>
        <pt x="504" y="878" on="1"/>
        <pt x="494" y="808" on="1"/>
      </contour>
    </TTGlyph>
    <TTGlyph name="Uogonek" xMin="28" yMin="-225" xMax="695" yMax="720">
      <contour>
        <pt x="613" y="614" on="1"/>
        <pt x="613" y="232" on="1"/>
        <pt x="613" y="135" on="0"/>
        <pt x="512" y="20" on="0"/>
        <pt x="434" y="0" on="1"/>
        <pt x="427" y="-3" on="0"/>
        <pt x="371" y="-40" on="0"/>
        <pt x="359" y="-50" on="1"/>
        <pt x="311" y="-87" on="0"/>
        <pt x="311" y="-139" on="0"/>
        <pt x="337" y="-170" on="0"/>
        <pt x="380" y="-170" on="0"/>
        <pt x="425" y="-157" on="1"/>
        <pt x="437" y="-198" on="1"/>
        <pt x="436" y="-198" on="0"/>
        <pt x="410" y="-210" on="0"/>
        <pt x="400" y="-214" on="1"/>
        <pt x="367" y="-225" on="0"/>
        <pt x="340" y="-225" on="1"/>
        <pt x="296" y="-225" on="0"/>
        <pt x="245" y="-167" on="0"/>
        <pt x="245" y="-100" on="0"/>
        <pt x="274" y="-54" on="0"/>
        <pt x="304" y="-31" on="0"/>
        <pt x="336" y="-10" on="1"/>
        <pt x="224" y="-6" on="0"/>
        <pt x="110" y="119" on="0"/>
        <pt x="110" y="232" on="1"/>
        <pt x="110" y="614" on="1"/>
        <pt x="110" y="634" on="0"/>
        <pt x="99" y="649" on="0"/>
        <pt x="81" y="652" on="1"/>
        <pt x="28" y="661" on="1"/>
        <pt x="28" y="720" on="1"/>
        <pt x="278" y="720" on="1"/>
        <pt x="278" y="661" on="1"/>
        <pt x="225" y="652" on="1"/>
        <pt x="207" y="649" on="0"/>
        <pt x="196" y="634" on="0"/>
        <pt x="196" y="614" on="1"/>
        <pt x="196" y="248" on="1"/>
        <pt x="196" y="70" on="0"/>
        <pt x="382" y="70" on="1"/>
        <pt x="454" y="70" on="0"/>
        <pt x="531" y="142" on="0"/>
        <pt x="531" y="256" on="1"/>
        <pt x="531" y="614" on="1"/>
        <pt x="531" y="634" on="0"/>
        <pt x="520" y="649" on="0"/>
        <pt x="502" y="652" on="1"/>
        <pt x="449" y="661" on="1"/>
        <pt x="449" y="720" on="1"/>
        <pt x="695" y="720" on="1"/>
        <pt x="695" y="661" on="1"/>
        <pt x="642" y="652" on="1"/>
        <pt x="624" y="649" on="0"/>
        <pt x="613" y="634" on="0"/>
      </contour>
    </TTGlyph>
    <TTGlyph name="Uring" xMin="28" yMin="-10" xMax="695" yMax="942">
      <contour>
        <pt x="613" y="614" on="1"/>
        <pt x="613" y="232" on="1"/>
        <pt x="613" y="148" on="0"/>
        <pt x="572" y="92" on="1"/>
        <pt x="500" y="-10" on="0"/>
        <pt x="351" y="-10" on="1"/>
        <pt x="232" y="-10" on="0"/>
        <pt x="110" y="115" on="0"/>
        <pt x="110" y="232" on="1"/>
        <pt x="110" y="614" on="1"/>
        <pt x="110" y="634" on="0"/>
        <pt x="99" y="649" on="0"/>
        <pt x="81" y="652" on="1"/>
        <pt x="28" y="661" on="1"/>
        <pt x="28" y="720" on="1"/>
        <pt x="278" y="720" on="1"/>
        <pt x="278" y="661" on="1"/>
        <pt x="225" y="652" on="1"/>
        <pt x="207" y="649" on="0"/>
        <pt x="196" y="634" on="0"/>
        <pt x="196" y="614" on="1"/>
        <pt x="196" y="248" on="1"/>
        <pt x="196" y="70" on="0"/>
        <pt x="382" y="70" on="1"/>
        <pt x="454" y="70" on="0"/>
        <pt x="531" y="142" on="0"/>
        <pt x="531" y="256" on="1"/>
        <pt x="531" y="614" on="1"/>
        <pt x="531" y="634" on="0"/>
        <pt x="520" y="649" on="0"/>
        <pt x="502" y="652" on="1"/>
        <pt x="449" y="661" on="1"/>
        <pt x="449" y="720" on="1"/>
        <pt x="695" y="720" on="1"/>
        <pt x="695" y="661" on="1"/>
        <pt x="642" y="652" on="1"/>
        <pt x="624" y="649" on="0"/>
        <pt x="613" y="634" on="0"/>
      </contour>
      <contour>
        <pt x="457" y="887" on="0"/>
        <pt x="457" y="813" on="0"/>
        <pt x="403" y="755" on="0"/>
        <pt x="315" y="755" on="0"/>
        <pt x="266" y="810" on="0"/>
        <pt x="266" y="884" on="0"/>
        <pt x="320" y="942" on="0"/>
        <pt x="408" y="942" on="0"/>
      </contour>
      <contour>
        <pt x="407" y="852" on="1"/>
        <pt x="407" y="870" on="0"/>
        <pt x="380" y="894" on="0"/>
        <pt x="361" y="894" on="1"/>
        <pt x="316" y="894" on="0"/>
        <pt x="316" y="844" on="1"/>
        <pt x="316" y="826" on="0"/>
        <pt x="343" y="802" on="0"/>
        <pt x="362" y="802" on="1"/>
        <pt x="407" y="802" on="0"/>
      </contour>
    </TTGlyph>
    <TTGlyph name="Utilde" xMin="28" yMin="-10" xMax="695" yMax="880">
      <contour>
        <pt x="613" y="614" on="1"/>
        <pt x="613" y="232" on="1"/>
        <pt x="613" y="148" on="0"/>
        <pt x="572" y="92" on="1"/>
        <pt x="500" y="-10" on="0"/>
        <pt x="351" y="-10" on="1"/>
        <pt x="232" y="-10" on="0"/>
        <pt x="110" y="115" on="0"/>
        <pt x="110" y="232" on="1"/>
        <pt x="110" y="614" on="1"/>
        <pt x="110" y="634" on="0"/>
        <pt x="99" y="649" on="0"/>
        <pt x="81" y="652" on="1"/>
        <pt x="28" y="661" on="1"/>
        <pt x="28" y="720" on="1"/>
        <pt x="278" y="720" on="1"/>
        <pt x="278" y="661" on="1"/>
        <pt x="225" y="652" on="1"/>
        <pt x="207" y="649" on="0"/>
        <pt x="196" y="634" on="0"/>
        <pt x="196" y="614" on="1"/>
        <pt x="196" y="248" on="1"/>
        <pt x="196" y="70" on="0"/>
        <pt x="382" y="70" on="1"/>
        <pt x="454" y="70" on="0"/>
        <pt x="531" y="142" on="0"/>
        <pt x="531" y="256" on="1"/>
        <pt x="531" y="614" on="1"/>
        <pt x="531" y="634" on="0"/>
        <pt x="520" y="649" on="0"/>
        <pt x="502" y="652" on="1"/>
        <pt x="449" y="661" on="1"/>
        <pt x="449" y="720" on="1"/>
        <pt x="695" y="720" on="1"/>
        <pt x="695" y="661" on="1"/>
        <pt x="642" y="652" on="1"/>
        <pt x="624" y="649" on="0"/>
        <pt x="613" y="634" on="0"/>
      </contour>
      <contour>
        <pt x="406" y="774" on="0"/>
        <pt x="317" y="811" on="0"/>
        <pt x="265" y="811" on="0"/>
        <pt x="227" y="780" on="1"/>
        <pt x="212" y="822" on="1"/>
        <pt x="253" y="880" on="0"/>
        <pt x="302" y="880" on="1"/>
        <pt x="332" y="880" on="0"/>
        <pt x="420" y="845" on="0"/>
        <pt x="474" y="845" on="0"/>
        <pt x="506" y="872" on="1"/>
        <pt x="522" y="832" on="1"/>
        <pt x="482" y="774" on="0"/>
        <pt x="433" y="774" on="1"/>
      </contour>
    </TTGlyph>
    <TTGlyph name="V" xMin="-6" yMin="1" xMax="668" yMax="721">
      <contour>
        <pt x="583" y="615" on="1"/>
        <pt x="383" y="1" on="1"/>
        <pt x="310" y="1" on="1"/>
        <pt x="88" y="615" on="1"/>
        <pt x="80" y="639" on="0"/>
        <pt x="52" y="655" on="0"/>
        <pt x="29" y="658" on="1"/>
        <pt x="-6" y="662" on="1"/>
        <pt x="-6" y="721" on="1"/>
        <pt x="263" y="721" on="1"/>
        <pt x="263" y="663" on="1"/>
        <pt x="210" y="657" on="1"/>
        <pt x="194" y="655" on="0"/>
        <pt x="181" y="648" on="0"/>
        <pt x="181" y="630" on="0"/>
        <pt x="186" y="615" on="1"/>
        <pt x="352" y="129" on="1"/>
        <pt x="499" y="615" on="1"/>
        <pt x="503" y="631" on="0"/>
        <pt x="503" y="636" on="1"/>
        <pt x="503" y="654" on="0"/>
        <pt x="472" y="657" on="1"/>
        <pt x="419" y="663" on="1"/>
        <pt x="419" y="721" on="1"/>
        <pt x="668" y="721" on="1"/>
        <pt x="668" y="662" on="1"/>
        <pt x="631" y="658" on="1"/>
        <pt x="611" y="656" on="0"/>
        <pt x="592" y="640" on="0"/>
      </contour>
    </TTGlyph>
    <TTGlyph name="W" xMin="-3" yMin="0" xMax="941" yMax="720">
      <contour>
        <pt x="861" y="614" on="1"/>
        <pt x="729" y="0" on="1"/>
        <pt x="608" y="0" on="1"/>
        <pt x="479" y="523" on="1"/>
        <pt x="353" y="0" on="1"/>
        <pt x="231" y="0" on="1"/>
        <pt x="91" y="614" on="1"/>
        <pt x="86" y="638" on="0"/>
        <pt x="59" y="654" on="0"/>
        <pt x="36" y="657" on="1"/>
        <pt x="-3" y="661" on="1"/>
        <pt x="-3" y="720" on="1"/>
        <pt x="267" y="720" on="1"/>
        <pt x="267" y="662" on="1"/>
        <pt x="210" y="656" on="1"/>
        <pt x="194" y="655" on="0"/>
        <pt x="182" y="645" on="0"/>
        <pt x="182" y="630" on="0"/>
        <pt x="184" y="614" on="1"/>
        <pt x="299" y="96" on="1"/>
        <pt x="431" y="646" on="1"/>
        <pt x="541" y="646" on="1"/>
        <pt x="675" y="96" on="1"/>
        <pt x="783" y="614" on="1"/>
        <pt x="784" y="620" on="0"/>
        <pt x="784" y="631" on="1"/>
        <pt x="784" y="652" on="0"/>
        <pt x="751" y="656" on="1"/>
        <pt x="698" y="662" on="1"/>
        <pt x="698" y="720" on="1"/>
        <pt x="941" y="720" on="1"/>
        <pt x="941" y="661" on="1"/>
        <pt x="906" y="657" on="1"/>
        <pt x="892" y="655" on="0"/>
        <pt x="884" y="652" on="1"/>
        <pt x="868" y="647" on="0"/>
      </contour>
    </TTGlyph>
</ttFont>
